<svg width="32" height="32" viewBox="0 0 32 32" fill="none" xmlns="http://www.w3.org/2000/svg">
<g clip-path="url(#clip0_3190_3353)">
<path d="M0 8C0 3.58172 3.58172 0 8 0H30C31.1046 0 32 0.895431 32 2V24C32 28.4183 28.4183 32 24 32H2C0.895431 32 0 31.1046 0 30V8Z" fill="#3468D1"/>
<g clip-path="url(#clip1_3190_3353)">
<path d="M16 29C23.1797 29 29 23.1797 29 16C29 8.8203 23.1797 3 16 3C8.8203 3 3 8.8203 3 16C3 23.1797 8.8203 29 16 29Z" fill="#3468D1"/>
<path fill-rule="evenodd" clip-rule="evenodd" d="M14.5504 12.0121C14.8045 12.0122 15.0529 12.0876 15.2642 12.2288C15.4755 12.37 15.6402 12.5707 15.7374 12.8055C15.8346 13.0403 15.8601 13.2987 15.8104 13.5479C15.7608 13.7972 15.6384 14.0261 15.4587 14.2058C15.279 14.3855 15.0501 14.5078 14.8008 14.5574C14.5515 14.607 14.2932 14.5815 14.0584 14.4843C13.8236 14.387 13.623 14.2223 13.4818 14.011C13.3406 13.7997 13.2652 13.5513 13.2652 13.2971C13.2653 12.9563 13.4007 12.6295 13.6417 12.3885C13.8827 12.1475 14.2096 12.0121 14.5504 12.0121ZM17.6527 12.0121C17.9069 12.0122 18.1553 12.0876 18.3665 12.2289C18.5778 12.3701 18.7425 12.5708 18.8397 12.8056C18.9369 13.0404 18.9623 13.2987 18.9127 13.548C18.863 13.7972 18.7406 14.0262 18.5609 14.2058C18.3812 14.3855 18.1522 14.5079 17.903 14.5574C17.6537 14.607 17.3954 14.5815 17.1606 14.4842C16.9258 14.387 16.7252 14.2223 16.584 14.011C16.4428 13.7997 16.3675 13.5512 16.3675 13.2971C16.3675 12.9563 16.5029 12.6294 16.744 12.3885C16.985 12.1475 17.3119 12.0121 17.6527 12.0121ZM17.6527 17.4179C17.9069 17.418 18.1553 17.4934 18.3665 17.6346C18.5778 17.7759 18.7425 17.9766 18.8397 18.2114C18.9369 18.4462 18.9623 18.7045 18.9127 18.9538C18.863 19.203 18.7406 19.4319 18.5609 19.6116C18.3812 19.7913 18.1522 19.9136 17.903 19.9632C17.6537 20.0127 17.3954 19.9873 17.1606 19.89C16.9258 19.7927 16.7252 19.628 16.584 19.4167C16.4428 19.2054 16.3675 18.957 16.3675 18.7029C16.3675 18.5341 16.4007 18.367 16.4653 18.2111C16.5299 18.0552 16.6246 17.9135 16.7439 17.7942C16.8633 17.6749 17.005 17.5802 17.1609 17.5157C17.3168 17.4511 17.484 17.4179 17.6527 17.4179ZM14.5504 17.4179C14.8045 17.418 15.0529 17.4934 15.2642 17.6346C15.4755 17.7758 15.6402 17.9765 15.7374 18.2113C15.8346 18.4461 15.8601 18.7044 15.8104 18.9537C15.7608 19.2029 15.6384 19.4319 15.4587 19.6116C15.279 19.7912 15.0501 19.9136 14.8008 19.9632C14.5515 20.0127 14.2932 19.9873 14.0584 19.89C13.8236 19.7928 13.623 19.6281 13.4818 19.4167C13.3406 19.2054 13.2652 18.957 13.2652 18.7029C13.2652 18.5341 13.2985 18.367 13.3631 18.2111C13.4277 18.0552 13.5223 17.9135 13.6417 17.7942C13.761 17.6749 13.9027 17.5803 14.0586 17.5157C14.2145 17.4511 14.3816 17.4179 14.5504 17.4179ZM12.955 14.7593C13.2091 14.7594 13.4575 14.8348 13.6688 14.976C13.8801 15.1172 14.0447 15.3179 14.142 15.5527C14.2392 15.7875 14.2646 16.0458 14.215 16.2951C14.1654 16.5443 14.043 16.7733 13.8633 16.953C13.6836 17.1326 13.4546 17.255 13.2054 17.3046C12.9561 17.3541 12.6978 17.3287 12.463 17.2314C12.2282 17.1342 12.0275 16.9695 11.8863 16.7581C11.7451 16.5468 11.6698 16.2984 11.6698 16.0443C11.6698 15.7035 11.8053 15.3766 12.0463 15.1357C12.2873 14.8947 12.6141 14.7593 12.955 14.7593ZM19.2482 14.7593C19.5023 14.7594 19.7507 14.8348 19.962 14.976C20.1732 15.1172 20.3379 15.318 20.4351 15.5528C20.5323 15.7876 20.5577 16.0459 20.5081 16.2952C20.4585 16.5444 20.3361 16.7733 20.1564 16.953C19.9767 17.1327 19.7477 17.255 19.4984 17.3046C19.2492 17.3541 18.9908 17.3287 18.7561 17.2314C18.5213 17.1341 18.3206 16.9694 18.1794 16.7581C18.0383 16.5468 17.9629 16.2984 17.9629 16.0443C17.9629 15.8755 17.9962 15.7084 18.0608 15.5525C18.1254 15.3966 18.22 15.2549 18.3394 15.1356C18.4587 15.0163 18.6004 14.9216 18.7564 14.8571C18.9123 14.7925 19.0794 14.7593 19.2482 14.7593ZM20.7107 12.5439C20.8684 12.544 21.0226 12.5908 21.1537 12.6784C21.2849 12.7661 21.3871 12.8907 21.4474 13.0364C21.5077 13.1822 21.5235 13.3425 21.4927 13.4972C21.4619 13.6519 21.3859 13.794 21.2744 13.9055C21.1628 14.0171 21.0207 14.093 20.866 14.1238C20.7113 14.1545 20.5509 14.1387 20.4052 14.0783C20.2595 14.018 20.1349 13.9157 20.0473 13.7846C19.9597 13.6534 19.9129 13.4992 19.9129 13.3415C19.9129 13.2367 19.9335 13.133 19.9736 13.0362C20.0137 12.9395 20.0725 12.8515 20.1466 12.7775C20.2207 12.7034 20.3086 12.6447 20.4054 12.6046C20.5022 12.5645 20.6059 12.5439 20.7107 12.5439ZM20.7107 17.8609C20.8684 17.861 21.0226 17.9078 21.1537 17.9954C21.2849 18.0831 21.3871 18.2077 21.4474 18.3534C21.5077 18.4992 21.5235 18.6595 21.4927 18.8142C21.4619 18.9689 21.3859 19.111 21.2744 19.2225C21.1628 19.3341 21.0207 19.41 20.866 19.4408C20.7113 19.4715 20.5509 19.4557 20.4052 19.3953C20.2595 19.335 20.1349 19.2327 20.0473 19.1016C19.9597 18.9704 19.9129 18.8162 19.9129 18.6585C19.9129 18.5537 19.9335 18.45 19.9736 18.3532C20.0137 18.2565 20.0725 18.1685 20.1466 18.0945C20.2207 18.0204 20.3086 17.9617 20.4054 17.9216C20.5022 17.8815 20.6059 17.8609 20.7107 17.8609ZM11.4925 17.8609C11.6502 17.8609 11.8044 17.9077 11.9355 17.9954C12.0667 18.083 12.1689 18.2076 12.2292 18.3534C12.2896 18.4991 12.3054 18.6595 12.2746 18.8142C12.2438 18.9689 12.1678 19.111 12.0563 19.2225C11.9447 19.334 11.8026 19.41 11.6479 19.4408C11.4932 19.4715 11.3328 19.4557 11.1871 19.3954C11.0414 19.335 10.9168 19.2328 10.8292 19.1016C10.7416 18.9704 10.6948 18.8162 10.6948 18.6585C10.6948 18.447 10.7789 18.2441 10.9285 18.0945C11.078 17.945 11.2809 17.8609 11.4925 17.8609ZM11.4925 12.5439C11.6502 12.544 11.8044 12.5907 11.9355 12.6784C12.0667 12.766 12.1689 12.8906 12.2292 13.0364C12.2896 13.1821 12.3054 13.3425 12.2746 13.4972C12.2438 13.6519 12.1678 13.794 12.0563 13.9055C11.9447 14.017 11.8026 14.093 11.6479 14.1238C11.4932 14.1545 11.3328 14.1387 11.1871 14.0783C11.0414 14.018 10.9168 13.9158 10.8292 13.7846C10.7416 13.6534 10.6948 13.4992 10.6948 13.3415C10.6948 13.13 10.7789 12.9271 10.9285 12.7775C11.078 12.628 11.2809 12.5439 11.4925 12.5439ZM16.1016 9.88533C16.2593 9.88537 16.4135 9.93218 16.5446 10.0198C16.6757 10.1075 16.7779 10.2321 16.8383 10.3778C16.8986 10.5236 16.9144 10.6839 16.8836 10.8386C16.8528 10.9933 16.7768 11.1354 16.6653 11.2469C16.5537 11.3585 16.4116 11.4344 16.2569 11.4652C16.1022 11.4959 15.9418 11.4801 15.7961 11.4197C15.6504 11.3594 15.5258 11.2571 15.4382 11.126C15.3506 10.9948 15.3038 10.8406 15.3038 10.6829C15.3038 10.5781 15.3244 10.4744 15.3645 10.3776C15.4046 10.2809 15.4634 10.1929 15.5375 10.1189C15.6115 10.0448 15.6995 9.98605 15.7963 9.94598C15.8931 9.90591 15.9968 9.8853 16.1016 9.88533ZM16.1016 20.5195C16.2593 20.5196 16.4135 20.5664 16.5446 20.654C16.6757 20.7417 16.7779 20.8663 16.8383 21.012C16.8986 21.1578 16.9144 21.3181 16.8836 21.4728C16.8528 21.6275 16.7768 21.7696 16.6653 21.8811C16.5537 21.9927 16.4116 22.0686 16.2569 22.0994C16.1022 22.1301 15.9418 22.1143 15.7961 22.0539C15.6504 21.9936 15.5258 21.8913 15.4382 21.7602C15.3506 21.629 15.3038 21.4748 15.3038 21.3171C15.3038 21.2123 15.3244 21.1086 15.3645 21.0118C15.4046 20.9151 15.4634 20.8271 15.5375 20.7531C15.6115 20.679 15.6995 20.6203 15.7963 20.5802C15.8931 20.5401 15.9968 20.5195 16.1016 20.5195ZM19.5141 21.3171C19.6455 21.3171 19.774 21.3562 19.8833 21.4292C19.9925 21.5023 20.0777 21.6061 20.1279 21.7275C20.1782 21.849 20.1914 21.9826 20.1657 22.1115C20.14 22.2404 20.0767 22.3588 19.9837 22.4518C19.8908 22.5447 19.7724 22.608 19.6434 22.6336C19.5145 22.6592 19.3809 22.6461 19.2595 22.5957C19.138 22.5454 19.0343 22.4602 18.9612 22.351C18.8882 22.2417 18.8492 22.1132 18.8492 21.9817C18.8492 21.8944 18.8664 21.808 18.8998 21.7273C18.9333 21.6467 18.9822 21.5734 19.044 21.5117C19.1057 21.45 19.179 21.401 19.2597 21.3676C19.3403 21.3342 19.4268 21.3171 19.5141 21.3171ZM12.6891 21.3171C12.8205 21.3171 12.949 21.3562 13.0583 21.4292C13.1675 21.5023 13.2527 21.6061 13.303 21.7275C13.3532 21.849 13.3664 21.9826 13.3407 22.1115C13.315 22.2404 13.2517 22.3588 13.1587 22.4518C13.0658 22.5447 12.9474 22.608 12.8184 22.6336C12.6895 22.6592 12.5559 22.6461 12.4345 22.5957C12.313 22.5454 12.2093 22.4602 12.1362 22.351C12.0632 22.2417 12.0242 22.1132 12.0242 21.9817C12.0242 21.8944 12.0414 21.808 12.0748 21.7273C12.1083 21.6467 12.1572 21.5734 12.219 21.5117C12.2807 21.45 12.354 21.401 12.4347 21.3676C12.5153 21.3342 12.6018 21.3171 12.6891 21.3171ZM12.6891 9.35365C12.8205 9.35369 12.949 9.3927 13.0583 9.46576C13.1675 9.53881 13.2527 9.64262 13.303 9.76407C13.3532 9.88552 13.3664 10.0192 13.3407 10.1481C13.315 10.277 13.2517 10.3954 13.1587 10.4883C13.0658 10.5812 12.9474 10.6445 12.8184 10.6701C12.6895 10.6958 12.5559 10.6826 12.4345 10.6323C12.313 10.582 12.2093 10.4968 12.1362 10.3875C12.0632 10.2782 12.0242 10.1497 12.0242 10.0183C12.0242 9.93098 12.0414 9.84454 12.0748 9.76389C12.1083 9.68324 12.1572 9.60996 12.219 9.54824C12.2807 9.48652 12.354 9.43757 12.4347 9.40418C12.5153 9.3708 12.6018 9.35362 12.6891 9.35365ZM19.5141 9.35365C19.6455 9.35369 19.774 9.3927 19.8833 9.46576C19.9925 9.53881 20.0777 9.64262 20.1279 9.76407C20.1782 9.88552 20.1914 10.0192 20.1657 10.1481C20.14 10.277 20.0767 10.3954 19.9837 10.4883C19.8908 10.5812 19.7724 10.6445 19.6434 10.6701C19.5145 10.6958 19.3809 10.6826 19.2595 10.6323C19.138 10.582 19.0343 10.4968 18.9612 10.3875C18.8882 10.2782 18.8492 10.1497 18.8492 10.0183C18.8492 9.93098 18.8664 9.84454 18.8998 9.76389C18.9333 9.68324 18.9822 9.60996 19.044 9.54824C19.1057 9.48652 19.179 9.43757 19.2597 9.40418C19.3403 9.3708 19.4268 9.35362 19.5141 9.35365ZM22.9708 15.2911C23.1023 15.2911 23.2308 15.3301 23.3401 15.4032C23.4493 15.4762 23.5345 15.58 23.5848 15.7014C23.6351 15.8229 23.6482 15.9565 23.6226 16.0854C23.5969 16.2144 23.5336 16.3328 23.4407 16.4257C23.3477 16.5187 23.2293 16.5819 23.1004 16.6076C22.9714 16.6332 22.8378 16.6201 22.7164 16.5697C22.5949 16.5194 22.4911 16.4342 22.4181 16.325C22.3451 16.2157 22.3061 16.0872 22.3061 15.9557C22.3061 15.7794 22.3762 15.6104 22.5008 15.4858C22.6255 15.3611 22.7946 15.2911 22.9708 15.2911ZM9.23218 15.2911C9.36363 15.2911 9.49211 15.3301 9.6014 15.4032C9.71068 15.4762 9.79585 15.58 9.84614 15.7014C9.89643 15.8229 9.90958 15.9565 9.88392 16.0854C9.85826 16.2144 9.79496 16.3328 9.702 16.4257C9.60905 16.5187 9.49062 16.5819 9.3617 16.6076C9.23278 16.6332 9.09915 16.6201 8.97771 16.5697C8.85627 16.5194 8.75248 16.4342 8.67946 16.325C8.60643 16.2157 8.56745 16.0872 8.56745 15.9557C8.56745 15.8684 8.58465 15.782 8.61805 15.7014C8.65146 15.6207 8.70043 15.5474 8.76215 15.4857C8.82388 15.424 8.89716 15.375 8.97781 15.3417C9.05846 15.3083 9.14489 15.2911 9.23218 15.2911ZM8.74468 11.2146C8.84986 11.2146 8.95268 11.2458 9.04013 11.3042C9.12759 11.3626 9.19574 11.4457 9.23599 11.5429C9.27624 11.6401 9.28676 11.747 9.26624 11.8501C9.24571 11.9533 9.19505 12.0481 9.12067 12.1224C9.04629 12.1968 8.95152 12.2474 8.84836 12.2679C8.7452 12.2884 8.63827 12.2779 8.54111 12.2376C8.44394 12.1974 8.36089 12.1292 8.30247 12.0417C8.24405 11.9543 8.21288 11.8514 8.2129 11.7463C8.21292 11.6052 8.26896 11.47 8.36869 11.3703C8.46842 11.2706 8.60366 11.2146 8.74468 11.2146ZM8.74468 19.722C8.84986 19.722 8.95268 19.7532 9.04013 19.8116C9.12759 19.87 9.19574 19.9531 9.23599 20.0503C9.27624 20.1474 9.28676 20.2544 9.26624 20.3575C9.24571 20.4607 9.19505 20.5554 9.12067 20.6298C9.04629 20.7042 8.95152 20.7548 8.84836 20.7753C8.7452 20.7958 8.63827 20.7853 8.54111 20.745C8.44394 20.7048 8.36089 20.6366 8.30247 20.5491C8.24405 20.4616 8.21288 20.3588 8.2129 20.2536C8.21292 20.1126 8.26896 19.9774 8.36869 19.8777C8.46842 19.778 8.60366 19.722 8.74468 19.722ZM23.4583 19.722C23.5635 19.722 23.6663 19.7532 23.7538 19.8116C23.8412 19.87 23.9094 19.9531 23.9497 20.0503C23.9899 20.1474 24.0004 20.2544 23.9799 20.3575C23.9594 20.4607 23.9087 20.5554 23.8343 20.6298C23.76 20.7042 23.6652 20.7548 23.562 20.7753C23.4589 20.7958 23.3519 20.7853 23.2548 20.745C23.1576 20.7048 23.0746 20.6366 23.0161 20.5491C22.9577 20.4616 22.9265 20.3588 22.9266 20.2536C22.9266 20.1126 22.9826 19.9774 23.0824 19.8777C23.1821 19.778 23.3173 19.722 23.4583 19.722ZM23.4583 11.2146C23.5635 11.2146 23.6663 11.2458 23.7538 11.3042C23.8412 11.3626 23.9094 11.4457 23.9497 11.5429C23.9899 11.6401 24.0004 11.747 23.9799 11.8501C23.9594 11.9533 23.9087 12.0481 23.8343 12.1224C23.76 12.1968 23.6652 12.2474 23.562 12.2679C23.4589 12.2884 23.3519 12.2779 23.2548 12.2376C23.1576 12.1974 23.0746 12.1292 23.0161 12.0417C22.9577 11.9543 22.9265 11.8514 22.9266 11.7463C22.9266 11.6052 22.9826 11.47 23.0824 11.3703C23.1821 11.2706 23.3173 11.2146 23.4583 11.2146ZM16.1016 6.96094C16.2067 6.96096 16.3095 6.99217 16.397 7.05062C16.4844 7.10907 16.5526 7.19213 16.5928 7.28931C16.633 7.38649 16.6435 7.49341 16.623 7.59656C16.6025 7.69972 16.5518 7.79446 16.4774 7.86882C16.403 7.94318 16.3083 7.9938 16.2051 8.0143C16.1019 8.0348 15.995 8.02425 15.8979 7.98398C15.8007 7.94371 15.7177 7.87554 15.6592 7.78807C15.6008 7.70061 15.5697 7.59779 15.5697 7.49262C15.5697 7.42278 15.5834 7.35363 15.6102 7.28911C15.6369 7.22459 15.6761 7.16597 15.7255 7.11659C15.7749 7.06722 15.8335 7.02806 15.898 7.00135C15.9626 6.97464 16.0317 6.96091 16.1016 6.96094ZM16.1016 23.9756C16.2067 23.9756 16.3095 24.0068 16.397 24.0653C16.4844 24.1237 16.5526 24.2068 16.5928 24.3039C16.633 24.4011 16.6435 24.508 16.623 24.6112C16.6025 24.7143 16.5518 24.8091 16.4774 24.8834C16.4031 24.9578 16.3083 25.0084 16.2052 25.029C16.102 25.0495 15.9951 25.0389 15.8979 24.9987C15.8008 24.9584 15.7177 24.8903 15.6593 24.8028C15.6009 24.7154 15.5697 24.6126 15.5697 24.5074C15.5697 24.4375 15.5834 24.3684 15.6102 24.3039C15.6369 24.2393 15.6761 24.1807 15.7255 24.1313C15.7749 24.0819 15.8335 24.0428 15.898 24.0161C15.9626 23.9893 16.0317 23.9756 16.1016 23.9756ZM20.7992 23.6211C20.8869 23.6211 20.9725 23.6471 21.0454 23.6958C21.1183 23.7445 21.1751 23.8137 21.2086 23.8947C21.2422 23.9757 21.2509 24.0648 21.2338 24.1507C21.2167 24.2367 21.1745 24.3156 21.1126 24.3776C21.0506 24.4396 20.9716 24.4818 20.8857 24.4989C20.7997 24.516 20.7106 24.5072 20.6297 24.4736C20.5487 24.4401 20.4795 24.3833 20.4308 24.3104C20.3821 24.2376 20.3561 24.1519 20.3561 24.0643C20.3561 24.0061 20.3676 23.9485 20.3898 23.8947C20.4121 23.8409 20.4448 23.7921 20.4859 23.7509C20.527 23.7098 20.5759 23.6771 20.6297 23.6549C20.6834 23.6326 20.741 23.6211 20.7992 23.6211ZM11.4038 23.6211C11.4914 23.6211 11.5771 23.6471 11.65 23.6958C11.7228 23.7445 11.7796 23.8137 11.8132 23.8947C11.8467 23.9757 11.8555 24.0648 11.8384 24.1507C11.8213 24.2367 11.7791 24.3156 11.7171 24.3776C11.6551 24.4396 11.5762 24.4818 11.4902 24.4989C11.4043 24.516 11.3152 24.5072 11.2342 24.4736C11.1532 24.4401 11.084 24.3833 11.0353 24.3104C10.9867 24.2376 10.9607 24.1519 10.9607 24.0643C10.9607 24.0061 10.9721 23.9485 10.9944 23.8947C11.0167 23.8409 11.0493 23.7921 11.0905 23.7509C11.1316 23.7098 11.1805 23.6771 11.2342 23.6549C11.288 23.6326 11.3456 23.6211 11.4038 23.6211ZM11.4038 7.49302C11.4914 7.49302 11.5771 7.51901 11.65 7.5677C11.7228 7.61639 11.7796 7.6856 11.8132 7.76657C11.8467 7.84754 11.8555 7.93663 11.8384 8.02259C11.8213 8.10855 11.7791 8.1875 11.7171 8.24947C11.6551 8.31145 11.5762 8.35365 11.4902 8.37074C11.4043 8.38784 11.3152 8.37906 11.2342 8.34553C11.1532 8.31199 11.084 8.25519 11.0353 8.18232C10.9867 8.10945 10.9607 8.02378 10.9607 7.93614C10.9606 7.87791 10.972 7.82025 10.9943 7.76645C11.0165 7.71264 11.0492 7.66373 11.0903 7.62254C11.1315 7.58135 11.1803 7.54868 11.2341 7.52639C11.2879 7.50409 11.3456 7.49262 11.4038 7.49262V7.49302ZM20.7992 7.49302C20.8869 7.49302 20.9725 7.51901 21.0454 7.5677C21.1183 7.61639 21.1751 7.6856 21.2086 7.76657C21.2422 7.84754 21.2509 7.93663 21.2338 8.02259C21.2167 8.10855 21.1745 8.1875 21.1126 8.24947C21.0506 8.31145 20.9716 8.35365 20.8857 8.37074C20.7997 8.38784 20.7106 8.37906 20.6297 8.34553C20.5487 8.31199 20.4795 8.25519 20.4308 8.18232C20.3821 8.10945 20.3561 8.02378 20.3561 7.93614C20.3561 7.87791 20.3675 7.82025 20.3897 7.76645C20.412 7.71264 20.4446 7.66373 20.4858 7.62254C20.5269 7.58135 20.5758 7.54868 20.6296 7.52639C20.6834 7.50409 20.741 7.49262 20.7992 7.49262V7.49302ZM25.4083 15.5571C25.496 15.5571 25.5817 15.5831 25.6545 15.6318C25.7274 15.6805 25.7842 15.7497 25.8177 15.8307C25.8513 15.9117 25.86 16.0008 25.8429 16.0867C25.8258 16.1727 25.7836 16.2516 25.7216 16.3136C25.6596 16.3756 25.5806 16.4178 25.4947 16.4348C25.4087 16.4519 25.3196 16.4431 25.2386 16.4095C25.1577 16.376 25.0885 16.3191 25.0398 16.2462C24.9911 16.1733 24.9652 16.0876 24.9652 16C24.9652 15.9418 24.9767 15.8842 24.999 15.8304C25.0212 15.7767 25.0539 15.7278 25.095 15.6867C25.1362 15.6455 25.185 15.6129 25.2388 15.5906C25.2925 15.5683 25.3501 15.5569 25.4083 15.5569V15.5571ZM6.79468 15.5571C6.88233 15.5571 6.96801 15.5831 7.04088 15.6318C7.11376 15.6805 7.17055 15.7497 7.20409 15.8307C7.23762 15.9117 7.24638 16.0008 7.22927 16.0867C7.21215 16.1727 7.16993 16.2516 7.10794 16.3136C7.04595 16.3756 6.96697 16.4178 6.881 16.4348C6.79503 16.4519 6.70593 16.4431 6.62497 16.4095C6.544 16.376 6.47481 16.3191 6.42614 16.2462C6.37748 16.1733 6.35152 16.0876 6.35156 16C6.35156 15.9418 6.36302 15.8842 6.38529 15.8304C6.40756 15.7767 6.4402 15.7278 6.48135 15.6867C6.5225 15.6455 6.57135 15.6129 6.62511 15.5906C6.67887 15.5683 6.73649 15.5569 6.79468 15.5569V15.5571Z" fill="white"/>
</g>
</g>
<defs>
<clipPath id="clip0_3190_3353">
<rect width="32" height="32" fill="white"/>
</clipPath>
<clipPath id="clip1_3190_3353">
<rect width="26" height="26" fill="white" transform="translate(3 3)"/>
</clipPath>
</defs>
</svg>
