<svg width="32" height="32" viewBox="0 0 32 32" fill="none" xmlns="http://www.w3.org/2000/svg">
<g clip-path="url(#clip0_3190_3339)">
<path d="M0 8C0 3.58172 3.58172 0 8 0H30C31.1046 0 32 0.895431 32 2V24C32 28.4183 28.4183 32 24 32H2C0.895431 32 0 31.1046 0 30V8Z" fill="#BA9F33"/>
<g clip-path="url(#clip1_3190_3339)">
<path d="M16 30.2136C23.8499 30.2136 30.2136 23.8499 30.2136 16C30.2136 8.15002 23.8499 1.78638 16 1.78638C8.15002 1.78638 1.78638 8.15002 1.78638 16C1.78638 23.8499 8.15002 30.2136 16 30.2136Z" fill="#BA9F33"/>
<path fill-rule="evenodd" clip-rule="evenodd" d="M7.55823 14.3981C7.47327 14.3205 7.38351 14.2427 7.30095 14.1651C7.21839 14.0875 7.13359 14.0098 7.04863 13.9322L6.79615 13.6922C6.75487 13.6509 6.71119 13.6146 6.66991 13.5731C6.62863 13.5368 6.58015 13.4955 6.53887 13.459C6.20383 13.1411 5.86687 12.8232 5.53647 12.5051C5.87871 12.8182 6.21375 13.1291 6.55599 13.4469L6.67487 13.5659C6.71615 13.607 6.75983 13.6435 6.80111 13.6848L7.05343 13.9178C7.13839 13.9954 7.22095 14.0731 7.30591 14.1578C7.39087 14.2424 7.47343 14.3203 7.55839 14.3978L7.55823 14.3981ZM3.11167 14.3501C3.11167 14.3501 4.33007 14.4762 4.92479 14.5611C5.47567 14.6389 7.19903 14.9034 7.19903 14.9034L3.11167 14.3501ZM3.11167 14.3501C3.45391 14.3792 3.79615 14.4155 4.13839 14.452C4.31311 14.469 4.48063 14.4883 4.64815 14.5053L4.90527 14.5346C4.99023 14.5466 5.07279 14.5587 5.15775 14.5709L6.17727 14.7334L6.68687 14.8184C6.85439 14.8475 7.02191 14.8792 7.19663 14.9083C7.02911 14.8914 6.85439 14.867 6.68687 14.8427L6.17727 14.7699L5.15775 14.6195C5.07279 14.6074 4.99023 14.5902 4.90527 14.5782L4.64799 14.5486C4.48047 14.5317 4.30575 14.5074 4.13823 14.4878C3.79599 14.4467 3.45375 14.4029 3.11151 14.3496L3.11167 14.3501ZM7.07775 15.2208C7.07775 15.2208 5.77679 15.551 5.33743 15.6773C4.90543 15.7962 3.59711 16.1942 3.59711 16.1942L7.07759 15.221L7.07775 15.2208Z" fill="#CFB66C"/>
<path fill-rule="evenodd" clip-rule="evenodd" d="M7.07759 15.2207C6.78879 15.3057 6.50159 15.3882 6.20863 15.466L5.33967 15.6989C5.05087 15.7839 4.76367 15.8665 4.47567 15.9514L4.04367 16.0703C3.90047 16.1116 3.75487 16.1479 3.60687 16.1893C3.74991 16.1413 3.89567 16.0922 4.03887 16.0509L4.47087 15.9127C4.75967 15.8228 5.04687 15.7378 5.33487 15.6481C5.62847 15.5753 5.91743 15.4975 6.21103 15.4271C6.49007 15.3567 6.78383 15.2865 7.07759 15.2209V15.2207ZM3.77919 16.9951C3.92223 16.9417 5.57279 16.1724 5.95631 15.9927C6.14831 15.9028 6.70639 15.7047 6.70639 15.7047L3.77919 16.9951Z" fill="#CFB66C"/>
<path fill-rule="evenodd" clip-rule="evenodd" d="M3.77915 16.9951C3.90523 16.9471 4.02427 16.8884 4.14555 16.8326L4.50475 16.6651L5.22571 16.318C5.46571 16.2039 5.69899 16.078 5.94651 15.9708C6.07275 15.9175 6.19899 15.8739 6.32507 15.8326L6.51707 15.7719C6.58251 15.755 6.64331 15.7355 6.70907 15.7185C6.46907 15.8326 6.21643 15.9297 5.97611 16.0412C5.73611 16.1603 5.49067 16.2574 5.24299 16.3641L4.51003 16.6868C4.26395 16.7865 4.02395 16.8932 3.77899 16.9951H3.77915ZM3.93915 17.6671C3.93915 17.6671 5.43419 16.791 5.94875 16.5094C6.21819 16.359 7.08955 15.9268 7.08955 15.9268L3.93915 17.6671Z" fill="#CFB66C"/>
<path fill-rule="evenodd" clip-rule="evenodd" d="M3.93933 17.6675C4.19165 17.5121 4.44893 17.3544 4.70621 17.1942L5.09021 16.9611C5.22125 16.8835 5.34749 16.8107 5.48109 16.7331C5.61213 16.6553 5.73837 16.5777 5.87181 16.5049C5.93533 16.4657 6.00189 16.4316 6.07085 16.403L6.27469 16.3011C6.54413 16.17 6.81357 16.0364 7.09757 15.9224C6.84029 16.0851 6.57565 16.2235 6.31117 16.3665C6.18013 16.4393 6.04653 16.5049 5.91549 16.5777C5.78445 16.6505 5.65821 16.7283 5.52461 16.7987C5.39357 16.8763 5.26733 16.9491 5.13389 17.0195L4.73821 17.2355L3.93965 17.6675H3.93933ZM7.07757 16.1188C7.07757 16.1188 6.14797 16.8324 5.84701 17.0606C5.54605 17.2888 4.66013 17.9296 4.66013 17.9296L7.07757 16.1188Z" fill="#CFB66C"/>
<path fill-rule="evenodd" clip-rule="evenodd" d="M12.4126 21.8737L11.937 20.9732L12.2136 19.847L14.1869 19.0849L13.347 17.3617L13.7621 15.6214L14.5413 14.063L16.9491 13.6844L18.7184 11.9976L22.5389 12.2864L23.2888 16.3713L21.8446 21.5145L21.0219 24.1772L17.6869 24.3035L16.1384 23.2307L14.3253 22.4732L12.4126 21.8737Z" fill="#E2CC85"/>
<path fill-rule="evenodd" clip-rule="evenodd" d="M18.2622 21.8447C18.2622 21.8447 17.8009 22.0559 17.0142 22.0073C16.7865 21.7015 15.192 21.5583 15.192 21.5583C15.192 21.5583 14.9929 21.4977 14.6409 21.6433C14.2867 21.7873 13.9516 21.7695 13.6385 21.8471C13.3254 21.9247 13.0145 21.5171 12.7745 21.4321C12.5345 21.3423 12.2163 21.1263 12.2163 21.1263L11.5443 21.0607L10.1948 20.4903L8.051 18.3545L7.46844 19.2665L7.28876 20.3951L7.93692 21.7326L9.68204 23.3223L13.0849 24.1863L15.1019 23.5921L17.6286 22.5241L18.2622 21.8446V21.8447Z" fill="#F1D789"/>
<path fill-rule="evenodd" clip-rule="evenodd" d="M6.17228 14.2962L6.60428 12.9881L7.119 12.1433L8.7766 12.0049L8.279 13.4564L6.89324 15.9225L7.46844 18.1239L6.44908 18.6335L6.1358 18.153L5.88348 17.0511L5.86652 15.8132L6.17228 14.2962Z" fill="#F4ECB4"/>
<path fill-rule="evenodd" clip-rule="evenodd" d="M8.03147 21.7547L7.71355 21.3106C7.71355 21.3106 7.62859 21.0994 7.67723 20.9149C7.72523 20.728 7.71835 20.7159 7.69419 20.6455C7.67003 20.5751 7.46603 20.3323 7.47819 20.1235C7.49019 19.9123 7.46123 19.8419 7.61643 19.6746C7.77899 19.512 7.73051 19.2304 7.73051 19.2304L7.94171 19.3615L7.98971 19.2887C7.98971 19.2887 8.06731 19.3493 8.06731 19.444C8.08427 19.313 8.01387 18.7061 8.17403 18.5679C8.33419 18.4296 8.61819 19.2159 8.61819 19.2159L8.44347 18.0751L7.99435 16.9053L7.19579 15.8373L7.14779 14.66V14.5581C7.14779 14.5581 6.78123 15.1213 6.67931 15.5661C6.60651 15.8719 6.78123 16.2432 6.74491 16.6826C6.71563 17.1195 6.67931 17.0855 6.78603 17.2586C6.89275 17.4317 7.15259 17.7877 7.05067 18.045C6.96091 18.2659 6.65499 18.1106 6.65499 18.1106C6.65499 18.1106 6.59435 18.2901 6.51179 18.3557C6.48267 18.249 6.45115 18.181 6.39291 18.1157C6.38795 18.157 6.37595 18.2128 6.37595 18.2128C6.37595 18.2128 6.32251 18.0453 6.26907 17.8341C6.19643 17.5527 6.11867 17.1813 6.04827 16.9823C6.01915 17.0963 5.94635 17.4434 5.94635 17.4434L5.98763 17.9775L6.18667 18.7104L6.37867 19.1904L6.56555 19.7778L6.72795 20.1723L6.85899 20.4733L6.97307 21.1506L7.52395 21.733L7.81771 21.8642L8.03115 21.7549L8.03147 21.7547Z" fill="#F3E19D"/>
<path fill-rule="evenodd" clip-rule="evenodd" d="M6.46108 13.2282C6.46108 13.2282 6.0654 13.9002 5.95148 14.5777C5.83756 15.2551 5.73548 15.9709 5.80748 16.8932C5.88028 17.8229 6.01868 18.3932 6.13036 18.801C6.32236 19.4783 6.81964 20.4201 6.81964 20.4201L6.8366 20.3836C6.75301 20.2251 6.6863 20.0584 6.63756 19.886C6.57196 19.6287 6.54764 19.323 6.487 19.1846C6.43356 19.0463 6.3438 18.9273 6.30012 18.7573C6.25884 18.5948 6.25212 18.3375 6.1254 18.1458C6.07196 18.0681 6.00636 17.8642 5.987 17.6604C5.96268 17.3545 5.99916 17.0122 5.97004 16.7308C5.9166 16.2623 5.88028 15.9444 5.92876 15.6991C5.97724 15.4538 6.22988 14.7575 6.38524 14.2041C6.48716 13.8497 6.42636 13.5511 6.61324 13.2428C6.80012 12.937 6.91436 12.6676 6.95548 12.4807C7.00348 12.3108 6.46044 13.2282 6.46044 13.2282H6.46108Z" fill="#F2E8B0"/>
<path fill-rule="evenodd" clip-rule="evenodd" d="M8.33739 12.9587C8.33739 12.9587 8.13355 13.0195 8.03643 13.1263C7.93931 13.2282 7.89803 13.3131 7.76699 13.4855C7.63595 13.6578 7.62859 13.7986 7.52171 14.0146C7.41499 14.2258 7.17947 14.5437 7.15035 14.6578C7.12123 14.7719 7.07275 15.3058 7.01211 15.5583C6.95867 15.8107 7.07275 16.1215 7.07275 16.1215L7.21099 16.0922C7.21099 16.0922 7.21099 16.2719 7.34939 16.3933C7.48763 16.5122 7.51195 15.9903 7.51195 15.9903L8.02891 14.2451L8.80795 13.716L8.89291 13.2888L8.33707 12.9587H8.33739Z" fill="#F5EEC0"/>
<path fill-rule="evenodd" clip-rule="evenodd" d="M8.716 13.7501C8.716 13.7501 8.34944 13.7743 8.16992 13.9055C8.09712 13.9588 8.068 14.0025 7.9904 14.0681C7.8472 14.1869 7.70144 14.2962 7.6312 14.4521C7.55344 14.6073 7.46848 14.8428 7.41024 15.2869C7.38592 15.4738 7.38592 15.6461 7.36896 15.7967C7.34464 16.0005 7.30832 16.1631 7.32768 16.2767C7.352 16.5097 7.59232 16.6311 7.61568 16.8956L8.11328 16.6433L8.58176 14.7961L9.57696 14.1721L9.01376 13.541L8.71536 13.749L8.716 13.7501Z" fill="#E6DB9D"/>
<path fill-rule="evenodd" clip-rule="evenodd" d="M6.09086 26.1886C6.09294 26.1703 6.09502 26.1521 6.0971 26.1333C6.16974 25.5093 6.18206 25.0364 6.23534 24.7402C6.31294 24.3204 6.36638 24.1642 6.35422 24.0071C6.33726 23.7548 6.3179 23.5703 6.34222 23.3761C6.37854 23.1188 6.63102 22.813 6.62382 22.6018C6.61886 22.4343 6.5339 22.3252 6.4611 22.2233C6.3883 22.1213 6.33006 22.0364 6.33006 22.0364C6.33006 22.0364 6.82766 21.6941 6.82286 20.3154C6.83302 20.3183 6.8428 20.3224 6.85198 20.3276L7.0971 21.0241L7.26462 21.2279L7.90782 22.4269L8.7355 23.2305L9.9587 24.0532L10.7257 24.8879L10.8033 27.1137L9.80094 28.4146L9.63678 28.7119C8.33257 28.0572 7.13661 27.2061 6.0907 26.1884L6.09086 26.1886Z" fill="#E5CB7A"/>
<path fill-rule="evenodd" clip-rule="evenodd" d="M9.15295 28.3179C9.15295 28.3179 9.16991 28.0413 9.39807 27.8616C9.43455 27.9222 9.45871 27.9806 9.45151 28.0242C9.49279 27.9515 9.78159 27.4854 10.4346 27.364C11.0875 27.2451 11.2453 26.7694 11.2453 26.7694L12.631 25.5098L14.216 24.051L16.1432 23.3738L17.0438 23.1528C17.0438 23.1528 17.0608 23.2184 17.0269 23.364C17.1942 23.352 17.5656 23.267 17.9515 23.131C18.1069 23.0704 18.2526 23.0461 18.3302 23.1262C18.4443 23.233 18.4613 23.4854 18.4685 23.6358C18.6554 23.5946 18.8714 23.415 19.0445 23.432C19.3213 23.4611 19.5664 23.7864 19.848 23.7864C20.2194 23.7864 20.3867 23.5582 20.6466 23.3786C20.8019 23.2718 21.0251 23.1386 21.1514 23.0485C21.4523 22.8275 24.6368 21.8542 24.6368 21.8542L25.7533 21.927L25.933 23.1261L25.837 26.2605C25.8251 26.2718 25.8133 26.2837 25.8013 26.295L20.7248 28.9464L13.688 30.0251C12.1117 29.7676 10.5906 29.2444 9.18943 28.4778L9.15343 28.3178L9.15295 28.3179Z" fill="#D8C173"/>
<path fill-rule="evenodd" clip-rule="evenodd" d="M6.51758 26.5874C6.61758 26.3783 6.7075 26.2034 6.72334 26.1409C6.73582 26.2669 6.7587 26.5436 6.80478 26.8377C6.70803 26.7554 6.6123 26.672 6.51758 26.5873V26.5874Z" fill="#F1D789"/>
<path fill-rule="evenodd" clip-rule="evenodd" d="M11.6579 29.5371L12.568 29.284L12.6456 29.3083C12.6456 29.3083 12.6869 29.3326 12.6869 29.415C12.801 29.3496 12.8981 29.3616 12.9685 29.3181C13.0048 29.3957 13.0411 29.653 13.2014 29.6845C13.3688 29.721 13.5485 29.6117 13.7306 29.4734C13.9101 29.3302 14.1146 29.1506 14.2693 29.0778C14.326 29.1821 14.3763 29.2899 14.4198 29.4005C14.6237 29.2379 14.9781 28.5778 15.4829 28.5898C15.6288 28.245 15.8725 27.9505 16.184 27.7427C16.6525 27.4248 16.9461 27.4005 17.3126 27.4296C17.4582 27.2405 17.6376 27.08 17.8418 26.9563C17.9024 26.9806 18.0699 27.0826 18.2787 26.9854C18.4899 26.8885 18.7277 26.5122 19.0408 26.4637C19.2095 26.4405 19.3811 26.4765 19.5262 26.5656C19.5262 26.5656 20.4382 25.6602 21.0675 25.3592C21.0432 25.2864 20.9947 25.0122 21.7325 24.4053C21.7738 24.4418 21.7446 24.5437 21.7738 24.5493C21.7858 24.5493 21.9658 24.4717 22.1936 24.2968C22.4752 24.0858 22.8125 23.8648 23.0163 23.8042C23.4003 23.6901 23.8077 23.923 23.8077 23.923C23.8423 23.8987 23.8809 23.8807 23.9218 23.8696C24.0187 23.8526 24.0891 23.8405 24.1426 23.8216C24.1378 23.9478 24.2082 24.1638 24.1426 24.3507C24.2185 24.3935 24.299 24.4276 24.3826 24.4526C24.3414 24.5424 24.2515 24.7706 24.1011 24.8798C24.2272 24.9405 24.2442 25.0109 24.4238 25.0718C24.351 25.1738 24.2318 25.3486 24.1787 25.4558C24.1253 25.5699 23.9334 26.0432 23.8485 26.2227C23.7587 26.4024 23.6374 26.7325 23.579 26.7987C23.5206 26.865 23.3096 27.1458 23.147 27.284C23.291 27.2306 23.8802 27.051 24.1301 26.983C24.0557 27.0922 23.6786 27.6517 23.316 28.1898C21.5801 29.2302 19.6423 29.8888 17.6319 30.1215C15.6215 30.3543 13.5845 30.1559 11.6568 29.5395L11.6579 29.5371Z" fill="#E0CD81"/>
<path fill-rule="evenodd" clip-rule="evenodd" d="M8.77595 13.6844C8.77595 13.6844 8.56491 13.6844 8.52363 13.7136C8.48235 13.7427 8.73483 13.8035 8.81243 13.8326C8.89003 13.8617 9.05755 13.9952 9.10123 14.102C9.14251 14.204 10.6182 14.7985 10.6182 14.7985L11.6619 14.7451L12.0217 14.248L11.3372 13.6484L11.8172 12.2334L11.1814 12.3353L9.65227 13.2473L8.88523 13.5411L8.77595 13.6844Z" fill="#DFC57C"/>
<path fill-rule="evenodd" clip-rule="evenodd" d="M11.068 14.1529C11.083 14.1773 11.1043 14.1973 11.1296 14.211C11.1548 14.2246 11.1833 14.2313 11.212 14.2305C11.428 14.2305 11.6268 14.2839 11.7094 14.393C11.8478 14.5679 12.2313 15.1262 12.2313 15.1262L13.1488 15.4562L13.208 14.3759L12.2056 13.6794L11.0648 14.0993V14.1527H11.0673L11.068 14.1529Z" fill="#E5CC7C"/>
<path fill-rule="evenodd" clip-rule="evenodd" d="M10.888 14.5535C10.888 14.5535 11.0553 14.5657 11.2665 14.4879C11.4777 14.4101 11.8248 14.2428 11.9753 14.3084C12.1864 14.3981 12.1427 14.6797 12.371 14.9324C12.5092 15.0877 12.7617 15.0829 12.9049 15.2505C13.0481 15.418 13.5408 15.3402 13.5408 15.3402L13.7276 16.3482L12.9777 17.3095L12.7324 18.5036H11.7184L10.792 18.1361L10.3356 17.0321L10.5638 15.9156L10.888 14.5535Z" fill="#D2C281"/>
<path fill-rule="evenodd" clip-rule="evenodd" d="M12.8496 14.602C12.8747 14.6097 12.9008 14.6138 12.9272 14.6141C12.898 14.6384 12.8372 14.6917 12.8616 14.8301C12.8859 14.9685 12.9635 15.1432 12.898 15.25C12.9503 15.3071 12.9892 15.3751 13.0121 15.449C13.0534 15.568 13.0656 15.6772 13.3348 15.6943C13.296 15.7182 13.2601 15.7467 13.2281 15.7792C13.2281 15.7792 13.415 15.9418 13.5097 16.0922C13.6067 16.088 13.864 16.008 13.864 16.008L13.9174 16.0445L14.0315 15.9965C14.0315 15.9965 13.9248 15.9552 14.0024 15.6956C14.0752 15.4674 14.1408 15.4796 14.1464 15.4626C14.152 15.4456 14.1998 15.2053 14.1998 15.1082C14.2361 14.9821 14.2652 14.5986 14.2652 14.5986L14.1876 13.7516L13.7508 13.4869L13.3956 13.144L13.0606 13.7751L12.84 13.9951L12.823 14.5412L12.8496 14.602Z" fill="#E2C270"/>
<path fill-rule="evenodd" clip-rule="evenodd" d="M13.9005 13.8931C13.9005 13.8931 13.9781 14.1139 14.0073 14.2839C14.0176 14.2508 14.0234 14.2165 14.0243 14.1819C14.0243 14.1819 14.0849 14.517 14.0969 14.6554C14.1213 14.6504 14.1449 14.6432 14.1504 14.6674C14.1558 14.6915 14.2112 14.9611 14.1984 15.1115C14.2994 14.9448 14.4393 14.8049 14.6061 14.7039C14.7032 14.6431 14.8173 14.5776 14.9363 14.5727C15.1232 14.5679 15.259 14.6917 15.4824 14.6917C16.0211 14.6917 16.5091 14.296 16.8683 14.1747C17.1328 14.0848 17.3609 14.0194 17.5211 13.8736C17.5989 13.8082 17.7373 13.6626 17.8633 13.4464C18.0309 13.1584 18.2056 12.9077 18.3805 12.8762C18.3013 12.8907 18.2208 12.8964 18.1405 12.8931C18.1405 12.8931 18.1939 12.8397 18.2845 12.7669C18.375 12.6941 18.4835 12.6043 18.6387 12.6043C18.9155 12.6043 19.0537 12.6455 19.2091 12.6455C19.3644 12.6407 19.4542 12.6043 19.4542 12.6043C19.4542 12.6043 19.6169 12.7184 19.9833 12.7184C20.3499 12.7232 20.595 12.7547 20.7869 12.7719C20.9787 12.789 21.6217 12.7184 21.8062 12.7239C21.9265 12.7285 22.0446 12.7574 22.1534 12.8088L21.5587 11.0808L19.4224 9.21362L18.1505 10.1141L16.1941 12.0704L14.3009 12.7719L13.9053 13.216V13.8931H13.9005Z" fill="#CCB360"/>
<path fill-rule="evenodd" clip-rule="evenodd" d="M18.1481 12.9029C18.1481 12.9029 18.2016 12.8496 18.2912 12.7768C18.3808 12.704 18.4904 12.6141 18.6456 12.6141C18.9222 12.6141 19.0606 12.6554 19.216 12.6554C19.3713 12.6506 19.4611 12.6141 19.4611 12.6141C19.4611 12.6141 19.624 12.728 19.9902 12.728C20.3568 12.7328 20.6019 12.7644 20.7937 12.7813C20.9856 12.7983 21.6286 12.728 21.8131 12.7333C21.9333 12.7378 22.0514 12.7667 22.1601 12.8183L21.8907 12.0391L21.5777 11.4445L20.6845 10.4663C20.6845 10.4663 19.6125 9.83524 19.6043 9.83044C19.5995 9.82564 19.2329 9.72852 19.2329 9.72852L18.2621 10.3159L17.3811 12.5951L17.3641 13.0751L17.9344 13.3445C18.0776 13.1045 18.2355 12.9125 18.3835 12.8882C18.2499 12.9028 18.148 12.9028 18.148 12.9028L18.1481 12.9029Z" fill="#D5B457"/>
<path fill-rule="evenodd" clip-rule="evenodd" d="M18.136 13.0655C18.051 13.0703 17.9808 13.0533 17.9612 12.9927C17.8884 12.7888 17.8302 12.7597 17.7692 12.7597C17.7083 12.7597 17.626 12.8907 17.5772 12.9027C17.5284 12.9147 17.4705 12.7523 17.4705 12.7523L17.4171 12.728C17.4171 12.728 17.104 12.9319 16.8832 13.1722C16.6624 13.4125 16.3006 13.8203 16.138 13.893C15.9755 13.9656 15.4171 13.9901 15.226 14.0314C15.035 14.0727 14.8232 14.2111 14.794 14.2426C14.7649 14.2741 14.8792 14.308 14.8961 14.3395C14.9131 14.3687 14.7091 14.3565 14.6921 14.3875C14.6801 14.4119 14.7401 14.5501 14.7699 14.6205C14.822 14.5946 14.8791 14.5805 14.9372 14.5792C15.1241 14.5744 15.2601 14.6983 15.4833 14.6983C16.0222 14.6983 16.51 14.3026 16.8692 14.1811C17.1339 14.0914 17.362 14.0258 17.5222 13.8802C17.5998 13.8147 17.7382 13.669 17.8644 13.453C17.9566 13.305 18.0465 13.1666 18.1364 13.0647L18.136 13.0655Z" fill="#D2B257"/>
<path fill-rule="evenodd" clip-rule="evenodd" d="M10.408 25.0777C10.408 25.0777 10.36 24.898 9.91517 24.4345C9.78893 24.3034 9.71133 24.1945 9.62637 24.1166C9.41517 23.9174 9.29133 23.8641 9.14093 23.75C8.81085 23.5049 8.45165 23.5049 8.17501 23.2039C7.89837 22.903 7.57597 22.3279 7.35197 21.7402C7.13117 21.1529 7.07037 20.966 7.07037 20.949C7.07037 20.9321 7.13117 20.818 7.20877 20.835C7.28637 20.8519 7.28637 21.0023 7.30589 21.0388C7.34456 21.0983 7.38841 21.1544 7.43693 21.2062C7.55101 21.3374 7.71357 21.4942 7.79613 21.7281C7.77917 21.529 7.71117 21.3082 7.71117 21.3082C7.71117 21.3082 8.13837 21.5777 8.50237 21.8591C8.86893 22.1407 9.01933 22.2378 9.12637 22.4174C9.23341 22.5969 9.48557 23.0703 9.60637 23.2087C9.72717 23.3471 11.3824 23.8689 11.3824 23.8689L12.1697 24.4559L12.5606 25.3127L12.2547 25.7927L11.6673 25.919L10.7134 25.4918L10.408 25.0775V25.0777Z" fill="#D2B159"/>
<path fill-rule="evenodd" clip-rule="evenodd" d="M8.28876 22.1263C8.28876 22.1263 8.4878 22.4442 8.97324 22.7452C9.4102 23.0098 10.1019 23.2502 10.7185 23.3934C11.0728 23.4783 11.4272 23.5438 11.7451 23.5487C12.6019 23.5607 13.1916 23.3158 13.9224 23.2356C14.318 23.1943 14.8035 23.1628 15.3083 23.0436C15.9563 22.8882 16.3398 22.7134 16.8617 22.4676C17.2403 22.2929 17.5875 22.1618 17.8689 21.9943C18.2646 21.7614 18.5534 21.5017 18.8884 21.4241C18.8472 21.5382 18.8035 21.742 18.4734 21.9532C18.6481 21.9482 18.8884 21.9362 18.8884 21.9362C18.8884 21.9362 18.6555 22.0745 18.2452 22.3852C17.9928 22.5772 17.6579 22.9022 17.3156 23.1182C17.0947 23.2566 16.8544 23.3582 16.6966 23.441C16.3126 23.6522 16.1577 23.759 15.9054 24.017C15.9952 24.0122 16.0025 24.017 16.0025 24.017C16.0025 24.017 15.6844 24.0583 15.4564 24.1796C15.4084 24.1796 15.3252 24.1626 15.1796 24.2039C15.0656 24.2402 14.915 24.323 14.7598 24.3665C14.5388 24.4321 14.4662 24.403 14.4662 24.403L14.5025 24.4758C14.5025 24.4758 14.2145 24.4708 14.1185 24.4806C14.1355 24.4854 14.1307 24.4927 14.1307 24.4927C14.1138 24.4955 14.0976 24.5013 14.0827 24.5097C14.0365 24.5396 13.9857 24.5617 13.9323 24.5751C13.9032 24.5799 13.8788 24.5799 13.8424 24.5873C13.8545 24.6164 13.9492 24.7793 13.9929 24.8753C13.9566 24.8996 13.4104 25.3122 13.4104 25.3122C13.4273 25.3389 13.4411 25.3674 13.4516 25.3972C13.4686 25.4505 13.476 25.5282 13.4929 25.5646C13.534 25.6374 13.5584 25.6495 13.5584 25.6495C13.5584 25.6495 13.4929 25.6617 13.3787 25.6908C13.2817 25.7151 13.1627 25.7562 12.9947 25.7806C12.9431 25.7873 12.8913 25.7913 12.8393 25.7927C12.8636 25.8462 12.9704 26.05 12.7737 26.2854C12.5771 26.5207 12.5164 26.555 12.4558 26.7054C12.4253 26.6823 12.3928 26.6619 12.3587 26.6446C12.2932 26.6154 12.2033 26.5719 12.1718 26.5135C12.1534 26.5913 12.1291 26.6676 12.099 26.7417C12.0384 26.9042 11.9486 27.0646 11.9316 27.1858C11.866 27.113 11.7448 26.9698 11.5772 26.999C11.4097 27.0281 11.2763 27.2562 11.2472 27.3218C11.2472 27.2806 11.218 27.249 11.2108 27.2975C11.2059 27.351 11.1137 27.909 10.5992 28.3606C10.5944 28.2465 10.5944 27.994 10.5822 27.9116C10.5342 27.9596 10.4755 28.0305 10.1259 28.181C9.78364 28.3314 9.83788 28.482 9.83788 28.482C9.83788 28.482 9.80876 28.242 9.99324 27.9892C10.1801 27.7369 10.2942 27.6178 10.2942 27.5985C10.2912 27.5788 10.2828 27.5603 10.2699 27.545C10.2456 27.5207 10.1971 27.4916 10.1971 27.4722C10.2262 27.4602 10.515 27.3218 10.498 27.0353C10.4811 26.7782 10.372 26.6446 10.2942 26.55C10.2822 26.5378 10.4084 26.4481 10.3913 26.419C10.3792 26.402 10.224 26.2878 10.2044 26.227C10.209 26.1907 10.2172 26.1549 10.2288 26.1202C10.2457 26.0668 10.2579 26.0303 10.2531 25.994C10.2409 25.9334 10.1753 25.7658 10.156 25.7489C10.1729 25.7537 10.2942 25.7489 10.2942 25.7489C10.2942 25.7489 10.1972 25.5935 10.1801 25.5207C10.163 25.4479 10.1267 25.2561 10.1073 25.2198C10.1486 25.2246 10.2505 25.2318 10.2505 25.2198C10.2555 25.1833 10.1608 25.1226 10.2025 25.0758C10.2316 25.0806 10.2875 25.1049 10.3408 25.1729C10.3116 25.0951 10.2632 24.9447 10.1611 24.8841C10.2091 24.8671 10.3723 24.8233 10.5155 24.9082C10.6587 24.9932 10.7075 25.1121 10.7075 25.1121C10.7075 25.1121 10.7924 25.1777 10.9236 25.2748C11.074 25.3937 11.2657 25.5628 11.5716 25.6825C11.6372 25.719 11.8046 25.719 11.926 25.6946C11.9789 25.682 12.0296 25.6616 12.0764 25.634C12.0933 25.624 12.1113 25.6159 12.1299 25.6097C12.1038 25.5573 12.0738 25.507 12.0401 25.4591C12.0814 25.4591 12.1299 25.4641 12.1299 25.4641C12.1299 25.4641 12.159 25.3985 12.028 25.2721C12.0571 25.243 12.0936 25.2241 12.0936 25.175C12.0523 25.1702 11.9795 25.1095 11.9625 25.0852C11.9867 25.0682 12.0232 25.0124 12.0644 24.9954C12.028 24.9663 11.9382 24.8449 11.8969 24.8329C11.9364 24.8182 11.9745 24.8004 12.011 24.7794C12.011 24.7794 11.8072 24.726 11.7416 24.6823C11.676 24.6343 11.579 24.5513 11.5208 24.527C11.46 24.5026 11.3532 24.4906 11.3096 24.442C11.3507 24.4542 11.4163 24.442 11.4649 24.442C11.5012 24.442 11.5184 24.4468 11.5304 24.4468C11.5256 24.4298 11.5256 24.3934 11.6203 24.3814C11.6658 24.3745 11.71 24.3606 11.7513 24.3401C11.7513 24.3401 11.6614 24.3353 11.5593 24.2382C11.4572 24.141 11.3724 24.0634 11.3142 24.0513C11.2536 24.0391 11.1395 24.0926 11.0691 24.0876C10.972 24.0756 10.9307 24.027 10.9307 24.027C10.9307 24.027 10.608 24.0561 9.89196 23.6193C9.27292 23.2406 9.00348 22.9057 9.00348 22.9057C8.94554 22.8846 8.88955 22.8586 8.83612 22.8279C8.60316 22.7066 8.28028 22.4542 8.29004 22.1239L8.28876 22.1263Z" fill="#C2A44D"/>
<path fill-rule="evenodd" clip-rule="evenodd" d="M17.2184 7.55815C17.2745 7.57639 17.3244 7.61005 17.3624 7.65527C17.4764 7.78631 17.5492 8.03383 17.2896 8.29847C17.3915 8.33479 17.4336 8.34647 17.5225 8.33479C17.4328 8.44167 17.2289 8.66983 17.2168 8.86887C17.2046 9.03143 17.3065 9.08007 17.3065 9.08007C17.3065 9.08007 17.1512 9.25959 17.144 9.56007C17.2173 9.47734 17.2976 9.40101 17.384 9.33191C17.5636 9.18871 17.8112 9.02615 17.9787 8.92423C17.9764 8.96695 17.9822 9.00972 17.9956 9.05031C17.9956 9.05031 18.3086 8.79303 18.5716 8.90727C18.6905 8.96071 18.6371 9.12807 18.6371 9.12807C18.6371 9.12807 18.7998 9.06743 18.9139 9.18151C19.028 9.29559 19.1892 9.58983 19.272 9.70391C19.3083 9.75735 19.403 9.85927 19.5 10.017C19.6324 10.2379 19.743 10.4712 19.8302 10.7135C19.835 10.5873 19.8665 10.3908 20.2259 10.5145C20.5851 10.6407 20.9928 10.9054 21.335 11.4265C21.6772 11.9476 21.762 12.5359 21.9344 12.7599C22.1091 12.9759 22.2888 13.3351 22.3009 13.4857C22.3131 13.6362 22.2475 14.1215 22.6067 15.4346C22.7086 15.027 22.864 14.1215 22.864 14.1215L22.9489 13.323L23.046 10.8521L20.4659 8.70855L18.4489 7.24487L17.1358 7.37111L17.2182 7.55799L17.2184 7.55815Z" fill="#CAA13E"/>
<path fill-rule="evenodd" clip-rule="evenodd" d="M22.0121 11.2352C22.0121 11.2352 21.9756 10.9952 21.3689 10.5872C20.762 10.1843 20.2888 10.1843 19.852 9.8421C19.5169 9.57266 19.1675 8.95362 18.94 8.74978C18.719 8.54834 18.6827 7.96578 18.6827 7.96578L19.4278 7.34178L20.536 5.74002L21.4728 4.7085L21.9217 5.3325L22.5457 6.06546L22.8928 7.53634L23.019 9.6893L22.011 11.2354L22.0121 11.2352Z" fill="#B59544"/>
<path fill-rule="evenodd" clip-rule="evenodd" d="M22.7622 13.8161C22.7806 13.4896 22.7403 13.1624 22.6432 12.8501C22.4832 12.3525 22.1336 11.469 21.9712 11.1381C21.9056 10.7716 21.9542 10.7425 22.0246 10.7012C22.095 10.6599 22.3597 10.5092 22.5046 9.98039C22.6496 9.45159 23.0994 9.43431 23.0994 9.43431L23.376 9.23047L23.796 10.2813L24.1624 11.2305L24.2765 11.9562L24.3614 12.5751L24.1624 13.8834L23.1795 14.7717L22.7621 13.8161H22.7622Z" fill="#C89D3A"/>
<path fill-rule="evenodd" clip-rule="evenodd" d="M9.0462 28.3982V28.3713C9.06663 28.3585 9.08466 28.3423 9.09948 28.3233C9.11644 28.299 9.12876 28.2699 9.14076 28.2627C9.16508 28.2505 9.27916 28.2147 9.3398 28.2262C9.40044 28.2377 9.56076 28.3038 9.64572 28.299C9.82044 28.2942 10.0243 28.1606 10.3472 28.2214C10.8326 28.3112 10.9467 28.6412 11.2283 28.8281C11.4203 28.9593 11.619 28.9009 11.6481 28.9009H11.7136C11.7257 28.9009 11.8155 28.799 11.8641 28.804C11.9612 28.8088 11.9708 28.8889 12.0315 28.8937C12.1747 28.9107 12.4515 28.8209 12.5899 28.8574C12.6309 28.8703 12.6682 28.8928 12.6987 28.9232C12.7291 28.9536 12.7517 28.9909 12.7646 29.032C12.7937 29.1217 12.7694 29.2358 12.699 29.3014C12.5486 29.4396 12.4054 29.5708 12.3763 29.6854C12.4133 29.7136 12.4489 29.7438 12.4828 29.7756C11.2819 29.4697 10.1265 29.007 9.0462 28.3996V28.3982Z" fill="#CEB052"/>
<path fill-rule="evenodd" clip-rule="evenodd" d="M21.9709 23.5487C21.9709 23.5487 22.3494 23.0439 22.4806 22.7938C22.6117 22.5361 22.0656 19.2721 22.0656 19.2721L23.1627 15.6775L23.1334 14.5076C23.1334 14.5076 23.1869 13.4274 23.3131 12.9589C23.4637 13.2284 23.9322 13.5537 24.0341 13.726C24.0821 13.3957 24.2451 12.6993 24.221 11.9565C24.3107 12.0948 24.5267 13.4857 24.5267 13.4857L24.7427 14.4225L25.0243 15.4177L25.3374 16.4687L25.5243 17.1945L25.631 17.3692L25.721 17.6749L25.8059 18.0052L26.051 18.7794L26.195 19.4153L26.3091 20.5682C26.3339 20.6565 26.3518 20.7466 26.3626 20.8377C26.3674 20.9639 26.3456 21.0367 26.3456 21.0586C26.3456 21.0805 26.3869 21.3353 26.3699 21.5271C26.3456 21.7191 26.3456 21.8693 26.195 22.0071C26.0445 22.1449 25.9499 22.9682 25.9499 22.9682L25.6805 22.7887C25.6805 22.7887 25.7339 22.5434 25.6077 22.3202C25.4814 22.097 25.2363 22.0508 25.0979 22.0873C24.9597 22.1164 24.683 22.1599 24.5931 22.2377C24.5082 22.3153 24.2995 22.5556 24.1077 22.6649C23.8677 22.8089 23.4766 22.8202 23.268 22.8687C23.0568 22.9167 22.8238 23.0607 22.5786 23.2279C22.3863 23.3524 22.1832 23.4595 21.9718 23.5479L21.9709 23.5487Z" fill="#CCA847"/>
<path fill-rule="evenodd" clip-rule="evenodd" d="M21.9709 28.8521C21.9709 28.8521 21.9869 28.8625 22.0178 28.8794C23.7422 28.0715 25.2872 26.9263 26.5618 25.5114C26.5478 25.0202 26.5298 24.5167 26.5099 24.3302C26.4688 23.9345 26.4979 23.5316 26.4858 23.2986C26.4736 23.0657 26.3426 22.1166 26.2819 21.8714C26.2163 21.6263 26.0899 21.5049 26.0707 21.5049C26.0538 21.5098 25.9517 21.9662 25.9517 22.0809C25.9517 22.1956 25.9274 22.4718 25.9274 22.5422C25.9104 22.5372 25.9032 22.4942 25.9032 22.4766C25.8789 22.5372 25.8498 22.6441 25.8376 22.6562C25.8254 22.6684 25.8546 22.5543 25.8376 22.53C25.8206 22.5057 25.7896 22.5178 25.7963 22.4572C25.7992 22.4212 25.8049 22.3856 25.8133 22.3505C25.8133 22.3505 25.7405 22.4572 25.6872 22.729C25.6338 22.9985 25.6338 23.0058 25.6144 23.03C25.5974 23.0593 25.5003 23.1562 25.4954 23.1927C25.4906 23.2582 25.5853 23.3238 25.5925 23.3601C25.5973 23.4209 25.5075 23.7023 25.4784 23.8401C25.4493 23.9778 25.4614 24.2478 25.4304 24.3862C25.4061 24.5124 25.3824 24.5852 25.2994 24.6385C25.36 24.6506 25.4182 24.6676 25.4182 24.6676C25.4182 24.6676 25.5032 25.0268 25.2872 25.3327C25.2096 25.4394 25.1902 25.4881 25.1077 25.5852C24.945 25.7647 24.8187 25.9692 24.8066 26.1022C24.7982 26.0629 24.7925 26.0231 24.7896 25.9831C24.7896 25.9831 24.5373 26.2769 24.4304 26.4444C24.2922 26.6604 24.1003 26.6482 24.0464 26.7017C23.9925 26.7551 23.9808 26.8521 23.9984 26.9298C23.9504 26.9418 23.8602 26.959 23.7994 27.1458C23.7702 27.2428 23.6974 27.3378 23.5834 27.4031C23.4693 27.4684 23.3309 27.4881 23.2605 27.505C23.3211 27.522 23.3454 27.522 23.3746 27.5414C23.3382 27.602 23.1707 27.6967 22.9838 27.8182C22.797 27.9322 22.707 28.0996 22.661 28.2089C22.613 28.3108 22.5421 28.3764 22.428 28.3886C22.476 28.4177 22.547 28.4855 22.5834 28.5074C22.5299 28.5196 22.4394 28.5196 22.2776 28.658C22.1077 28.7988 22.0494 28.8401 21.9717 28.8522L21.9709 28.8521Z" fill="#C39D3C"/>
<path fill-rule="evenodd" clip-rule="evenodd" d="M18.5936 29.9769C18.6865 29.9117 18.7872 29.8584 18.8933 29.818C19.2718 29.6676 19.6723 29.6385 19.8301 29.59C19.9806 29.542 20.0995 29.4758 20.2864 29.4395C20.2814 29.482 20.2773 29.522 20.2728 29.5598C19.7218 29.733 19.1608 29.8723 18.5928 29.9769H18.5936Z" fill="#D2BA6B"/>
<path fill-rule="evenodd" clip-rule="evenodd" d="M25.576 20.0195C25.576 20.0195 25.4984 20.4393 25.36 20.704C25.2216 20.9686 25.072 21.335 25.072 21.335C25.0729 21.2525 25.0826 21.1702 25.1011 21.0897C24.9263 21.1917 24.5015 21.4369 24.3811 21.5461C24.267 21.648 24.0752 21.8277 24.0267 21.9126C24.1408 21.5778 24.2596 21.2768 24.2791 21.1384C24.1044 21.2646 23.2888 21.9369 22.8641 22.3811L21.5412 23.4515C21.3886 23.5339 21.2314 23.6075 21.0704 23.672C20.8424 23.7689 20.5729 23.8515 20.3739 23.9293C20.4273 23.7861 20.5121 23.6597 20.6311 23.5384C20.7574 23.4195 21.136 23.0093 21.1942 22.8184C21.2476 22.6194 21.2598 22.5005 21.1894 22.333C21.1238 22.3499 20.9734 22.3573 20.8715 22.3864C20.7695 22.4155 20.6603 22.5246 20.6603 22.5246C20.6603 22.5246 20.7379 22.0805 20.9054 21.6606C20.7791 21.6654 20.5631 21.7017 20.5631 21.7017C20.5631 21.7017 20.8641 21.1969 21.3791 20.8451C21.2214 20.8787 21.0671 20.9266 20.918 20.9881C20.6171 21.1144 20.287 21.3013 20.0419 21.4032C20.1801 21.2112 21.151 19.8256 21.7288 18.5342C22.3048 17.2454 22.52 16.9153 22.6462 16.2237C22.7116 15.8814 22.6942 15.3757 22.7116 14.9227C22.7286 14.4736 22.7844 14.0707 22.7481 13.8013C22.8985 13.9881 23.4617 14.5149 23.4811 15.6921C23.498 16.8693 22.9424 18.4592 22.3524 19.3158C22.4964 19.3571 22.8696 19.4057 23.2529 18.7398C23.6363 18.0739 23.6316 17.888 23.77 17.6112C23.787 17.7496 23.782 17.7981 23.782 17.7981C23.782 17.7981 24.3404 17.1209 24.6049 16.2689C24.6584 16.6355 24.8161 16.9584 24.5684 17.6307C24.3476 18.2374 24.0588 18.3856 24.0588 18.3856C24.0588 18.3856 24.202 18.3613 24.4131 18.235C24.4495 18.3248 24.4423 18.427 24.503 18.4632C24.5636 18.4993 24.6462 18.5603 24.6584 18.6186C24.7238 18.5214 24.8257 18.3976 24.8574 18.3054C24.8331 18.4974 24.8161 19.3369 24.9054 19.7641C25.0924 19.7472 25.2841 19.735 25.4151 19.3976C25.3254 19.7278 25.3254 19.9267 25.386 20.2083C25.4856 20.1405 25.5753 20.019 25.5753 20.019L25.576 20.0195Z" fill="#C0993A"/>
<path fill-rule="evenodd" clip-rule="evenodd" d="M19.2694 6.64069C19.2694 6.64069 19.0825 6.71829 18.7646 6.71829C18.488 6.71829 18.5656 6.61157 18.1336 6.61157C17.4686 6.61157 15.1457 6.99557 14.7379 6.99013C14.4732 6.98533 15.631 7.10421 15.631 7.10421L18.5899 7.14549L19.1844 7.09749L19.4054 6.64789L19.2694 6.64069Z" fill="#A88F33"/>
<path fill-rule="evenodd" clip-rule="evenodd" d="M11.5971 12.4248C11.5971 12.4248 11.2184 12.7136 11.0582 12.9345C10.8981 13.1555 10.8131 13.3009 10.631 13.4806C10.6738 13.4823 10.7165 13.4765 10.7573 13.4637C10.7573 13.4637 10.7573 13.5117 10.7282 13.5243C10.7533 13.5215 10.7788 13.5243 10.8027 13.5326C10.8266 13.5409 10.8484 13.5545 10.8664 13.5723C10.813 13.6014 10.6674 13.7472 10.7814 13.9195C10.8664 14.0505 11.0461 14.0625 11.0461 14.0625C11.0461 14.0625 11.0048 14.1816 11.1771 14.1694C11.5485 14.1525 11.9635 13.9897 12.1552 14.031C12.3472 14.079 12.4563 14.0966 12.5922 14.3321C12.7362 14.5651 12.8616 14.6016 12.8616 14.6016C12.8616 14.6016 12.9466 14.3854 12.9272 14.0627C12.9969 13.8887 13.0355 13.7039 13.0413 13.5166L12.915 12.587L12.3642 11.8904L11.6506 12.2861L11.5971 12.4243V12.4248Z" fill="#E3C571"/>
<path fill-rule="evenodd" clip-rule="evenodd" d="M12.2742 12.2865C12.2742 12.2865 12.3277 12.4127 12.551 12.4247C12.5267 12.4782 12.5267 12.4855 12.5341 12.5266C12.5389 12.5679 12.5461 12.6286 12.5461 12.6286C12.5707 12.6167 12.5929 12.6004 12.6117 12.5806C12.6238 12.634 12.5995 12.7188 12.6117 12.7796C12.6192 12.8166 12.6314 12.8525 12.648 12.8863C12.6515 12.878 12.6556 12.87 12.6602 12.8622C12.665 12.85 12.7082 12.9932 12.8277 13.1022C12.8276 13.0854 12.8317 13.0689 12.8397 13.0542C12.8415 13.0846 12.8516 13.114 12.8688 13.1391C12.8598 13.1349 12.8517 13.1291 12.8446 13.1222C12.8446 13.1222 12.8566 13.5062 12.9222 13.7047C12.9332 13.6919 12.9429 13.6781 12.9514 13.6634C12.9514 13.6514 12.9466 13.7703 12.9344 13.8554C12.9174 13.9404 12.9296 14.0593 12.9296 14.0593C12.9734 14.0248 13.0214 13.9963 13.0726 13.9743C13.1454 13.945 13.2646 13.8553 13.3373 13.6562C13.3794 13.5435 13.4119 13.4274 13.4344 13.3092C13.4579 13.3544 13.4741 13.403 13.4824 13.4532C13.4874 13.5138 13.6014 13.4823 13.6014 13.4823L13.6258 13.2177L13.7698 12.6182L13.9008 12.2468L14.5318 11.2639L15.672 10.3858L16.6672 10.614L17.5069 9.47321L16.0603 8.60425L14.6914 8.74745L13.449 10.4682L12.4539 12.029L12.2742 12.2863V12.2865Z" fill="#D8B65B"/>
<path fill-rule="evenodd" clip-rule="evenodd" d="M19.4441 9.79611C19.4441 9.79611 19.3592 9.81307 19.1141 9.94011C18.8689 10.0671 18.699 10.1075 18.6043 10.2944C18.5096 10.4812 18.5024 10.6294 18.5024 10.6294C18.5024 10.6294 18.6699 10.5566 18.767 10.5323C18.8689 10.5081 18.983 10.5153 18.9709 10.5566C18.9592 10.5849 18.943 10.6111 18.9229 10.6342C18.9229 10.6342 19.1149 10.6294 19.1097 10.7241C19.1046 10.8188 19.0734 10.9232 19.0371 10.9692C19.0006 11.0172 18.8502 11.0883 18.8333 11.1441C18.792 11.2582 18.8502 11.263 18.8283 11.3552C18.8113 11.4451 18.7313 11.6198 18.4691 11.9255C18.1997 12.2315 18.0851 12.4475 18.0851 12.4475C18.0851 12.4475 17.9541 12.2024 17.8861 11.9912C17.8381 12.0153 17.5803 12.1585 17.5803 12.1585L16.9832 10.0785L16.9952 9.94011C16.9952 9.94011 17.0486 9.87467 17.0608 9.75323C16.971 9.72411 16.9589 9.69979 16.8398 9.58587C16.7208 9.47195 16.6238 9.33339 16.4249 9.23867C16.3958 9.18523 16.3593 9.11259 16.2137 9.08331C16.0681 9.05403 15.9808 9.03003 15.9808 9.03003C15.9808 9.03003 16.0584 9.00075 16.0949 8.94011C16.0049 8.95227 15.9323 8.98139 15.7357 8.97659C15.5366 8.97163 15.5147 8.96443 15.4056 8.98139C15.2965 8.99835 15.1656 9.04699 15.1168 8.87947C15.0633 8.83819 14.9493 8.87467 14.8521 9.01771C14.755 9.16075 14.7211 9.27499 14.5342 9.33083C14.5211 9.41321 14.4922 9.49229 14.4493 9.56379C14.3958 9.65371 14.3109 9.74347 14.1968 9.87691C14.0171 10.0881 14.0462 10.4351 13.7598 10.6998C13.471 10.9643 13.8078 9.96667 13.8078 9.96667L14.2689 8.86267L15.5821 7.57867L17.6209 7.44043L17.82 8.49643L18.8152 8.83867L19.4438 9.79739L19.4441 9.79611Z" fill="#D3AE4D"/>
<path fill-rule="evenodd" clip-rule="evenodd" d="M19.767 10.0291L18.9102 8.79378L18.3107 8.3325C18.3107 8.3325 17.8835 7.54626 17.8544 7.52194C17.8301 7.50498 17.4272 7.4613 17.1699 7.44434L17.2179 7.56322C17.274 7.58146 17.3239 7.61511 17.3619 7.66034C17.476 7.79138 17.5488 8.0389 17.2891 8.30354C17.391 8.33986 17.4331 8.35154 17.5221 8.33986C17.4323 8.44674 17.2285 8.6749 17.2163 8.87394C17.2041 9.0365 17.3061 9.08498 17.3061 9.08498C17.3061 9.08498 17.1507 9.26466 17.1435 9.56498C17.2169 9.48224 17.2972 9.40591 17.3835 9.33682C17.5632 9.19282 17.8107 9.0309 17.9782 8.92898C17.9759 8.97175 17.9817 9.01457 17.9952 9.05522C17.9952 9.05522 18.3081 8.79794 18.5712 8.91202C18.6901 8.96546 18.6366 9.13298 18.6366 9.13298C18.6366 9.13298 18.7993 9.07234 18.9134 9.18642C19.0275 9.3005 19.1901 9.5941 19.2726 9.70834C19.3089 9.76178 19.4037 9.8637 19.5006 10.0213C19.6331 10.2422 19.7437 10.4755 19.8309 10.7179C19.8357 10.6208 19.8552 10.485 20.0229 10.485L19.768 10.0287L19.767 10.0291Z" fill="#CAA13E"/>
<path fill-rule="evenodd" clip-rule="evenodd" d="M6.9224 13.5388C6.9224 13.5388 6.86176 13.3882 6.9224 13.0946C6.98304 12.801 7.07776 12.6626 7.10928 12.2306C7.1408 11.7986 7.4224 11.2598 7.4224 11.2598L8.20144 10.9055L8.75248 11.0559L8.91504 11.7938L8.2184 12.1778C8.2184 12.1778 8.18208 12.3404 7.98544 12.4714C7.7888 12.6025 7.51696 12.7044 7.45152 12.838C7.4124 12.9198 7.38385 13.0063 7.36656 13.0953C7.36656 13.0953 7.16752 13.054 7.04864 13.185C6.9224 13.3186 6.9272 13.4375 6.9224 13.5394V13.5388Z" fill="#F4EFC8"/>
<path fill-rule="evenodd" clip-rule="evenodd" d="M8.49521 13.3423C8.49521 13.3423 8.42961 13.3836 8.38113 13.4863C8.33313 13.4087 8.21841 12.9474 8.21361 12.5324C8.20881 12.1174 8.18401 12.0145 8.28001 11.8714C8.37601 11.7284 8.75249 11.5777 8.69905 11.3201C8.64561 11.075 8.42225 10.973 8.14801 11.0434C7.95601 11.0914 7.81313 11.4998 7.61409 11.7036C7.46353 11.859 7.28401 11.8346 7.23553 11.9196C7.16993 12.0337 7.23057 12.1478 7.21121 12.2206C7.20625 12.2449 7.14561 12.3759 7.03633 12.5337C6.81553 12.8516 6.44177 13.3007 6.39313 13.7036C6.41009 13.4754 6.39809 13.4706 6.45873 13.2182L6.42225 13.1575L6.66225 12.3711L6.81761 11.7231L7.16481 10.638L7.77633 9.52889L8.37105 8.86377L8.98993 8.90505L9.06273 9.83465L9.41713 11.5799L10.1622 12.4974L8.96801 13.301L8.49473 13.3423H8.49521Z" fill="#EBCC73"/>
<path fill-rule="evenodd" clip-rule="evenodd" d="M8.86654 13.6719C8.86654 13.6719 8.76462 13.6962 8.72814 13.6769C8.69166 13.6575 8.6555 13.6356 8.6675 13.6113C8.6795 13.587 8.7451 13.5458 8.7451 13.5263C8.74645 13.5087 8.74087 13.4912 8.72955 13.4776C8.71823 13.464 8.70205 13.4554 8.68446 13.4535C8.62862 13.4463 8.61166 13.4826 8.61166 13.4826C8.61166 13.4826 8.55822 13.4415 8.5147 13.4346C8.54045 13.4315 8.56636 13.4298 8.5923 13.4297C8.52523 13.3993 8.45408 13.3789 8.3811 13.369C8.44174 13.3327 8.56078 13.2258 8.63838 13.2258C8.71598 13.2258 8.76462 13.2138 8.75246 13.1726C8.7403 13.1313 8.67966 13.0706 8.61422 13.0463C8.63838 13.0172 8.6555 12.9735 8.59726 12.8543C8.53646 12.7354 8.56078 12.6553 8.5803 12.6263C8.59726 12.5898 8.6579 12.5244 8.68702 12.4831C8.71614 12.4418 8.74046 12.386 8.78894 12.3569C8.81326 12.3399 8.89086 12.3089 8.96862 12.2793C9.05358 12.2502 9.12398 12.2137 9.17246 12.2502C9.2259 12.2865 9.20158 12.3351 9.20158 12.3351C9.20158 12.3351 9.3691 12.2743 9.5195 12.3521C9.67006 12.4247 10.0366 12.471 10.0366 12.471L10.168 12.7356L9.29902 13.4807L8.93982 13.6604L8.86702 13.6724L8.86654 13.6719Z" fill="#E5C66B"/>
<path fill-rule="evenodd" clip-rule="evenodd" d="M10.0728 12.454C10.0728 12.454 9.80332 12.6337 9.74268 12.6991C9.779 12.7041 9.83964 12.7284 9.81532 12.7647C9.7862 12.801 9.61148 12.9273 9.51436 13.0463C9.41244 13.1652 9.31532 13.3158 9.2814 13.3886C9.24508 13.454 8.96828 13.6458 8.87372 13.67C9.07276 13.67 9.47324 13.4249 9.62364 13.4249C9.61884 13.4977 9.66492 13.5803 9.74988 13.5875C9.83484 13.5947 10.08 13.6409 10.41 13.437C10.7401 13.238 10.631 13.0898 10.7692 12.9929C11.0339 12.818 11.1406 12.6626 11.2862 12.5657C11.4318 12.4687 11.5072 12.4466 11.5072 12.4466C11.5072 12.4466 11.512 12.3739 11.5552 12.3812C11.567 12.3826 11.5782 12.3871 11.5876 12.3944C11.597 12.4017 11.6043 12.4114 11.6086 12.4225C11.6086 12.4225 11.8611 12.2428 12.1846 12.1943C12.1771 12.191 12.171 12.1849 12.1676 12.1774C12.1676 12.1774 12.1918 12.1652 12.1968 12.153C12.1968 12.153 12.2137 12.1287 12.2259 12.1409C12.238 12.153 12.255 12.2428 12.2793 12.2793C12.3328 12.255 12.4347 12.0268 12.4347 12.0268L12.68 11.3254V10.6846L12.488 10.721L11.048 11.3326L10.174 12.238L10.0721 12.454H10.0728Z" fill="#E6BD62"/>
<path fill-rule="evenodd" clip-rule="evenodd" d="M14.2184 9.31076C14.2963 9.29187 14.3709 9.26157 14.44 9.22084C14.4109 9.2986 14.4109 9.38356 14.2846 9.56804C14.1584 9.75252 14.1536 9.77924 14.0517 9.97092C13.9497 10.17 13.9376 10.4564 13.8405 10.5824C13.884 10.5613 13.9307 10.5474 13.9787 10.5413C13.9787 10.5413 13.8817 10.6263 13.8405 10.716C13.7992 10.8058 13.7264 10.9927 13.5469 11.1069C13.3673 11.2212 13.139 11.2938 12.8939 11.5632C12.6486 11.8277 12.3963 12.1628 12.2699 12.2832C12.3355 12.1692 12.4253 11.941 12.4496 11.7906C12.4739 11.6402 12.4446 11.4604 12.4859 11.2615C12.5272 11.0626 12.5272 10.9192 12.7259 10.572C12.9246 10.2248 13.2648 9.0186 13.2648 9.0186L13.9977 8.78564L14.2187 9.30996L14.2184 9.31076Z" fill="#B6933F"/>
<path fill-rule="evenodd" clip-rule="evenodd" d="M13.6892 8.86651C13.6892 8.86651 13.4684 9.18443 13.4078 9.46603C13.3472 9.74763 13.4028 9.72331 13.3665 9.86171C13.3448 9.94609 13.3448 10.0346 13.3665 10.119C13.443 9.99579 13.5477 9.89257 13.672 9.81787C13.8808 9.69179 14.0507 9.60187 14.152 9.49515C14.2539 9.38107 14.3388 9.19419 14.5596 9.05099C14.4699 9.03883 14.3436 8.99755 14.3196 9.00299C14.4096 8.90107 14.6788 8.74571 14.9507 8.55883C15.2201 8.36683 15.2032 8.28939 15.6401 8.09771C15.4969 8.12203 15.4289 8.08555 15.3099 8.09771C15.3579 7.99579 15.5259 7.94715 15.6939 7.77979C15.8619 7.61243 15.5872 7.36475 15.5872 7.36475L14.3072 8.13899L13.6883 8.86715L13.6892 8.86651Z" fill="#C49937"/>
<path fill-rule="evenodd" clip-rule="evenodd" d="M10.216 8.28869L10.2451 8.05573L10.6117 7.46837L10.9952 6.43685V5.02661L10.9661 4.21109L11.0267 3.67701L11.0728 3.50725L11.1214 3.44165L11.4344 3.60421L11.8666 4.19157L11.9078 5.32517L11.4878 7.11397L10.2888 8.42229L10.216 8.28869Z" fill="#DFC068"/>
<path fill-rule="evenodd" clip-rule="evenodd" d="M11.1699 3.37613C11.1699 3.37613 10.9779 3.38109 10.9369 4.17965C10.896 4.97821 10.8761 5.39805 10.847 5.79373C10.8179 6.18941 10.7501 6.42957 10.716 6.66269C10.6819 6.89581 10.6625 7.21357 10.5534 7.40781C10.5054 7.49757 10.4029 7.77917 10.1625 7.99037C9.8931 8.22333 9.49054 8.38605 9.42958 8.39821C9.3227 8.42237 8.78142 8.47581 8.56062 8.59725C8.48302 8.63853 8.34942 8.68701 8.20142 8.82541C7.90766 9.08989 7.51694 9.56317 7.23534 10.1336C6.80334 10.9856 6.37134 13.3909 6.37134 13.3909L6.46846 13.2283C6.46846 13.2283 6.48062 13.0123 6.69662 12.6336C6.90782 12.255 6.84718 11.8302 7.14078 11.1045C7.25486 10.8278 7.39806 10.4686 7.57278 10.1627C7.84958 9.66509 8.18446 9.23789 8.5219 9.00493C9.07278 8.62637 9.67966 8.54381 9.67966 8.54381L10.3326 8.11181C10.3326 8.11181 10.4467 7.89101 10.5973 7.63853C10.8083 7.28429 11.0773 6.88861 11.136 6.31341C11.2259 5.46141 11.0097 4.90317 11.0219 4.39837C11.0341 3.89357 11.0389 3.52221 11.1409 3.43229C11.243 3.34237 11.1701 3.37645 11.1701 3.37645L11.1699 3.37613Z" fill="#A88F33"/>
<path fill-rule="evenodd" clip-rule="evenodd" d="M11.1699 7.18682C11.1699 7.18682 11.4579 6.47802 11.5897 5.84938C11.614 5.72314 11.6625 5.59706 11.6747 5.49514C11.7353 4.90042 11.7523 4.6553 11.6747 4.33002C11.614 4.09002 11.3811 3.8737 11.2596 3.70602C11.1408 3.53114 11.0849 3.46602 11.1092 3.42922C11.1336 3.39242 11.2281 3.33226 11.3203 3.33946C11.4182 3.34231 11.5146 3.36506 11.6035 3.40632C11.6924 3.44757 11.772 3.50648 11.8374 3.57946C12.0243 3.79546 12.1723 4.52858 12.1723 4.52858L12.328 5.49594L12.7236 6.71434L11.1702 7.18778L11.1699 7.18682Z" fill="#C99E3D"/>
<path fill-rule="evenodd" clip-rule="evenodd" d="M13.8761 6.44913C13.8761 6.44913 13.8227 6.47329 13.7257 6.44913C13.7299 6.48876 13.723 6.52875 13.7058 6.56472C13.6887 6.60069 13.662 6.63122 13.6286 6.65297C13.5267 6.61169 12.5726 6.69426 12.5726 6.69426C12.5726 6.69426 12.1284 6.61649 11.99 6.02913C11.8931 5.63825 12.0628 5.09953 12.007 4.74513C11.922 4.22321 11.8032 4.12113 11.791 3.95873C11.7788 3.79633 11.7667 3.75489 11.7667 3.65297C11.7132 3.64081 11.6817 3.62385 11.6284 3.62385C11.6163 3.57585 11.6404 3.53393 11.5872 3.44897C11.6163 3.46113 11.8153 3.48545 12.0483 3.70625C12.2403 3.88593 12.2403 3.95137 12.2692 3.98785C12.3056 4.02417 12.5993 4.27585 12.7256 4.52673C12.8518 4.77761 13.0969 5.57761 13.1528 5.70865C13.1697 5.76209 13.2062 5.81553 13.2968 5.93681C13.4376 6.11169 13.6438 6.40081 13.8768 6.44881L13.8761 6.44913Z" fill="#B58634"/>
<path fill-rule="evenodd" clip-rule="evenodd" d="M12.3035 4C12.4505 4.23752 12.5826 4.48397 12.699 4.73792C12.8422 5.06064 12.9271 5.32528 13.1068 5.54128C13.0097 5.25984 12.8374 4.7064 12.7355 4.50976C12.6214 4.30176 12.3884 4.07776 12.3035 4.00016V4Z" fill="#A88F33"/>
<path fill-rule="evenodd" clip-rule="evenodd" d="M10.6529 7.99039C10.6529 7.99039 10.4078 8.05103 9.95148 8.29135C9.80092 8.36895 9.65788 8.43439 9.51948 8.49519C9.15996 8.65775 8.77436 8.80799 8.46844 8.89087C8.49276 8.91999 8.50476 8.93199 8.50476 8.93199C8.50476 8.93199 8.50476 9.05103 8.57036 9.11887C8.53404 9.15535 8.04844 9.48543 8.1918 10.5898C8.28876 10.5534 8.40284 10.5048 8.4198 10.5048C8.44908 10.5098 8.45628 10.5898 8.4926 10.5898C8.52892 10.5898 8.64796 10.5418 8.7742 10.3786C8.7694 10.4442 8.6966 11.1043 9.08732 11.5485C9.16012 11.4635 9.3446 11.1819 9.3446 11.1819L9.3494 11.0922C9.3494 11.0922 9.36636 10.779 9.46844 10.4926C9.57052 10.2062 9.7694 9.99503 9.7694 9.99503L10.808 8.51199L10.6526 7.99023L10.6529 7.99039Z" fill="#E6C367"/>
<path fill-rule="evenodd" clip-rule="evenodd" d="M9.68205 10.1679C9.6345 10.2015 9.58212 10.2277 9.52669 10.2455C9.50973 10.1849 9.48541 9.97609 9.62861 9.77225C9.79613 9.52697 10.1625 9.20905 10.2645 8.95625C10.3301 8.79353 10.3009 8.38585 10.8835 7.86393C11.4661 7.34201 11.6941 7.16249 11.6941 7.16249L12.6358 6.68921L13.7936 7.14553L13.2184 9.39993L12.7718 10.4559L10.9958 10.121L9.68189 10.1679H9.68205Z" fill="#DCBA5A"/>
<path fill-rule="evenodd" clip-rule="evenodd" d="M10.36 9.55579L10.5809 9.27915V9.08251C10.5809 9.08251 10.8261 9.01691 11.0905 8.74747C11.355 8.47803 11.7216 7.96107 12.0445 7.99259C12.3673 8.02907 12.3989 8.69403 12.411 8.88107C12.4232 9.06811 12.4645 9.49259 12.5299 9.72091C12.6027 9.94907 11.7435 10.8131 11.7435 10.8131L11.16 11.2572L10.36 9.55579Z" fill="#E9CE77"/>
<path fill-rule="evenodd" clip-rule="evenodd" d="M11.0436 11.8591C11.0436 11.8591 11.2233 11.5775 11.0916 11.5169C11.1692 11.3422 11.3124 11.1577 11.3124 11.1577C11.3124 11.1577 11.4144 10.9054 11.7444 10.5947C12.0745 10.2839 12.2785 10.0775 12.332 9.8689C12.3649 9.73292 12.3828 9.59374 12.3854 9.45386C12.4211 9.48301 12.4593 9.50898 12.4995 9.53146C12.5529 9.55578 12.8052 9.76442 12.7689 10.1844C12.7326 10.6044 12.5769 10.7791 12.5769 10.7791C12.5769 10.7791 12.4265 10.9295 12.3198 11.0073C12.2056 11.0849 12.1644 11.1747 11.9726 11.182C11.9923 11.1663 12.0145 11.154 12.0382 11.1455C12.0382 11.1455 11.8392 11.1214 11.7323 11.2183C11.6254 11.3153 11.3982 11.614 11.2841 11.7039C11.17 11.7767 11.0441 11.8593 11.0441 11.8593L11.0436 11.8591Z" fill="#CDAE50"/>
<path fill-rule="evenodd" clip-rule="evenodd" d="M19.1141 7.13824C18.8273 7.03373 18.526 6.97477 18.221 6.96352C17.7112 6.94656 16.9661 6.97568 16.2355 6.98048C15.4491 6.98528 14.7355 6.71104 13.7453 6.66256C13.5827 6.56544 13.1693 6.14064 11.8787 7.04112C11.9563 7.03632 12.8157 6.84208 13.1141 7.216C13.415 7.58736 13.3301 8.2184 13.289 8.3688C13.2112 8.70384 12.9587 9.19168 12.857 9.53392C12.7552 9.87616 12.7792 10.056 12.7064 10.296C12.6336 10.536 12.4734 10.6552 12.568 10.9318C12.6942 10.8542 12.76 10.8542 12.9709 10.381C13.1818 9.90768 13.1384 9.57024 13.488 9.16976C13.8302 8.76688 14.4 8.21584 14.6166 8.07744C14.8333 7.93904 16.5534 7.04592 18.3546 7.89792C18.789 7.85184 19.1142 7.13808 19.1142 7.13808L19.1141 7.13824Z" fill="#D2A83E"/>
<path fill-rule="evenodd" clip-rule="evenodd" d="M12.6043 6.80803C12.6025 6.78979 12.5985 6.77184 12.5923 6.75459C12.5755 6.71909 12.5534 6.68635 12.5267 6.65747C12.5267 6.65747 12.0995 6.57987 11.8835 6.60403C11.5048 6.64531 11.1626 7.11379 11.0024 7.35411C10.8422 7.59443 10.6432 7.96563 10.4272 8.15747C10.4296 8.13878 10.4253 8.11985 10.415 8.10403C10.415 8.10403 10.4272 8.12099 10.403 8.14531C10.3789 8.16963 10.3787 8.18163 10.3909 8.19331L10.4274 8.22963C10.4394 8.22963 10.7744 8.07907 11.2307 7.65363C11.7162 7.20947 12.0875 6.98163 12.2818 6.90355C12.3853 6.85953 12.4936 6.82748 12.6045 6.80803H12.6043Z" fill="#C29637"/>
<path fill-rule="evenodd" clip-rule="evenodd" d="M20.8909 4.98291C20.8909 4.98291 20.8131 5.07987 20.716 5.18675C20.5 5.41491 20.2184 5.67203 19.9781 5.93667C19.7501 6.18915 19.4928 6.38579 19.2038 6.71587C18.9149 7.04595 18.5798 7.41235 18.495 7.51923C18.4174 7.62611 18.3568 7.80083 18.3568 7.89059C18.3155 7.86147 18.267 7.82995 18.267 7.82995C18.2874 7.86806 18.3118 7.90388 18.3398 7.93683C18.4005 8.02179 18.495 8.12883 18.5437 8.19411C18.6033 8.27721 18.6462 8.37119 18.6697 8.47075C18.6989 8.47555 18.8858 8.51203 19.1189 8.12851C19.352 7.74499 19.6576 7.32515 19.6576 7.32515L20.143 6.60419L20.449 5.99267L20.833 5.30819L20.8913 4.98291H20.8909Z" fill="#AC8132"/>
<path fill-rule="evenodd" clip-rule="evenodd" d="M21.3885 4.49268C21.3885 4.49268 21.0947 4.73268 20.9806 4.87668C20.8665 5.02068 20.5966 5.3986 20.5966 5.3986L20.6937 5.38644L21.1865 4.94964L21.3785 4.6074L21.3883 4.49332L21.3885 4.49268Z" fill="#A88F33"/>
<path fill-rule="evenodd" clip-rule="evenodd" d="M21.2985 23.7815C21.2985 23.7815 21.2937 23.5825 21.4054 23.4636C21.5195 23.3446 21.8083 23.1699 22.0899 22.5145C22.3715 21.8592 22.4028 21.7111 22.4028 21.7111C22.4028 21.7111 21.898 22.1431 21.5868 22.2451C21.6596 22.0945 21.7009 21.9878 21.7374 21.91C21.6961 21.8737 21.5214 21.8324 21.5044 21.8131C21.6014 21.7159 21.6548 21.478 21.8515 21.3203C22.104 21.1283 22.5651 20.7983 22.9235 20.5043C23.2819 20.2102 23.9865 19.5262 24.0764 19.3271C24.1299 19.4047 24.1419 19.4532 24.1419 19.4532C24.1419 19.4532 23.7876 19.9145 23.6032 20.2081C23.4404 20.4606 23.4526 20.6038 23.4526 20.6038L23.7876 20.4598C23.7876 20.4598 23.8846 20.819 23.4454 21.3652C23.6374 21.2924 23.7148 21.3361 23.824 21.2753C23.6443 21.3895 23.3968 21.5449 23.1638 21.9719C22.9356 22.3991 22.6249 22.8967 22.1008 23.2073C21.591 23.535 21.2972 23.7801 21.2972 23.7801L21.2985 23.7815Z" fill="#A67A2E"/>
<path fill-rule="evenodd" clip-rule="evenodd" d="M19.983 7.39095C19.983 7.39095 19.784 7.80583 19.7549 8.12871C19.7501 8.20647 19.7306 8.26711 19.7306 8.35687C19.7258 8.64567 19.7475 8.96855 19.6826 9.11895C19.6582 9.05831 19.6461 9.01703 19.6218 8.99287C19.5854 9.09479 19.5198 9.41271 19.4664 9.53159C19.4422 9.45399 19.3888 9.18455 19.3938 8.86663C19.3987 8.54871 19.4058 8.48791 19.4058 8.42247C19.3938 8.51943 19.3282 8.65063 19.3038 8.72823C19.2675 8.66279 19.2262 8.57783 19.1776 8.50743C19.1485 8.55543 19.1122 8.62631 19.0806 8.66279C19.0757 8.63367 19.0637 8.55591 19.0563 8.44679C19.0515 8.32055 19.0442 8.15799 19.0515 8.12391C19.0635 8.05847 19.1656 7.80119 19.3816 7.56567C19.6389 7.28407 19.9035 6.74295 19.9811 6.57543C20.0587 6.40791 20.3888 5.71143 20.3888 5.71143H20.6413L20.2747 6.54631C20.2747 6.54631 20.0539 7.00263 19.9398 7.17031C19.8258 7.33799 19.5854 7.81847 19.4786 8.00535C19.5562 7.90343 19.6218 7.84999 19.6995 7.75287C19.7747 7.68487 19.9834 7.39127 19.9834 7.39127L19.983 7.39095Z" fill="#8C6228"/>
<path fill-rule="evenodd" clip-rule="evenodd" d="M21.3932 4.46118C21.352 4.58811 21.2868 4.70597 21.2012 4.80838C21.0507 4.98806 20.7278 5.22822 20.5702 5.4199C20.4262 5.60678 20.1382 6.11654 20.2691 6.72086C20.3171 6.58982 20.4075 6.33014 20.6478 6.03638C20.8881 5.74262 21.1454 5.40534 21.2718 5.14326C21.3979 4.87862 21.4149 4.66998 21.4149 4.66998L21.4629 4.60934L21.4337 4.47094L21.3925 4.46118H21.3932Z" fill="#CBA94C"/>
<path fill-rule="evenodd" clip-rule="evenodd" d="M26.3083 20.5606C26.3083 20.5606 26.2112 20.2962 26.1821 20.0558C26.1529 19.8155 26.2301 19.7678 26.1408 19.4928C26.0873 19.3253 25.9904 19.3488 25.9661 19.3253C25.9417 19.3018 25.9248 19.0486 25.9296 18.9102C25.9344 18.7718 25.9248 18.5923 25.9005 18.5146C25.8641 18.4854 25.8398 18.4611 25.7864 18.2816C25.7257 18.1019 25.6966 18.0122 25.6675 17.9589C25.6384 17.9056 25.5533 17.857 25.5533 17.8035C25.5533 17.6966 25.6504 17.641 25.6504 17.6115C25.6456 17.5509 25.5728 17.5995 25.5533 17.5824C25.5291 17.5533 25.6141 17.3786 25.5825 17.3542C25.5704 17.3422 25.4854 17.4441 25.4635 17.415C25.4392 17.3857 25.4101 17.097 25.3664 16.9053C25.3253 16.7184 25.2814 16.5825 25.2766 16.5267C25.2718 16.4733 24.9416 15.5315 24.8616 15.3034C24.7971 15.1106 24.7429 14.9145 24.699 14.716C24.6747 14.6019 24.6577 14.3688 24.6456 14.3931C24.6334 14.4174 24.6408 14.5363 24.6213 14.5315C24.6043 14.5265 24.5437 14.1117 24.5243 14.0461C24.5073 13.9805 24.4053 13.7581 24.3803 13.5971C24.356 13.4344 24.3027 13.0096 24.2662 12.7208C24.2297 12.432 24.2128 12.3131 24.2128 12.2408C24.2188 12.0639 24.209 11.8868 24.1837 11.7117C24.1357 11.4057 24.0397 11.0344 23.9555 10.8185C23.7929 10.4107 23.3608 9.36703 23.2835 9.10735C23.2835 9.04175 23.3685 9.07823 23.3685 9.07823C23.3685 9.07823 23.5795 9.60735 23.7349 10.015C23.8854 10.4229 24.0286 10.7821 24.0651 10.8185C24.0942 10.8549 24.3224 11.2553 24.4243 11.9107C24.5262 12.5661 24.5625 13.1704 24.6233 13.5733C24.6525 13.7653 24.6768 13.9689 24.7374 14.1728C24.8029 14.3937 24.9048 14.6219 25.0384 14.9714C25.1525 15.2651 25.2374 15.5102 25.2835 15.7214C25.3369 15.9909 25.3369 16.1947 25.3685 16.3283C25.3977 16.4424 25.4413 16.6704 25.5433 17.0003C25.6454 17.3302 25.7957 17.7552 25.8976 18.0197C26.0968 18.5488 26.1856 18.9906 26.2157 19.2261C26.2422 19.4688 26.3321 20.3086 26.3078 20.561L26.3083 20.5606Z" fill="#A88F33"/>
<path fill-rule="evenodd" clip-rule="evenodd" d="M21.4054 4.43196L21.3933 4.46108C21.3933 4.46108 21.4296 4.47324 21.4224 4.52188C21.4229 4.58843 21.4188 4.65493 21.4102 4.72092C21.3982 4.80588 21.3739 4.87132 21.3691 4.92476C21.3691 5.03884 21.3861 5.16988 21.2251 5.49516C21.1771 5.58492 21.1475 5.66252 21.1232 5.71596C21.0625 5.847 21.0504 5.86652 20.9969 5.92716C21.0819 5.87916 21.3878 5.68716 21.543 5.71596C21.4363 5.7766 21.2736 5.89564 21.1717 6.051C21.196 6.0558 21.2979 6.07532 21.4597 6.051C21.7291 6.00972 22.0301 5.9126 22.2945 5.93196C22.5835 5.94892 22.4694 5.58492 22.4694 5.58492L22.136 4.85196L21.5049 4.40796L21.4054 4.43212V4.43196Z" fill="#BE9C44"/>
<path fill-rule="evenodd" clip-rule="evenodd" d="M23.051 9.9223C23.051 9.9223 22.7694 9.6407 22.6554 8.6743C22.5413 7.70342 22.5656 6.2743 22.5656 6.2743L22.3374 5.71606C22.3374 5.71606 22.2894 5.3447 22.1699 5.20646C22.0504 5.06822 21.8157 4.8351 21.7088 4.72102C21.6019 4.60694 21.4806 4.45158 21.4078 4.42726C21.4442 4.36662 21.6069 4.02438 22.2306 4.01958C22.8542 4.01478 23.0466 4.36182 23.1117 4.48806C23.1768 4.6143 23.4709 5.16006 23.58 6.20006C23.6819 7.23878 23.6869 7.31654 23.6699 7.67574C23.6578 7.87478 23.5922 8.3359 23.4779 8.82854C23.3736 9.24614 23.2595 9.71222 23.0507 9.92326L23.051 9.9223Z" fill="#A17C34"/>
<path fill-rule="evenodd" clip-rule="evenodd" d="M22.168 10.75C22.2618 10.7567 22.3556 10.7356 22.4374 10.6892C22.5272 10.6844 22.8524 10.7256 23.1024 10.4077C23.1193 10.4804 23.1632 10.6772 23.0489 10.8519C23.1097 10.7911 23.1995 10.7669 23.2116 10.75C23.2164 10.8397 23.3014 11.1164 22.9422 11.7887C23.0392 11.682 23.1532 11.6868 23.2552 11.6746C23.2601 11.8008 23.328 12.2255 23.1484 12.4538C23.0296 12.6092 22.8353 12.5605 22.8353 12.5605C22.8382 12.5266 22.8382 12.4925 22.8353 12.4586C22.8305 12.393 22.8062 12.3276 22.8233 12.2839C22.7295 12.241 22.644 12.1818 22.5708 12.109C22.3596 11.91 22.0854 11.5703 22.066 11.3178C22.0417 11.0362 22.2942 10.9756 22.2942 10.9756C22.2731 10.9566 22.255 10.9345 22.2408 10.91C22.2286 10.8688 22.2164 10.8032 22.168 10.75Z" fill="#8C6228"/>
<path fill-rule="evenodd" clip-rule="evenodd" d="M20.296 7.69665C20.296 7.69665 20.2838 7.67969 20.2184 7.75729C20.2305 7.67969 20.2427 7.60673 20.2475 7.53633C20.2785 7.47116 20.3186 7.41071 20.3665 7.35681C20.3301 7.42945 20.3057 7.49505 20.3057 7.49505C20.3057 7.49505 20.3957 7.32753 20.5267 7.22561C20.6165 7.15281 20.7305 7.11889 20.779 7.05089C20.8325 6.97809 20.8203 6.96593 20.8325 6.95377C20.8325 6.95377 20.9515 6.87617 21.1336 6.64785C21.1577 6.61873 21.1942 6.58721 21.2185 6.55809C21.2597 6.54113 21.3568 6.49745 21.4709 6.43905C21.5899 6.37361 21.7233 6.28385 21.8059 6.24705C21.9685 6.17425 22.1409 6.18161 22.2209 6.06737C22.2816 6.05041 22.347 5.86833 22.335 5.71313C22.4248 5.74945 22.8859 6.03585 23.0438 6.66209C23.1579 7.10625 22.9539 7.79073 22.8689 8.12097C22.784 8.45121 22.772 8.69617 22.6529 8.84657C22.5024 9.04577 22.0171 9.32657 21.8981 9.46561C21.7961 9.57969 21.4904 9.86849 21.5024 10.0771C21.5145 10.2325 21.7062 10.3171 21.7477 10.3466C21.7891 10.376 21.7888 10.4122 21.8665 10.3946C21.9443 10.377 21.9733 10.3411 22.0049 10.3411C22.0413 10.3459 22.0413 10.3533 22.0582 10.3533C22.0705 10.3529 22.0828 10.3513 22.0947 10.3483C22.0947 10.3483 22.0825 10.5693 21.5656 10.6363C21.5291 10.6413 21.4928 10.6533 21.4465 10.6607C21.5073 10.6315 21.5437 10.6315 21.6093 10.5418C21.5365 10.5296 21.3277 10.5175 21.2742 10.5005C21.2912 10.4714 21.347 10.3936 21.3931 10.3573C21.4344 10.321 21.3883 10.3093 21.352 10.3282C21.2895 10.3707 21.2295 10.4169 21.1723 10.4664C21.1117 10.5199 21.0582 10.5927 20.9611 10.6584C20.932 10.5613 20.9368 10.3768 21.051 10.2434C21.0217 10.2482 20.9659 10.3331 20.9126 10.3162C20.903 10.2276 20.9087 10.1381 20.9296 10.0515C20.9587 9.94225 21.1165 9.75057 21.1165 9.75057L21.8785 8.38881L22.0411 7.35729L20.296 7.69633V7.69665Z" fill="#92723A"/>
<path fill-rule="evenodd" clip-rule="evenodd" d="M20.2548 7.7549C20.2548 7.7549 20.2136 7.78402 20.2961 7.83986C20.284 7.85682 20.2548 7.91746 20.2184 7.95874C20.1772 8.00674 20.1334 8.0365 20.1164 8.07778C20.0801 8.16274 20.051 8.22098 20.051 8.25746C20.051 8.29394 20.0388 8.5269 19.9369 8.6773C19.9004 8.73074 19.8592 8.8205 19.83 8.88114C19.7694 8.98786 19.716 9.07314 19.7038 9.12114C19.6796 9.2061 19.6627 9.43906 19.6627 9.43906C19.6627 9.43906 19.7161 9.37346 19.7355 9.3493C19.7062 9.40994 19.6747 9.47538 19.6286 9.52402C19.6577 9.4997 19.7427 9.43906 19.8859 9.31282C20.0849 9.14546 20.3956 8.86386 20.7744 8.64082C20.6601 8.6821 20.5632 8.6821 20.4856 8.69426C20.5462 8.63362 21.0923 7.99282 21.3787 7.93218C21.3961 7.91013 21.4047 7.88245 21.403 7.85442L21.1577 7.83026L20.6601 7.93698L20.5875 7.55298L20.2548 7.75442V7.7549Z" fill="#B18E3E"/>
<path fill-rule="evenodd" clip-rule="evenodd" d="M21.0462 9.93931C21.0462 9.93931 20.9806 10.0047 20.92 10.1675C20.8733 10.1187 20.8333 10.064 20.8009 10.0047C20.7112 9.85435 20.5729 9.66251 20.2501 9.77179C20.2453 9.66987 20.2379 9.61643 20.2501 9.54363C20.3035 9.53163 20.4661 9.40059 20.6286 9.20875C20.7429 9.07771 20.8496 8.92715 20.9224 8.73547C20.9704 8.69899 21.0534 8.63835 21.1624 8.56795C21.3177 8.46123 21.5046 8.31547 21.5337 8.15291C21.4609 8.18203 21.3056 8.25483 21.0725 8.24283C21.1624 8.20155 21.3006 8.15787 21.2837 7.97819C21.3201 7.95387 21.3493 7.93691 21.3493 7.93691C21.3219 7.92778 21.2931 7.92366 21.2643 7.92475C21.2593 7.90779 21.2521 7.88363 21.2109 7.89563C21.1696 7.90763 21.1629 7.90779 21.1574 7.92475C21.1405 7.92971 21.0846 7.92475 21.0433 7.95403C21.0021 7.98331 20.888 8.08011 20.8443 8.09707C20.8613 8.06795 20.8854 8.02443 20.8854 8.02443C20.8854 8.02443 20.7665 8.03643 20.6816 8.07243C20.5262 8.12587 20.3467 8.22299 20.1646 8.31755C20.1816 8.28843 20.1889 8.26955 20.2009 8.26411C20.2129 8.25867 20.2422 8.25211 20.2422 8.24715C20.2422 8.24219 20.2302 8.19915 20.2374 8.18171C20.2918 8.06639 20.3561 7.95596 20.4294 7.85163C20.5144 7.73739 20.5313 7.57483 20.5313 7.57483L20.9027 7.38795L21.9464 7.14795L22.6237 7.18923L22.5387 7.65771L22.1387 8.47563L21.7965 9.22075L21.4056 9.67723L21.0464 9.93931H21.0462Z" fill="#543E26"/>
<path fill-rule="evenodd" clip-rule="evenodd" d="M22.7379 7.91188C22.7379 7.91188 22.3301 8.41668 22.216 8.49444C22.2888 8.33908 22.7379 7.41428 22.9005 7.157C22.8641 7.12788 22.8155 7.12788 22.9296 6.677C22.8326 6.905 22.7985 7.02404 22.7185 7.08468C22.6385 7.14532 22.6286 7.12596 22.5745 7.12596C22.5848 7.10749 22.5889 7.08629 22.5865 7.06532C22.5865 7.06532 22.2443 7.02404 22.0105 7.02404C21.7768 7.02404 21.3141 7.15028 21.0566 7.2522C20.8528 7.33716 20.7387 7.33716 20.6659 7.39044C20.5931 7.45108 20.5518 7.51668 20.5153 7.53364C20.4862 7.5506 20.348 7.59428 20.3163 7.64036C20.2872 7.68836 20.2387 7.74228 20.2387 7.75444C20.2387 7.7666 20.2265 7.78372 20.263 7.7714C20.275 7.7666 20.3649 7.71796 20.4669 7.65732C20.6051 7.57972 20.7726 7.48996 20.8941 7.43652C21.2411 7.29812 21.3504 7.32244 21.5056 7.29332C21.6681 7.2642 21.9013 7.1962 22.0565 7.1962C22.2118 7.1914 22.5056 7.1962 22.5736 7.20836C22.5445 7.23268 22.5201 7.2618 22.5323 7.36372C22.5323 7.39284 22.508 7.42436 22.4843 7.49476C22.4117 7.6938 22.2733 8.02388 22.1963 8.1914C22.0896 8.4194 21.9683 8.61124 21.9083 8.73012C21.8483 8.849 21.7163 9.16212 21.5856 9.32964C21.4549 9.49716 21.3865 9.59908 21.3456 9.63556C21.3046 9.67204 21.0105 9.88788 21.0325 9.96564C21.0859 9.94868 21.4233 9.82164 21.6683 9.5458C21.9133 9.26996 21.9621 9.10164 22.1537 8.95108C22.3454 8.80052 22.496 8.5482 22.5857 8.33956C22.6609 8.14532 22.644 8.08468 22.7385 7.91236L22.7379 7.91188Z" fill="#806031"/>
<path fill-rule="evenodd" clip-rule="evenodd" d="M13.9491 11.6796C13.9491 11.6796 13.8957 11.9004 13.7742 12.0097C13.6553 12.1165 13.4441 12.2087 13.42 12.3884C13.3909 12.5679 13.6312 12.6578 13.6312 12.6578C13.6312 12.6578 13.5 12.8738 13.5 13.0364C13.5 13.2039 13.4952 13.2354 13.5121 13.3956C13.4929 13.408 13.4765 13.4243 13.4641 13.4436C13.4641 13.4436 13.4761 13.5989 13.5952 13.6959C13.7142 13.7929 13.816 13.8513 13.8766 13.8269C13.8859 13.8467 13.894 13.867 13.9009 13.8877C13.9009 13.8877 13.9909 13.6596 14.0515 13.4605C14.1121 13.2567 14.1656 13.2857 14.1897 13.0114C14.2139 12.7372 14.4777 12.2663 14.4777 12.2663L14.6577 11.8639L14.3641 11.6357L13.9491 11.6794V11.6796Z" fill="#B6903C"/>
<path fill-rule="evenodd" clip-rule="evenodd" d="M14.4952 12.0752C14.4347 12.1373 14.3788 12.2039 14.328 12.2742C14.2504 12.3811 14.1898 12.4781 14.0757 12.5195C13.9616 12.561 13.8888 12.5606 13.896 12.6749C13.9032 12.7891 14.0101 12.8374 14.0707 12.8957C14.1363 12.9563 14.1898 13.0582 14.1606 13.1725C14.197 13.1555 14.2626 13.136 14.3232 13.005C14.3838 12.8739 14.808 12.0754 14.808 12.0754H14.4952V12.0752Z" fill="#685026"/>
<path fill-rule="evenodd" clip-rule="evenodd" d="M16.168 10.2329C16.168 10.2329 16.2043 10.1359 16.168 10.0655C16.1315 9.99273 15.9107 9.96841 15.8014 9.88585C15.6874 9.80089 15.549 9.74185 15.4349 9.77913C15.4518 9.73785 15.5198 9.64793 15.464 9.62857C15.4106 9.61161 15.2117 9.70137 15.1582 9.74265C15.1048 9.78393 14.9834 9.83241 14.9592 9.86169C14.935 9.89097 14.8936 9.94665 14.8693 9.92233C14.845 9.90537 14.833 9.86169 14.7917 9.88585C14.7504 9.91001 14.5517 10.0727 14.515 10.1675C14.4784 10.2622 14.396 10.4734 14.1485 10.7135C13.901 10.9537 13.7941 11.1092 13.8669 11.199C13.9397 11.2887 13.9738 11.2233 13.9859 11.3009C13.9953 11.3771 13.9912 11.4543 13.9738 11.5291C13.9446 11.6553 13.8962 11.7742 13.9616 11.7985C14.1291 11.8519 14.2918 11.7505 14.3282 11.7815C14.401 11.847 14.2869 12.0825 14.4592 12.1286C14.6341 12.1766 14.8064 12.0873 14.8064 12.0873L15.4422 11.7451L16.0539 11.4223L16.3669 10.8033L16.199 10.2863L16.167 10.2329H16.168Z" fill="#D4B968"/>
<path fill-rule="evenodd" clip-rule="evenodd" d="M15.568 11.7112C15.568 11.7112 15.4611 11.5487 15.5923 11.4053C15.7235 11.2619 15.9102 11.2015 15.983 11.1117C15.9691 11.0946 15.9506 11.082 15.9296 11.0754C15.9779 10.9889 16.0516 10.9194 16.1408 10.8762C16.1044 10.8399 16.0558 10.8107 16.0025 10.8107C15.8835 10.8107 15.8105 10.8835 15.7014 10.8835C15.5947 10.8835 15.5825 10.8301 15.5825 10.8301C15.5825 10.8301 15.7622 10.8131 15.7451 10.733C15.7281 10.648 15.6971 10.648 15.6971 10.648C15.6971 10.648 16.0441 10.504 16.1048 10.4272C16.1654 10.3504 16.1582 10.2597 16.1704 10.2234C16.2115 10.2234 16.4518 10.0971 16.5489 10.1506C16.646 10.204 16.578 10.3496 16.578 10.3496C16.578 10.3496 16.872 10.1287 17.0217 9.91203C17.1528 9.92419 17.2137 9.82227 17.3097 9.82227C17.4288 9.82227 17.6156 9.98483 17.652 10.3319C17.6763 10.5309 17.7126 10.645 17.6763 10.997C17.6593 11.196 17.6641 11.621 17.7243 11.8319C17.7654 11.9994 17.8625 11.9824 17.8625 11.9824C17.8476 12.0335 17.8181 12.079 17.7776 12.1135C17.712 12.1741 17.7048 12.3344 17.712 12.3951C17.7216 12.4394 17.7338 12.4831 17.7484 12.5261C17.7484 12.5261 17.6708 12.6159 17.6513 12.6767C17.6344 12.7373 17.5544 12.7786 17.496 12.7786C17.4376 12.7786 17.4668 12.7736 17.3892 12.7786C17.3116 12.7835 17.2873 12.7955 17.2387 12.7786C17.19 12.7616 17.1537 12.7421 17.1732 12.5866C17.1902 12.4312 16.5737 12.0696 16.5737 12.0696L15.5657 11.7104L15.568 11.7112Z" fill="#CCA849"/>
<path fill-rule="evenodd" clip-rule="evenodd" d="M14.4102 13.2451C14.4102 13.2451 14.631 13.5388 15.5389 13.5388C15.9709 13.5388 16.1214 13.4975 16.2109 13.4732C16.308 13.4489 16.672 13.3059 17.0385 12.8737C17.3686 12.483 17.2958 12.3228 17.2958 12.3228L17.1038 12.2937L16.4798 12.3787L14.6334 13.1651L14.4094 13.2451H14.4102Z" fill="#585136"/>
<path fill-rule="evenodd" clip-rule="evenodd" d="M15.0874 13.3179C15.0874 13.3179 14.301 13.4928 14.301 12.9952C14.301 12.5098 14.7864 12 14.9078 11.9103C15.0341 11.8203 15.335 11.7183 15.335 11.7183H16.0608L16.199 12.0848L16.1384 12.876L15.0874 13.3178V13.3179Z" fill="#252211"/>
<path fill-rule="evenodd" clip-rule="evenodd" d="M15.8131 11.8666C15.8131 11.8666 15.6627 11.7282 15.3205 11.9146C14.9782 12.101 14.7014 12.4906 14.6845 12.8443C14.6675 13.1573 14.9417 13.3904 15.3689 13.4026C15.6869 13.4146 15.8787 13.3782 15.9758 13.3546C15.9515 13.3254 15.8253 13.1677 15.8253 13.1677L15.8133 11.8667L15.8131 11.8666Z" fill="#C3B378"/>
<path fill-rule="evenodd" clip-rule="evenodd" d="M15.6651 11.944C15.6651 11.944 15.6288 11.9149 15.5211 11.9732C15.4314 12.0212 15.3003 12.148 15.1984 12.2378C15.1328 12.2912 15.0915 12.3154 15.0544 12.3567C14.9038 12.5364 14.7776 12.8301 14.8506 12.9757C14.9235 13.1213 15.1637 13.2888 15.7754 13.1748L15.6634 11.9442L15.6651 11.944Z" fill="#E6D89C"/>
<path fill-rule="evenodd" clip-rule="evenodd" d="M15.4661 12.245C15.4661 12.245 15.3689 12.3956 15.3689 12.6359C15.3689 12.881 15.5073 13.2717 16.0171 13.3009C16.4078 13.3252 16.6699 12.7378 16.9539 12.5097C17.1699 12.3349 17.3009 12.33 17.3009 12.33C17.3009 12.33 17.0801 12.09 16.4904 11.7791C15.9078 11.466 15.2549 11.4247 14.9005 11.9053C15.068 11.8932 15.6093 11.7548 15.6093 11.7548L15.8739 11.8397L15.4661 12.2452V12.245Z" fill="#252211"/>
<path fill-rule="evenodd" clip-rule="evenodd" d="M16.2282 12.563C16.2112 12.5266 16.199 12.478 16.2694 12.466C16.3398 12.454 16.3714 12.461 16.3957 12.514C16.42 12.567 16.4437 12.6111 16.4077 12.633C16.3714 12.6524 16.2766 12.633 16.228 12.5626L16.2282 12.563ZM16.1141 12.2207C16.1141 12.2207 16.0898 12.2377 16.1019 12.2038C16.1067 12.1626 16.1384 12.0897 16.216 12.1068C16.2936 12.1239 16.2768 12.2087 16.264 12.233C16.2512 12.2574 16.1864 12.2985 16.1378 12.281C16.1316 12.2795 16.1259 12.2765 16.1211 12.2723C16.1163 12.2681 16.1126 12.2628 16.1102 12.2569C16.1078 12.251 16.1069 12.2446 16.1075 12.2383C16.108 12.2319 16.1101 12.2258 16.1134 12.2204L16.1141 12.2207Z" fill="#6F674D"/>
<path fill-rule="evenodd" clip-rule="evenodd" d="M9.54401 12.376C9.54401 12.376 9.73601 12.52 9.95905 12.5144C10.1798 12.5095 10.4638 12.2815 10.5949 12.1357C10.6725 12.0508 10.7389 11.961 10.8109 11.8906C10.8717 11.83 10.9128 11.8008 10.9419 11.7596C10.9832 11.7116 11.0269 11.6213 11.0488 11.592C10.9954 11.6333 10.9178 11.7063 10.8376 11.7548C10.76 11.8028 10.5925 11.893 10.5245 11.9173C10.459 11.9416 9.77937 12.3013 9.77937 12.3013L9.54401 12.376Z" fill="#AC924C"/>
<path fill-rule="evenodd" clip-rule="evenodd" d="M9.8374 10.5824C9.8374 10.5824 9.94412 10.5096 10.1505 10.4634C10.3496 10.4154 10.75 10.3784 10.75 10.3784L11.0801 10.5224L11.2112 11.02L10.9712 11.5371L10.6654 11.7291L10.3182 11.1709L9.8382 10.5834L9.8374 10.5824Z" fill="#9F8E57"/>
<path fill-rule="evenodd" clip-rule="evenodd" d="M9.40544 11.0267L9.2912 11.112C9.2912 11.112 9.32048 11.0585 9.34464 10.896C9.3688 10.7334 9.4952 10.3377 9.67968 10.1096C9.86416 9.88141 9.85936 9.89357 9.85936 9.89357C9.84238 9.89047 9.82494 9.89102 9.80819 9.89518C9.79145 9.89935 9.77578 9.90704 9.76224 9.91773C9.78656 9.86397 9.94192 9.67197 10.0973 9.57597C10.2526 9.47997 10.3133 9.44973 10.4758 9.52797C10.6384 9.60621 10.6797 9.64685 10.7987 9.64205C10.9178 9.63725 11.0195 9.51101 11.0195 9.51101C11.0195 9.51101 11.0438 9.58861 10.9541 9.76829C10.8643 9.94797 10.5099 10.3144 10.5099 10.3144L9.772 10.8192L9.40544 11.0272V11.0267Z" fill="#EAC970"/>
<path fill-rule="evenodd" clip-rule="evenodd" d="M9.95132 10.5218C9.95132 10.5218 10.4854 10.5946 10.648 10.4442C10.6528 10.4612 10.6723 10.4612 10.6723 10.4733C10.671 10.4825 10.6667 10.491 10.6601 10.4975C10.6778 10.4947 10.6957 10.4931 10.7136 10.4927C10.7349 10.499 10.7569 10.5031 10.7792 10.5048C10.7971 10.5045 10.8149 10.5028 10.8326 10.4999C10.8309 10.5119 10.8268 10.5235 10.8205 10.534C10.8143 10.5444 10.806 10.5535 10.7961 10.5607C10.8204 10.5607 10.8441 10.5655 10.8441 10.5848C10.8441 10.6042 10.8489 10.6626 10.8198 10.6748C10.7957 10.6814 10.77 10.6797 10.747 10.6698C10.7489 10.7158 10.7614 10.7606 10.7835 10.801C10.8315 10.8908 10.9339 10.993 11.0715 10.9636C11.0715 10.9636 11.1441 11.1383 10.8384 11.5266C10.7972 11.58 10.7534 11.6528 10.7001 11.7135C10.6791 11.7594 10.663 11.8074 10.6521 11.8567C10.6521 11.8567 11.1692 11.6576 11.3172 11.2037C11.4678 10.7474 11.4969 10.2984 11.4678 9.8786C11.4628 9.75956 11.4435 9.67476 11.4144 9.61396C11.3416 9.4634 11.1376 9.48772 11.0552 9.57268C10.9361 9.69172 10.7371 9.98772 10.4604 10.1916C10.1788 10.3954 10.1668 10.4316 9.95068 10.5218H9.95132Z" fill="#D7BC6B"/>
<path fill-rule="evenodd" clip-rule="evenodd" d="M9.31068 11.1772C9.31068 11.1772 9.20876 11.2378 9.15532 11.4652C9.10188 11.6981 9.20332 11.9821 9.26204 12.0719C9.32076 12.1617 9.45404 12.4069 9.73052 12.4191C9.79895 12.4187 9.86663 12.4047 9.92956 12.3778C10.0261 12.3336 10.1166 12.2773 10.199 12.2103C10.318 12.1205 10.415 12.0429 10.4028 12.0356C10.3737 12.0234 9.66988 11.4409 9.66988 11.4409L9.40524 11.1455L9.31052 11.1775L9.31068 11.1772Z" fill="#585136"/>
<path fill-rule="evenodd" clip-rule="evenodd" d="M9.97598 12.1433C9.97598 12.1433 10.1192 12.1313 10.2041 12.0778C10.2891 12.0244 9.70654 11.4468 9.70654 11.4468L9.74782 12.0708L9.97598 12.1433Z" fill="#453A25"/>
<path fill-rule="evenodd" clip-rule="evenodd" d="M9.35676 11.1333C9.35676 11.1333 9.28396 11.2717 9.28396 11.3082C9.2718 11.4271 9.30828 11.8008 9.3374 11.9197C9.36652 12.0459 9.52428 12.2376 9.72828 12.2376C9.85436 12.2376 10.0292 12.16 10.0292 12.1407C10.0292 12.1163 9.84956 12.0927 9.80108 12.0023C9.77196 11.9543 9.7598 11.8349 9.75308 11.7143C9.74828 11.6367 9.74828 11.5517 9.7774 11.5223C9.843 11.4495 9.855 11.2407 9.855 11.2407L10.088 10.8079H9.78156L9.415 11.036L9.35676 11.1333Z" fill="#84754B"/>
<path fill-rule="evenodd" clip-rule="evenodd" d="M9.26703 11.2669C9.26703 11.2669 9.50703 10.949 9.72335 10.876C9.93967 10.8031 10.0365 10.8469 10.0365 10.8469L9.91023 11.1698L9.73055 11.3688L9.74271 11.4708C9.74271 11.4708 9.71343 11.7402 9.89311 11.9271C10.0728 12.114 10.2062 12.1068 10.284 12.1068C10.3617 12.1068 10.5849 12.0412 10.699 11.7717C10.8009 11.5194 10.8859 11.1957 10.6821 10.8712C10.4829 10.5484 10.131 10.5359 10.063 10.5359C9.99503 10.5359 9.46111 10.5626 9.26703 11.2664V11.2669Z" fill="#252211"/>
<path fill-rule="evenodd" clip-rule="evenodd" d="M15.4296 12.347C15.3398 12.3058 15.4248 12.0534 15.5145 11.9757C15.6043 11.8979 15.7184 11.8083 15.9176 11.796C15.9902 11.7912 16.0606 11.8373 16.0486 11.8859C16.0316 11.9757 15.9054 12.1019 15.7913 12.1917C15.6336 12.3155 15.5315 12.3931 15.4296 12.347Z" fill="#F7F7E7"/>
<path fill-rule="evenodd" clip-rule="evenodd" d="M10.5752 10.9708C10.6408 10.966 10.7257 11.0188 10.7427 11.0898C10.7596 11.1674 10.7014 11.3228 10.5752 11.3228C10.4732 11.3228 10.4198 11.1965 10.4198 11.1602C10.4209 11.1303 10.4293 11.1012 10.4441 11.0752C10.4489 11.0679 10.4611 10.9829 10.5752 10.9708Z" fill="#F8F6DE"/>
<path fill-rule="evenodd" clip-rule="evenodd" d="M9.62862 11.0266C9.62862 11.0266 9.4611 11.1042 9.3835 11.2666C9.32805 11.3865 9.31128 11.5207 9.3355 11.6506C9.34766 11.7113 9.4083 11.8617 9.44958 11.9151C9.49086 11.9685 9.5467 12.005 9.58798 12.0001C9.62926 11.9951 9.71406 11.886 9.71406 11.8205C9.71406 11.7551 9.71902 11.4783 9.79902 11.3277C9.86942 11.1773 9.6291 11.0268 9.6291 11.0268L9.62862 11.0266Z" fill="#D4C38B"/>
<path fill-rule="evenodd" clip-rule="evenodd" d="M9.65292 11.0144C9.6238 11.0314 9.57532 11.0557 9.58732 11.0872C9.59948 11.1163 9.7014 11.1352 9.73788 11.2063C9.77916 11.2791 9.77916 11.3567 9.767 11.3931C9.79871 11.3781 9.82747 11.3575 9.85196 11.3323C9.9054 11.2717 9.97084 11.1893 10.0267 11.1893C10.0632 11.1893 10.0995 11.2063 10.1336 11.2063C10.187 11.2063 10.2403 11.1893 10.2476 11.1335C10.2596 11.0607 10.1457 10.9951 10.0801 11.0072C10.0923 10.9592 10.1092 10.8883 10.0558 10.8397C10.0024 10.7911 9.835 10.8762 9.79852 10.9005C9.76204 10.9248 9.65292 11.0146 9.65292 11.0146V11.0144Z" fill="#E2D59D"/>
<path fill-rule="evenodd" clip-rule="evenodd" d="M13.5097 16.1141L13.8689 16.0081L13.9708 16.0809C13.9708 16.0809 14.0435 16.2362 14.1577 16.2556C14.1212 16.3332 14.0265 16.3996 14.0315 16.4546C14.0364 16.5097 14.0849 16.5517 14.0849 16.5517C14.0849 16.5517 13.762 17.0857 14.398 17.6237C14.2475 17.6844 14.0558 17.7677 13.9539 17.8157C14.0265 17.8327 14.1819 17.8637 14.2475 17.9226C14.3131 17.9815 14.3131 18.0002 14.3737 18.0367C14.4344 18.0732 14.4707 18.1217 14.4587 18.1434C14.4174 18.1191 14.279 18.0465 14.2548 18.1143C14.2307 18.1821 13.6553 18.1556 13.6553 18.1556L12.6844 18.3425C12.6844 18.3425 12.7208 18.2453 12.6188 18.1556C12.5 18.0489 12.3544 18.1604 12.199 18.0415C11.9952 17.8861 11.9878 17.7065 11.9224 17.6386C11.9878 17.5973 12.1214 17.5367 12.4393 17.4946C12.4272 17.4703 12.3859 17.3975 12.4102 17.3321C12.4393 17.2471 12.5606 17.1937 12.5243 17.0921C12.5777 17.0799 12.6019 17.0799 12.7355 16.9124C12.8617 16.7449 12.9393 16.7085 13.0364 16.6964C13.1336 16.6842 13.1918 16.6964 13.3715 16.5289C13.4976 16.41 13.4564 16.3081 13.4564 16.3081C13.4564 16.3081 13.5388 16.2813 13.5099 16.1138L13.5097 16.1141Z" fill="#CBAC5A"/>
<path fill-rule="evenodd" clip-rule="evenodd" d="M12.4491 16.1681C12.4539 16.1438 12.4734 16.1316 12.6045 16.1438C12.7355 16.1559 13.5656 16.0662 13.7913 16.054C14.0195 16.037 14.8229 16.049 15.2137 16.1316C15.6046 16.2142 16.0001 16.3113 16.1918 16.3598C16.3838 16.4132 16.4443 16.4324 16.4369 16.4567C16.4321 16.481 16.3889 16.5047 16.3641 16.498C16.34 16.4932 15.704 16.299 15.5075 16.258C15.311 16.217 14.6312 16.1074 14.2595 16.114C13.9125 16.119 13.7741 16.1092 13.4805 16.1431C13.1867 16.1796 12.7013 16.2281 12.5557 16.2087C12.4117 16.1918 12.4414 16.1918 12.4488 16.1674L12.4491 16.1681Z" fill="#D6BC6F"/>
<path fill-rule="evenodd" clip-rule="evenodd" d="M14.4028 18.0704C14.4028 18.0704 14.9004 18.3399 15.0801 18.6699C15.2112 18.9151 15.0025 19.0365 15.0025 19.0365C15.0025 19.0365 15.2841 19.0365 15.2476 19.1919C15.2307 19.2888 14.7622 19.5509 14.4491 19.6893C14.1312 19.8277 14.1433 19.8205 13.988 19.8447C13.8374 19.869 13.4248 19.7967 13.3398 19.9175C13.2548 20.0383 13.2918 20.1627 13.3155 20.1821C13.3398 20.1991 13.5364 20.2234 13.5364 20.2234C13.5364 20.2234 13.4952 20.3375 13.0875 20.3496C12.6798 20.3618 12.5777 20.3907 12.5534 20.4346C12.5291 20.4757 12.631 20.4515 12.818 20.4826C13.0049 20.5117 13.267 20.5306 13.267 20.5306C13.267 20.5306 13.182 20.6034 12.9612 20.6616C12.7088 20.7271 12.3131 20.7879 12.1942 20.8607C12.2548 20.9019 12.3448 20.9626 12.3862 20.9674C12.2843 20.9917 12.1409 21.0451 12.1168 21.0645C12.1531 21.0888 12.2017 21.1179 12.2017 21.1179C12.2017 21.1179 11.9977 21.3631 11.8788 21.4239C11.76 21.4847 11.0755 21.8024 10.84 21.7418C10.2526 21.5864 10.1798 20.9432 10.0366 20.8947C9.8206 20.8219 9.71868 20.9674 9.52684 20.8655C9.6118 20.8048 9.65804 20.7685 9.7478 20.7272C9.65068 20.6792 9.14828 20.3607 9.14828 20.3607C9.09575 20.2461 9.03743 20.1344 8.97356 20.0258C8.87644 19.8583 8.73356 19.6349 8.62636 19.4383C8.3934 19.0063 8.38124 18.8072 8.17004 18.5621C8.20652 18.5141 8.3326 18.5208 8.3326 18.5208L10.1022 19.1034L13.24 19.1943L14.056 18.0293L14.403 18.0706L14.4028 18.0704Z" fill="#DFC677"/>
<path fill-rule="evenodd" clip-rule="evenodd" d="M9.75488 19.847C9.77382 19.8681 9.79589 19.8861 9.82032 19.9004C9.88112 19.9417 9.97088 19.9904 10.0315 20.063C10.0558 20.0267 10.1165 19.9611 10.2235 20.063C10.3306 20.1649 10.4635 20.0923 10.5462 20.1164C10.6312 20.1457 10.636 20.1577 10.636 20.1577C10.636 20.1577 10.684 20.1164 10.7914 20.0728C10.857 20.0484 10.9346 20.0315 11.0195 20.0073C11.0971 19.9904 11.1821 19.966 11.2405 19.966C11.2939 20.0024 11.4856 20.206 12.255 19.9054C12.9808 19.6238 13.1482 19.5923 13.2696 19.6358C13.2818 19.6067 13.2939 19.5508 13.4808 19.5582C13.4808 19.4806 13.3254 19.216 13.3254 19.216L12.4686 18.9224H12L10.5947 19.1796L9.816 19.624L9.75536 19.848L9.75488 19.847Z" fill="#C4A859"/>
<path fill-rule="evenodd" clip-rule="evenodd" d="M9.28638 19.3544C9.28638 19.3544 9.30334 19.4855 9.49758 19.6239C9.68958 19.7621 9.7499 19.8447 9.7499 19.8447C9.7499 19.8447 9.78638 19.7967 9.8155 19.7477C9.84462 19.6943 9.86894 19.6336 9.91742 19.6167C10.0145 19.5754 10.2353 19.653 10.284 19.6408C10.3253 19.6288 10.3131 19.5439 10.3568 19.5439C10.4587 19.5389 10.5241 19.6093 10.5606 19.6093C10.5971 19.6093 10.6867 19.6045 10.6989 19.5851C10.711 19.5658 10.7158 19.3642 10.8542 19.2671C11.0048 19.1603 11.1893 19.2064 11.2382 19.2308C11.2382 19.2671 11.243 19.357 11.3401 19.3618C11.4373 19.3666 11.4469 19.3496 11.5321 19.3788C11.6174 19.4079 11.719 19.374 11.7651 19.517C11.8064 19.505 11.9035 19.4928 11.8792 19.3544C11.9272 19.3181 11.9691 19.2938 12.0712 19.1506C12.0955 19.1143 12.1366 19.073 12.1683 19.0195C12.2533 19.0195 12.3552 19.0026 12.491 19.1215C12.4497 19.1506 12.4254 19.1695 12.4134 19.1991C12.4489 19.2342 12.4814 19.2724 12.5104 19.3131C12.5469 19.3611 12.5712 19.42 12.6173 19.4322C12.7192 19.4613 12.8867 19.42 13.0736 19.4322C13.2533 19.4443 13.4037 19.5098 13.4693 19.5511C13.4936 19.5391 13.4936 19.5341 13.5542 19.5463C13.6149 19.5584 13.6609 19.5632 13.5955 19.4856C13.6318 19.5026 13.6731 19.5391 13.7096 19.5026C13.7461 19.4661 13.775 19.4128 13.8769 19.4007C13.9789 19.3885 14.0153 19.4055 14.0566 19.2988C14.1101 19.1677 13.9256 19.1677 13.9256 19.1677C13.9256 19.1677 14.0105 19.0899 14.1053 18.988C14.2193 18.8813 14.3504 18.7429 14.3819 18.573C14.4353 18.2599 14.1296 18.2188 14.1296 18.2188L12.6465 18.6751L10.8334 18.5851L9.28734 19.3546L9.28638 19.3544Z" fill="#927D49"/>
<path fill-rule="evenodd" clip-rule="evenodd" d="M7.95389 15.0705C7.95389 15.0705 7.90589 15.1311 7.87629 15.2743C7.84669 15.4175 7.85933 15.4006 7.83501 15.5025C7.81069 15.6044 7.51197 16.619 7.62397 16.9612C7.73597 17.3034 7.92989 17.4297 8.05117 17.7063C8.07549 17.767 8.09917 17.8034 8.11181 17.8569C8.15309 18.0364 8.11677 18.1748 8.16525 18.3545C8.18221 18.4151 8.22605 18.4855 8.29149 18.5583C8.43549 18.7087 8.67021 18.8519 8.77149 18.9538C8.91453 19.1044 9.11853 19.4103 9.37821 19.4393C9.51661 19.4562 9.71325 19.398 9.87581 19.301C10.0198 19.2111 10.1088 19.085 10.2598 19.013C10.3665 18.9596 10.4806 18.9402 10.5825 18.9159C10.7937 18.8746 10.9856 18.8679 11.0996 18.8916C11.2744 18.9281 11.687 19.0543 11.9156 19.0543C12.0943 19.0514 12.272 19.027 12.4448 18.9815C12.7918 18.8796 13.2116 18.7047 13.4884 18.6271C13.651 18.5791 13.782 18.5665 13.9156 18.5374C14.1438 18.4839 14.3355 18.4111 14.4448 18.2727C14.372 18.1878 14.2822 18.0567 13.7966 18.0615C13.2457 18.0737 12.6097 18.3794 12.2966 18.4281C11.9835 18.4767 11.8476 18.5178 11.498 18.3916C11.1553 18.2641 11.144 18.1798 11.144 18.1798C11.144 18.1798 10.7841 17.9281 10.6336 17.2865C10.483 16.6449 10.6336 16.1774 11.0244 15.733C11.1264 15.619 11.102 15.517 11.102 15.517C11.102 15.517 11.3593 15.17 11.2889 14.845C11.2113 14.5222 10.7137 14.5878 10.7137 14.5878L7.95405 15.0705H7.95389Z" fill="#6E6342"/>
<path fill-rule="evenodd" clip-rule="evenodd" d="M8.36893 16.1506C8.34753 16.1909 8.33747 16.2362 8.33981 16.2817C8.34461 16.3471 8.36413 16.4321 8.56061 16.6239C8.72813 16.7913 8.69165 16.9782 8.69165 16.9782C8.69165 16.9782 8.77597 16.9951 9.00477 16.8881C9.18445 16.8031 9.24477 16.9537 9.24477 16.9537C9.29707 16.9262 9.35377 16.9082 9.41229 16.9002C9.46532 16.8953 9.51664 16.879 9.56269 16.8522C9.56269 16.8522 9.77389 17.0682 9.95837 17.1702C10.1259 17.2601 10.223 17.3207 10.3056 17.2601C10.3832 17.2066 10.3832 17.0974 10.3782 17.0489C10.359 17.0041 10.3346 16.9618 10.3056 16.9226C10.2521 16.845 10.1672 16.7551 10.1616 16.6826C10.1494 16.5153 10.2878 16.3161 10.2585 16.2676C10.2293 16.2191 10.1203 16.207 9.85085 16.3041C9.57181 16.3962 8.36781 16.1511 8.36781 16.1511L8.36893 16.1506Z" fill="#39331F"/>
<path fill-rule="evenodd" clip-rule="evenodd" d="M9.00479 17.2354C9.00479 17.2354 8.86655 17.1043 8.91503 16.4683C8.97372 16.4675 9.03232 16.4732 9.08975 16.4853C9.08975 16.4853 9.16511 16.9781 9.00479 17.2354Z" fill="#292311"/>
<path fill-rule="evenodd" clip-rule="evenodd" d="M8.01947 14.5848C8.03876 14.5705 8.05665 14.5545 8.07291 14.5368C8.02491 14.6266 7.80331 14.9858 7.98299 15.5514C8.16267 16.1144 8.61403 16.5343 9.16987 16.5538C9.72571 16.5733 10.0179 16.3013 10.3519 15.8936C10.483 15.7311 10.6335 15.5271 10.767 15.3888C10.966 15.1727 11.1214 15.112 11.1214 14.9034C11.1214 14.4762 10.6844 14.2843 10.0412 14.0927C9.39803 13.901 8.81787 13.9247 8.51691 14.0559C8.22331 14.1989 8.09707 14.3495 8.01931 14.585L8.01947 14.5848Z" fill="#252211"/>
<path fill-rule="evenodd" clip-rule="evenodd" d="M10.085 17.4271L10.133 17.4028C10.133 17.4028 10.145 17.2108 10.2227 17.2159C10.3003 17.2281 10.3368 17.3302 10.3294 17.3665C10.3246 17.4028 10.3053 17.4636 10.2275 17.4562C10.1256 17.4586 10.0845 17.4271 10.0845 17.4271H10.085Z" fill="#3F3824"/>
<path fill-rule="evenodd" clip-rule="evenodd" d="M9.86896 16.6117C9.86896 16.6117 9.91696 16.5947 9.97568 16.653C10.0237 16.653 10.233 16.6286 10.2986 16.6699C10.3642 16.7112 10.3835 16.7475 10.3835 16.7475C10.3835 16.7475 10.1384 16.801 10.0048 16.7475C9.86896 16.7014 9.86896 16.6117 9.86896 16.6117Z" fill="#2D2815"/>
<path fill-rule="evenodd" clip-rule="evenodd" d="M10.9491 16.6479C10.9491 16.6357 10.8181 16.5459 10.6797 16.5167C10.6553 16.5119 10.6504 16.5288 10.6317 16.5288C10.6195 16.524 10.6147 16.4875 10.6147 16.4875L10.536 16.529C10.536 16.529 10.5238 16.5459 10.5651 16.577C10.6014 16.6061 10.6622 16.6304 10.6792 16.6789C10.6961 16.7274 10.6961 16.7443 10.7035 16.7517C10.7083 16.7565 10.7933 16.7517 10.8345 16.7274C10.8758 16.7031 10.9536 16.6634 10.9486 16.6474L10.9491 16.6479Z" fill="#82764F"/>
<path fill-rule="evenodd" clip-rule="evenodd" d="M9.72333 17.1407C9.72333 17.1407 9.74749 16.9733 9.91021 16.966C10.0776 16.9538 10.1092 17.1164 10.1092 17.1164L10.0121 17.2135C10.0121 17.2111 9.93933 17.1092 9.72413 17.1407H9.72333Z" fill="#2D2816"/>
<path fill-rule="evenodd" clip-rule="evenodd" d="M10.7792 16.4197C10.7792 16.4197 10.6893 16.5168 10.4904 16.546C10.4734 16.5216 10.4369 16.4732 10.4904 16.3956C10.5438 16.318 10.6045 16.2936 10.6651 16.3178C10.6919 16.3221 10.7168 16.334 10.737 16.3521C10.7572 16.3702 10.7719 16.3936 10.7792 16.4197Z" fill="#574F35"/>
<path fill-rule="evenodd" clip-rule="evenodd" d="M11.1456 16.5388C11.1505 16.5145 11.1336 16.5097 11.1456 16.4975C11.1576 16.4854 11.2233 16.4612 11.2355 16.4732C11.2403 16.4782 11.2355 16.4975 11.2355 16.5212C11.2355 16.5449 11.2355 16.5692 11.2233 16.5866C11.2064 16.611 11.1579 16.6231 11.1336 16.6159C11.1092 16.6087 11.1044 16.5746 11.1044 16.5679C11.1164 16.5631 11.1456 16.551 11.1456 16.5388ZM11.56 16.2767C11.56 16.2646 11.6012 16.2402 11.6256 16.2402C11.6619 16.2402 11.6619 16.2694 11.6668 16.2767C11.6788 16.2815 11.6788 16.2718 11.691 16.2937C11.7032 16.3156 11.7203 16.3543 11.708 16.3786C11.6956 16.403 11.6473 16.4198 11.6353 16.415C11.6184 16.4028 11.5649 16.2937 11.56 16.2767Z" fill="#82764F"/>
<path fill-rule="evenodd" clip-rule="evenodd" d="M10.7257 16.5946C10.7257 16.5946 10.7791 16.6066 10.8519 16.6674C10.8276 16.6844 10.7911 16.7038 10.7911 16.7038C10.7911 16.7038 10.7863 16.6479 10.7257 16.5945V16.5946Z" fill="#6E6342"/>
<path fill-rule="evenodd" clip-rule="evenodd" d="M10.6068 16.0606C10.5947 16.0486 10.6432 16.0195 10.6723 16.0243C10.7014 16.0291 10.7136 16.0486 10.7451 16.0534C10.7766 16.0582 10.7816 16.0412 10.7931 16.0291C10.8046 16.0169 10.8465 16.0243 10.8537 16.0291C10.8582 16.0344 10.8623 16.0401 10.8659 16.046C10.8664 16.0368 10.8688 16.0278 10.873 16.0195C10.8771 16.0113 10.8829 16.004 10.89 15.998C10.8993 15.9912 10.9101 15.9866 10.9214 15.9845C10.9328 15.9824 10.9445 15.9828 10.9556 15.9859C10.9604 16.0028 10.9848 16.0635 10.98 16.0756C10.9752 16.0878 10.9024 16.1049 10.89 16.0926C10.9022 16.1219 10.9556 16.1825 10.9628 16.1945C10.97 16.2065 10.9094 16.2358 10.8852 16.231C10.8513 16.2286 10.6425 16.1072 10.6062 16.0611L10.6068 16.0606ZM10.9248 15.6577C10.9203 15.6455 10.9117 15.6352 10.9004 15.6286C10.8835 15.6238 10.8276 15.6286 10.8276 15.6577C10.8276 15.6868 10.8756 15.8497 10.9296 15.9345C10.9904 16.0195 11.0315 16.0897 11.0728 16.1092C11.0857 16.1152 11.1004 16.1159 11.1139 16.1114C11.1275 16.1069 11.1387 16.0974 11.1456 16.0849C11.1504 16.0728 11.1625 15.983 11.1577 15.7718C11.1529 15.5606 11.1456 15.3568 11.1334 15.3446C11.1212 15.3324 11.0728 15.3326 11.0558 15.3568C11.0388 15.3809 10.9296 15.6214 10.9246 15.6577H10.9248Z" fill="#585136"/>
<path fill-rule="evenodd" clip-rule="evenodd" d="M10.7088 16.9006C10.7088 16.9006 10.6238 16.8471 10.5412 16.8836C10.4636 16.9201 10.4684 17.0633 10.4684 17.0633C10.4859 17.0701 10.5048 17.0726 10.5234 17.0705C10.542 17.0683 10.5598 17.0617 10.5753 17.0511C10.6288 17.0148 10.6966 16.9542 10.7088 16.9007V16.9006Z" fill="#574F35"/>
<path fill-rule="evenodd" clip-rule="evenodd" d="M10.8689 17.0924C10.8641 17.0444 10.8209 17.0444 10.8209 17.0196C10.8239 17.0077 10.8308 16.9972 10.8404 16.9897C10.8501 16.9822 10.862 16.9782 10.8742 16.9783C10.8985 16.9783 10.9222 17.0074 10.952 17.0263C10.9811 17.0432 11.0248 17.0743 11.0296 17.1112C11.0344 17.1482 10.9816 17.2495 10.9228 17.2495C10.8641 17.2495 10.8816 17.1402 10.8694 17.0917L10.8689 17.0924ZM11.3374 17.0268C11.3374 17.0268 11.2403 17.0559 11.2475 17.0268C11.2547 16.9976 11.2768 16.9904 11.3083 16.9904C11.3243 16.9737 11.3458 16.9633 11.3689 16.9612C11.3821 16.9605 11.3951 16.9648 11.4052 16.9733C11.4052 16.9733 11.4708 16.9442 11.4902 16.9612C11.5096 16.9781 11.4952 16.9781 11.5072 16.9976C11.5224 17.0193 11.5325 17.0442 11.5364 17.0704C11.5364 17.0898 11.4636 17.1311 11.4052 17.1239C11.3374 17.1093 11.3494 17.0389 11.3374 17.0268ZM11.9028 16.9175C11.9028 16.9175 11.932 16.9344 11.9078 16.954C11.8908 16.9709 11.8059 17.002 11.7329 17.0074C11.6601 17.0074 11.5947 17.0194 11.5947 16.9952C11.5947 16.9711 11.6553 16.9224 11.6916 16.9103C11.6989 16.9012 11.7082 16.8938 11.7187 16.8887C11.7292 16.8837 11.7408 16.8811 11.7524 16.8812C11.7816 16.8812 11.8955 16.869 11.9272 16.8642C11.9563 16.8592 11.9806 16.8762 11.9635 16.9005C11.9563 16.9175 11.9028 16.9175 11.9028 16.9175ZM12.0704 16.168C12.0704 16.168 12.0339 16.2456 11.9928 16.2456C11.9515 16.2408 11.9515 16.2287 11.9515 16.2165C11.9515 16.1996 11.9928 16.1559 11.9878 16.1437C11.9758 16.1437 11.9465 16.1437 11.9515 16.1146C11.9515 16.0903 11.9928 16.0612 12.0291 16.0666C12.0565 16.044 12.0907 16.0313 12.1262 16.0303C12.1675 16.0303 12.2038 16.0423 12.2038 16.0666C12.2038 16.0909 12.1558 16.1442 12.1382 16.1565C12.1188 16.1759 12.0945 16.1885 12.0704 16.1685V16.168ZM11.5169 17.6024C11.5169 17.6024 11.4689 17.6074 11.4689 17.6316C11.4689 17.6437 11.4809 17.6437 11.498 17.6365C11.5079 17.636 11.5177 17.6343 11.5272 17.6316C11.532 17.6365 11.532 17.6607 11.5684 17.6607C11.5984 17.6566 11.6273 17.6467 11.6534 17.6316C11.6825 17.6196 11.7068 17.6072 11.7068 17.5836C11.6947 17.5423 11.6704 17.5228 11.634 17.5228C11.6154 17.5216 11.5969 17.5258 11.5806 17.5349C11.5806 17.5349 11.5684 17.5106 11.5272 17.5349C11.4859 17.5592 11.4907 17.5592 11.5028 17.5714C11.5246 17.5908 11.5174 17.6034 11.5174 17.6034L11.5169 17.6024ZM11.2427 17.8549C11.2427 17.8428 11.3033 17.8184 11.3203 17.8258C11.3372 17.8306 11.3857 17.9228 11.3857 17.9325C11.3857 17.9447 11.3251 17.9738 11.3008 17.9738C11.2764 17.9738 11.2353 17.9325 11.2353 17.9258C11.2353 17.921 11.2644 17.9138 11.2644 17.9088C11.2716 17.8968 11.2427 17.8676 11.2427 17.8554V17.8549ZM11.0507 17.5005C11.0628 17.4957 11.0628 17.4836 11.0798 17.4714C11.0851 17.4679 11.0912 17.4656 11.0975 17.4648C11.1038 17.4639 11.1102 17.4646 11.1163 17.4666C11.1206 17.459 11.1265 17.4524 11.1336 17.4473C11.1408 17.4422 11.1489 17.4388 11.1576 17.4373C11.1867 17.4325 11.211 17.4373 11.2056 17.4495C11.2056 17.486 11.2299 17.5101 11.2299 17.5392C11.2299 17.5684 11.2129 17.6048 11.1523 17.6292C11.0916 17.6461 11.0091 17.6461 10.9969 17.6413C10.9848 17.6365 10.9726 17.5879 10.9848 17.5636C10.9969 17.5392 11.0308 17.5127 11.0504 17.5005H11.0507Z" fill="#82764F"/>
<path fill-rule="evenodd" clip-rule="evenodd" d="M11.128 17.5168C11.128 17.5168 11.0867 17.5412 11.0867 17.5533C11.083 17.5651 11.0814 17.5774 11.0819 17.5896C11.0819 17.5968 11.1353 17.5848 11.1425 17.5775C11.1449 17.5727 11.128 17.5295 11.128 17.5168Z" fill="#6E6342"/>
<path fill-rule="evenodd" clip-rule="evenodd" d="M10.767 17.4028C10.7912 17.4078 10.8325 17.4028 10.864 17.415C10.8883 17.4271 10.9053 17.4515 10.881 17.4806C10.8566 17.5097 10.833 17.5534 10.779 17.546C10.7184 17.5412 10.6602 17.5097 10.6602 17.4854C10.6591 17.47 10.6612 17.4546 10.6662 17.44C10.6712 17.4254 10.679 17.412 10.6893 17.4004C10.7136 17.3811 10.7256 17.3932 10.7669 17.4028H10.767Z" fill="#585136"/>
<path fill-rule="evenodd" clip-rule="evenodd" d="M10.7379 17.4272C10.7379 17.4272 10.6603 17.4879 10.6407 17.5172C10.6164 17.5463 10.4975 17.6967 10.4612 17.7282C10.4733 17.7069 10.487 17.6866 10.5023 17.6676C10.4543 17.6983 10.4184 17.7445 10.4004 17.7986C10.3713 17.8885 10.5631 17.937 10.6892 17.9735C10.8153 18.01 10.8641 18.0215 10.8641 18.0215C10.8177 17.9517 10.7778 17.8778 10.7451 17.8007C10.6971 17.6866 10.6723 17.6744 10.7038 17.621C10.7281 17.5676 10.7646 17.5312 10.7646 17.49C10.75 17.4516 10.7379 17.4272 10.7379 17.4272Z" fill="#574F35"/>
<path fill-rule="evenodd" clip-rule="evenodd" d="M7.97084 17.6191C7.98851 17.6224 8.00661 17.6224 8.02428 17.6191C8.0606 17.6141 8.43932 17.4751 8.835 17.5001C9.13121 17.518 9.4248 17.5662 9.71116 17.6441C10.2088 17.7751 10.8276 18.0348 11.2281 18.1829C11.3348 18.2241 11.4393 18.297 11.5161 18.326C11.822 18.445 11.834 18.445 12.0137 18.4765C12.2249 18.5057 12.4409 18.4353 12.6667 18.3868C12.9433 18.326 13.4166 18.2969 13.8316 18.2362C13.9658 18.2176 14.0982 18.1876 14.2273 18.1465C14.2273 18.1465 13.8972 18.4765 13.1059 18.5954C12.786 18.644 12.461 18.6481 12.14 18.6076C11.8875 18.5833 11.7201 18.5468 11.5939 18.5105C11.4507 18.4692 11.1569 18.3599 10.7953 18.2705C10.5428 18.2049 10.2612 18.1564 9.93852 18.0957C9.14236 17.95 8.27836 17.7826 7.97052 17.6201L7.97084 17.6191Z" fill="#252211"/>
<path fill-rule="evenodd" clip-rule="evenodd" d="M7.07755 16.1189C6.88555 16.2815 6.68187 16.4368 6.48299 16.5872L5.88347 17.0479C5.67963 17.1983 5.48059 17.3536 5.27659 17.5042C5.07259 17.6547 4.86891 17.7978 4.65259 17.9362C4.84459 17.7736 5.04827 17.6231 5.25211 17.4751C5.45595 17.3271 5.66731 17.1819 5.86395 17.0319L6.46347 16.5706C6.66971 16.4202 6.86875 16.2648 7.07755 16.1192V16.1189ZM6.01691 17.8179C6.01691 17.8179 6.23291 17.6383 6.50235 17.3859C6.83723 17.073 7.24747 16.6723 7.37851 16.5997L6.01675 17.8181L6.01691 17.8179Z" fill="#CFB66C"/>
<path fill-rule="evenodd" clip-rule="evenodd" d="M6.01691 17.8178C6.12379 17.7111 6.23787 17.6068 6.35195 17.5047L6.52667 17.3543C6.58011 17.3063 6.64091 17.2524 6.69419 17.199C6.80091 17.0922 6.90539 16.978 7.01211 16.8689C7.065 16.814 7.12093 16.7621 7.17963 16.7135C7.20897 16.6876 7.24156 16.6655 7.27659 16.6479C7.30587 16.631 7.33739 16.5999 7.37851 16.5945C7.35435 16.631 7.32523 16.6479 7.30091 16.6794C7.27179 16.7038 7.24747 16.7329 7.22331 16.757C7.16987 16.8105 7.10923 16.859 7.05579 16.9076C6.94171 17.0047 6.82283 17.0996 6.70875 17.2012C6.59467 17.3028 6.48795 17.4124 6.37371 17.5143C6.25003 17.6188 6.13595 17.7207 6.01691 17.8183V17.8178ZM7.46843 16.847C7.46843 16.847 6.67723 17.6214 6.51451 17.7474L7.46843 16.847Z" fill="#CFB66C"/>
<path fill-rule="evenodd" clip-rule="evenodd" d="M7.46845 16.8469C7.39727 16.9293 7.32096 17.0071 7.23997 17.0799L6.99997 17.308C6.92237 17.3856 6.84941 17.4634 6.76701 17.541C6.68205 17.6138 6.60445 17.685 6.51453 17.7522L6.74749 17.524C6.82525 17.4464 6.91021 17.381 6.99277 17.3032L7.22573 17.0751C7.30573 16.9951 7.38349 16.9173 7.46845 16.8469ZM7.50477 17.2668C7.43184 17.4703 7.3459 17.669 7.24749 17.8615C7.04365 18.2693 6.73789 18.7789 6.60429 19.0388L7.50477 17.2668Z" fill="#CFB66C"/>
<path fill-rule="evenodd" clip-rule="evenodd" d="M7.50477 17.2671C7.50477 17.3568 7.48045 17.4346 7.45133 17.5122C7.42294 17.5899 7.39058 17.666 7.35437 17.7404C7.31789 17.8132 7.27661 17.8909 7.23533 17.9613C7.19405 18.0317 7.14557 18.1044 7.10909 18.1773L6.86397 18.6093C6.77901 18.7533 6.69645 18.8981 6.60669 19.0365C6.66733 18.8812 6.74989 18.7356 6.82765 18.5924C6.91261 18.4484 6.99021 18.3044 7.06765 18.1554C7.10546 18.0812 7.13948 18.0051 7.16957 17.9274C7.20589 17.8496 7.24221 17.7769 7.27149 17.7065C7.30781 17.6289 7.33693 17.5559 7.37341 17.4856C7.41453 17.4103 7.44861 17.3375 7.50445 17.2671H7.50477Z" fill="#CFB66C"/>
<path fill-rule="evenodd" clip-rule="evenodd" d="M8.36893 19.2573C8.36893 19.2573 8.12893 19.5752 8.15293 19.9781C8.21837 19.7671 8.30093 19.4442 8.36893 19.2573ZM8.59709 19.576C8.59709 19.576 8.51213 20.44 8.44173 20.8648C8.54125 20.3738 8.56061 20.4151 8.59709 19.576ZM10.1869 20.9159C10.1869 20.9159 9.82765 21.9719 9.82029 22.2653C9.89805 21.9636 10.0485 21.3471 10.1869 20.9151V20.9159Z" fill="#DEC270"/>
<path fill-rule="evenodd" clip-rule="evenodd" d="M11.0267 19.1919C11.0267 19.1919 11.6092 20.153 12.0462 20.9733C11.928 20.5605 11.656 19.8034 11.0267 19.1919Z" fill="#CBAF59"/>
<path fill-rule="evenodd" clip-rule="evenodd" d="M12.5923 20.6069C12.9121 21.1723 13.2006 21.7549 13.4563 22.3521C13.4078 21.9394 13.2766 21.2332 12.5923 20.6069Z" fill="#E3C677"/>
<path fill-rule="evenodd" clip-rule="evenodd" d="M17.1942 22.024C17.2912 21.9633 17.483 21.6331 17.6506 21.5507C17.8179 21.4657 17.9442 21.4488 18.0947 21.2812C18.2451 21.1064 18.2867 20.9996 18.6165 20.8614C19.0778 20.6622 18.7605 20.4049 18.7605 20.4049C18.8113 20.355 18.8656 20.3088 18.923 20.2667C19.0421 20.1769 19.1803 20.0676 19.1683 19.8758C19.1514 19.5531 19.0907 19.0846 18.8261 18.8128C19.0834 18.7593 19.576 18.723 19.8821 18.6454C20.2363 18.5555 20.399 18.4292 20.399 18.4292C20.399 18.4292 20.1952 18.0822 20.5253 17.7328C20.8554 17.3833 21.1248 17.1745 21.3238 16.7836C21.0957 16.7545 20.7478 16.6332 19.8602 16.9705C19.9081 16.9931 19.9543 17.019 19.9986 17.0481C19.9986 17.0481 19.4525 17.1987 19.2534 17.3662C18.9062 17.6598 18.8626 17.9001 18.4864 18.0798C18.1102 18.2595 17.7315 18.2108 17.4186 18.3564C17.1056 18.502 17.0594 18.6259 16.9451 18.6793C16.9694 18.7084 16.9403 18.7569 16.9864 18.7982C16.9573 18.8395 16.7874 19.1161 16.615 19.1161C16.632 19.1817 16.7776 19.2302 16.7776 19.2302C16.7776 19.2302 16.6709 19.308 16.399 19.3273C16.5373 19.4713 16.6685 19.6283 17.0301 19.8564C17.001 19.9171 16.8795 20.007 16.9282 20.1211C16.9816 20.2352 17.1202 20.3905 17.6733 20.5168C17.3917 20.5288 17.0618 20.5944 16.6173 20.5337C16.1731 20.4803 16.1003 20.4488 15.8261 20.5168C15.8552 20.5459 15.9328 20.5459 16.0008 20.6235C15.928 20.6283 15.4717 20.57 15.3163 20.774C15.1538 20.9851 15.0834 21.3323 15.0955 21.5652C15.0106 21.6065 14.928 21.6793 14.9693 21.8299C15.0106 21.9804 15.2266 22.0289 15.365 22.1235C15.5032 22.2254 15.5154 22.2617 15.6466 22.2376C15.7848 22.2084 15.9886 22.0702 16.1077 22.0702C16.2267 22.0702 16.3115 22.16 16.3115 22.16C16.3115 22.16 16.6344 22.0046 16.6659 22.0337C16.695 22.0628 16.6707 22.2497 16.7022 22.2788C16.7342 22.3008 17.0979 22.0848 17.195 22.024H17.1942Z" fill="#ECD592"/>
<path fill-rule="evenodd" clip-rule="evenodd" d="M24.2501 12.3107C22.7331 8.39324 18.983 7.66748 18.983 7.66748H8.28397L8.32525 11.6577H10.456V20.568H8.28381V24.551H18.6869C21.1941 24.551 23.2038 22.0315 23.2038 22.0315C26.4222 17.4636 24.2499 12.3107 24.2499 12.3107H24.2501ZM18.7427 19.347C18.7427 19.347 17.9267 20.5243 17.0389 20.5243H15.2629L15.2208 11.6675H17.5C17.5 11.6675 18.556 11.8883 19.2937 13.978C19.2937 13.978 20.2718 16.97 18.7427 19.347Z" fill="white" fill-opacity="0.8"/>
</g>
</g>
<defs>
<clipPath id="clip0_3190_3339">
<rect width="32" height="32" fill="white"/>
</clipPath>
<clipPath id="clip1_3190_3339">
<rect width="30" height="30" fill="white" transform="translate(1 1)"/>
</clipPath>
</defs>
</svg>
