<svg width="33" height="33" viewBox="0 0 33 33" fill="none" xmlns="http://www.w3.org/2000/svg">
<path d="M0 8C0 3.58172 3.58172 0 8 0H30C31.1046 0 32 0.895431 32 2V24C32 28.4183 28.4183 32 24 32H2C0.895431 32 0 31.1046 0 30V8Z" fill="#F00500"/>
<g clip-path="url(#clip0_3287_42)">
<path d="M21.1084 7.0234C20.5358 7.61523 20.0113 8.25668 19.545 8.94066L19.3976 8.89104C18.5474 8.60398 17.6663 8.42679 16.7783 8.36654C16.5109 8.34528 15.5132 8.34528 15.1875 8.36654C14.2036 8.43388 13.4493 8.58626 12.5922 8.89458C12.558 8.90876 12.5271 8.91939 12.4962 8.93002C12.0128 8.24959 11.4746 7.61169 10.8815 7.02694C13.727 5.52078 17.056 5.34004 20.0353 6.52725C20.3541 6.65129 20.6661 6.79659 20.9712 6.95252L21.1084 7.0234Z" fill="#F00500"/>
<path d="M26.4155 20.4655C25.9835 21.7377 25.3356 22.9179 24.4956 23.9456C24.0396 24.4984 23.5357 25.0052 22.994 25.4659C21.7255 26.522 20.2444 27.2769 18.6639 27.6738C16.9154 28.1097 15.0915 28.1097 13.343 27.6738C11.7591 27.2769 10.2815 26.522 9.01298 25.4659C8.47129 25.0052 7.96732 24.4984 7.51134 23.9456C5.09432 20.9935 4.36065 16.9393 5.59144 13.2855C5.82457 12.6086 6.11599 11.9565 6.46568 11.3364C6.62682 11.0528 6.82566 10.7339 6.92166 10.6028C7.25079 12.0664 7.65533 13.3528 7.80618 13.8171C7.7959 13.8419 7.78218 13.8703 7.76847 13.8951C6.96966 15.5678 6.53768 17.1803 6.43483 18.8955C6.43483 18.9168 6.4314 18.9416 6.4314 18.9629C6.40397 19.4767 6.41768 19.7213 6.49997 20.0437C6.75709 21.0538 7.54906 22.1666 8.79013 23.2581C10.8232 25.0442 13.5796 26.3342 15.6675 26.483C17.8445 26.6354 21.0569 25.3206 23.1962 23.3998C23.5322 23.0915 23.8476 22.7655 24.1425 22.4182C24.355 22.163 24.6705 21.7236 24.6465 21.7236C24.6396 21.7236 24.6465 21.7165 24.6602 21.7094C24.6705 21.7023 24.6807 21.6917 24.6739 21.6846C24.6704 21.681 24.6773 21.6704 24.6876 21.6669C24.6979 21.6633 24.7047 21.6562 24.7013 21.6491C24.6979 21.6421 24.7013 21.635 24.715 21.6314C24.7253 21.6279 24.7287 21.6172 24.7253 21.6102C24.7219 21.6031 24.7253 21.596 24.7322 21.596C24.739 21.596 24.7459 21.5854 24.7459 21.5783C24.7459 21.5712 24.7527 21.5605 24.7596 21.5605C24.7664 21.5605 24.7733 21.5535 24.7733 21.5464C24.7836 21.518 24.8007 21.4897 24.8179 21.4649C24.8693 21.3833 25.075 21.0041 25.1024 20.9404C25.2978 20.4832 25.4213 20.0756 25.4795 19.6681C25.507 19.4732 25.5241 19.1152 25.5104 19.0302C25.507 19.016 25.507 18.9912 25.5035 18.9522C25.4967 18.8813 25.4933 18.775 25.4864 18.6687C25.4796 18.5092 25.4658 18.286 25.4556 18.1761C25.3081 16.5672 24.9104 15.2524 24.1562 13.8596C24.1253 13.8065 24.0979 13.7533 24.0808 13.7108C24.0739 13.7001 24.0705 13.6895 24.0671 13.6824C24.1733 13.3528 24.6087 11.9743 24.955 10.3972L24.9619 10.4043L25.0133 10.4752C25.1024 10.5992 25.339 10.9678 25.4453 11.145C25.9287 11.9601 26.3058 12.8354 26.5732 13.7498C27.1937 15.9505 27.1423 18.2966 26.4155 20.4655Z" fill="#F00500"/>
<path d="M21.9655 16.2305C21.9552 16.2872 21.7941 16.4573 21.6329 16.5813C21.1598 16.9392 20.313 17.2724 19.4525 17.4318C18.9622 17.524 18.4719 17.5382 18.3245 17.4637C18.2285 17.4141 18.2148 17.3751 18.2491 17.2476C18.3211 16.9818 18.5542 16.6912 18.9176 16.4183C19.1028 16.2801 19.8536 15.8087 20.2033 15.6103C20.7793 15.2842 21.2455 15.0893 21.5609 15.0432C21.6604 15.0291 21.7803 15.0255 21.8181 15.0432C21.8798 15.0681 21.9483 15.2559 21.9758 15.4827C21.9895 15.6032 21.9826 16.1348 21.9655 16.2305Z" fill="black"/>
<path d="M13.8882 17.4036C13.8676 17.4461 13.7647 17.4922 13.6482 17.5099C13.5316 17.5276 13.1751 17.517 12.9728 17.4922C12.246 17.3929 11.4746 17.1626 10.9123 16.8791C10.5969 16.7196 10.3706 16.5601 10.2026 16.3865L10.1066 16.2837L10.0964 16.149C10.0792 15.9151 10.0826 15.5465 10.1101 15.4154C10.1272 15.3056 10.1649 15.1992 10.2163 15.1036C10.2438 15.0681 10.2438 15.0681 10.3672 15.0681C10.518 15.0681 10.6449 15.0929 10.8506 15.1603C11.2723 15.2949 11.8997 15.621 12.6642 16.0959C13.295 16.4857 13.5316 16.6771 13.7133 16.9393C13.8367 17.1023 13.919 17.3327 13.8882 17.4036Z" fill="black"/>
<path d="M18.7428 22.3368C18.7428 22.3474 18.7016 22.5175 18.6502 22.7195C18.5988 22.9215 18.5576 23.0845 18.5576 23.0916C18.5199 23.0952 18.4856 23.0987 18.4479 23.0952H18.3382L18.1874 23.4637C18.1051 23.6657 18.0297 23.8536 18.0194 23.8819L17.9988 23.9315L17.9268 23.811L17.8548 23.6905V22.7089L17.8274 22.716C17.7691 22.7301 17.3543 22.7868 17.1726 22.8046C16.4217 22.8825 15.6675 22.8648 14.9201 22.755C14.8001 22.7372 14.6973 22.7231 14.6938 22.7266C14.6904 22.7301 14.6938 22.957 14.7007 23.2369L14.711 23.7402L14.6527 23.8323C14.6218 23.8819 14.591 23.9244 14.591 23.928C14.5807 23.9386 14.5464 23.8819 14.4676 23.7189C14.3818 23.5488 14.3201 23.368 14.2756 23.1802L14.2516 23.0774L14.1453 23.0845L14.039 23.0952L14.0116 22.964C13.9979 22.8932 13.9807 22.7833 13.9739 22.7231L13.9636 22.6097L13.8744 22.5281C13.823 22.4821 13.7716 22.436 13.7613 22.4289C13.7442 22.4147 13.7373 22.3899 13.7373 22.3687V22.3261L14.1659 22.3297L14.5944 22.3332L14.6081 22.3793L14.6218 22.4254L14.7693 22.4325C14.8515 22.436 15.1121 22.4431 15.3452 22.4502L15.7738 22.4608L15.8835 22.2836L15.9966 22.1064H16.1406L16.1372 21.7378L16.1338 21.3693L15.9452 21.2842C15.3384 21.0078 14.9818 20.6924 14.8481 20.3096C14.8207 20.2317 14.8207 20.2033 14.8138 19.8489C14.8104 19.4981 14.8104 19.4662 14.8344 19.3882C14.8824 19.211 15.0161 19.0728 15.1875 19.0268C15.2458 19.009 15.4001 19.009 16.2092 19.009L17.1623 19.0126L17.2685 19.0657C17.3954 19.1295 17.4537 19.1756 17.5257 19.2748C17.608 19.3882 17.632 19.4768 17.632 19.693C17.632 20.0013 17.6114 20.2671 17.5805 20.3734C17.536 20.5187 17.4674 20.657 17.3817 20.781C17.2103 21.0078 16.8983 21.2346 16.6137 21.3374L16.5314 21.3693L16.5349 21.7414L16.5383 22.1135L16.6137 22.1206L16.6892 22.1277L16.792 22.2872L16.8914 22.4466H17.3508C17.6045 22.4466 17.8274 22.4502 17.8479 22.4537C17.8822 22.4608 17.8891 22.4573 17.9234 22.397L17.9645 22.3332H18.3588C18.6536 22.319 18.7428 22.3261 18.7428 22.3368Z" fill="black"/>
<path d="M16.9325 23.3537C16.8674 23.3927 16.8228 23.4104 16.8126 23.4033C16.8023 23.3998 16.7543 23.3573 16.7028 23.3183L16.6103 23.2403L16.5143 23.3466C16.3051 23.5805 16.2983 23.5912 16.2366 23.5947C16.1406 23.6053 16.12 23.5876 16.0035 23.4069C15.9417 23.3147 15.8937 23.2368 15.8937 23.2368C15.8937 23.2368 15.8492 23.2297 15.7977 23.2261L15.7018 23.2155L15.6572 23.3112L15.6126 23.4069L15.5338 23.3821C15.472 23.3608 15.4103 23.336 15.3521 23.3077L15.2492 23.2545V23.0525L16.1612 23.056L17.0731 23.0596L17.0765 23.1553C17.08 23.2687 17.0834 23.2651 16.9325 23.3537Z" fill="black"/>
<path d="M25.5036 19.0303C25.5001 19.0161 25.5001 18.9913 25.4967 18.9523C24.6739 18.8602 22.3254 18.8035 20.145 20.664C20.145 20.664 19.4422 17.3328 16.1509 17.3328C12.8597 17.3328 11.6391 20.664 11.6391 20.664C9.79467 18.6121 7.32623 18.761 6.43485 18.8956C6.43485 18.9169 6.43142 18.9417 6.43142 18.963C6.40399 19.4768 6.4177 19.7214 6.49998 20.0439C6.75711 21.0539 7.54907 22.1667 8.79015 23.2582C10.8232 25.0443 13.5796 26.3343 15.6675 26.4832C17.8445 26.6355 21.0569 25.3207 23.1963 23.3999C23.5322 23.0916 23.8477 22.7656 24.1425 22.4183C24.3551 22.1631 24.6705 21.7237 24.6465 21.7237C24.6396 21.7237 24.6465 21.7166 24.6602 21.7095C24.6705 21.7024 24.6808 21.6918 24.6739 21.6847C24.6705 21.6811 24.6773 21.6705 24.6876 21.667C24.6979 21.6634 24.7048 21.6563 24.7013 21.6493C24.6979 21.6422 24.7013 21.6351 24.715 21.6315C24.7253 21.628 24.7288 21.6174 24.7253 21.6103C24.7219 21.6032 24.7253 21.5961 24.7322 21.5961C24.739 21.5961 24.7459 21.5855 24.7459 21.5784C24.7459 21.5713 24.7528 21.5607 24.7596 21.5607C24.7665 21.5607 24.7733 21.5536 24.7733 21.5465C24.7836 21.5181 24.8008 21.4898 24.8179 21.465C24.8693 21.3835 25.075 21.0043 25.1024 20.9405C25.2979 20.4833 25.4213 20.0758 25.4796 19.6682C25.5001 19.4733 25.5173 19.1154 25.5036 19.0303ZM16.9326 23.3539C16.8674 23.3929 16.8229 23.4106 16.8126 23.4035C16.8023 23.3999 16.7543 23.3574 16.7029 23.3184L16.6103 23.2405L16.5143 23.3468C16.3052 23.5807 16.2983 23.5913 16.2366 23.5949C16.1406 23.6055 16.1201 23.5878 16.0035 23.407C15.9418 23.3149 15.8938 23.2369 15.8938 23.2369C15.8938 23.2369 15.8492 23.2298 15.7978 23.2263L15.7018 23.2157L15.6572 23.3113L15.6127 23.407L15.5338 23.3822C15.4721 23.361 15.4104 23.3362 15.3521 23.3078L15.2492 23.2546V23.0526L16.1612 23.0562L17.0732 23.0597L17.0766 23.1554C17.08 23.2688 17.0834 23.2653 16.9326 23.3539ZM18.6468 22.716C18.5954 22.918 18.5542 23.081 18.5542 23.0881C18.5165 23.0916 18.4822 23.0952 18.4445 23.0916H18.3348L18.1874 23.4637C18.1051 23.6657 18.0297 23.8536 18.0194 23.8819L17.9988 23.9315L17.9268 23.811L17.8548 23.6905V22.7089L17.8274 22.716C17.7691 22.7301 17.3543 22.7868 17.1726 22.8046C16.4218 22.8825 15.6675 22.8648 14.9201 22.755C14.8001 22.7372 14.6973 22.7231 14.6938 22.7266C14.6904 22.7301 14.6938 22.957 14.7007 23.2369L14.711 23.7402L14.6527 23.8323C14.6219 23.8819 14.591 23.9244 14.591 23.928C14.5807 23.9386 14.5464 23.8819 14.4676 23.7189C14.3819 23.5488 14.3202 23.368 14.2756 23.1802L14.2516 23.0774L14.1453 23.0845L14.039 23.0952L14.0116 22.964C13.9979 22.8932 13.9807 22.7833 13.9739 22.7231L13.9636 22.6097L13.8745 22.5281C13.823 22.4821 13.7716 22.436 13.7613 22.4289C13.7442 22.4147 13.7373 22.3899 13.7373 22.3687V22.3261L14.1659 22.3297L14.5944 22.3332L14.6081 22.3793L14.6218 22.4254L14.7693 22.4325C14.8516 22.436 15.1121 22.4431 15.3452 22.4502L15.7738 22.4608L15.8835 22.2836L15.9966 22.1064H16.1406L16.1372 21.7378L16.1338 21.3693L15.9452 21.2842C15.3384 21.0078 14.9818 20.6924 14.8481 20.3097C14.8207 20.2317 14.8207 20.2033 14.8138 19.8489C14.8104 19.4981 14.8104 19.4662 14.8344 19.3882C14.8824 19.211 15.0161 19.0728 15.1875 19.0268C15.2458 19.009 15.4001 19.009 16.2092 19.009L17.1623 19.0126L17.2686 19.0657C17.3954 19.1295 17.4537 19.1756 17.5257 19.2748C17.608 19.3882 17.632 19.4768 17.632 19.693C17.632 20.0013 17.6114 20.2671 17.5806 20.3734C17.536 20.5187 17.4674 20.657 17.3817 20.781C17.2103 21.0078 16.8983 21.2346 16.6137 21.3374L16.5315 21.3693L16.5349 21.7414L16.5383 22.1135L16.6137 22.1206L16.6892 22.1277L16.792 22.2872L16.8914 22.4466H17.3508C17.6046 22.4466 17.8274 22.4502 17.848 22.4537C17.8823 22.4608 17.8891 22.4573 17.9234 22.397L17.9645 22.3332H18.3588C18.6639 22.3332 18.7531 22.3368 18.7531 22.3474C18.7428 22.3439 18.6982 22.5175 18.6468 22.716Z" fill="white"/>
<path d="M25.4761 18.6687C25.4693 18.5093 25.4556 18.286 25.4453 18.1761C25.2979 16.5672 24.9002 15.2524 24.1459 13.8596C24.1151 13.8065 24.0876 13.7533 24.0705 13.7108C24.0636 13.7002 24.0602 13.6895 24.0568 13.6824C24.1631 13.3529 24.5985 11.9743 24.9447 10.3972C25.4144 8.25672 25.7127 5.75472 24.8007 5.00341C24.8007 5.00341 23.2237 4.88291 21.1118 7.02344C20.5392 7.61527 20.0147 8.25672 19.5484 8.94069L19.401 8.89108C18.5508 8.60402 17.6697 8.42683 16.7817 8.36658C16.5143 8.34532 15.5166 8.34532 15.1909 8.36658C14.207 8.43391 13.4528 8.5863 12.5957 8.89462C12.5614 8.9088 12.5305 8.91943 12.4997 8.93006C12.0163 8.24963 11.478 7.61173 10.8849 7.02698C8.68729 4.87582 7.05195 4.99986 7.05195 4.99986C6.08514 5.77598 6.41427 8.39139 6.91481 10.6028C7.24394 12.0664 7.64849 13.3529 7.79934 13.8171C7.78905 13.8419 7.77534 13.8703 7.76162 13.8951C6.96281 15.5678 6.53083 17.1803 6.42798 18.8955C7.32279 18.7609 9.7878 18.6085 11.6357 20.664C11.6357 20.664 12.8562 17.3327 16.1475 17.3327C19.4387 17.3327 20.1416 20.664 20.1416 20.664C22.322 18.8034 24.6705 18.8637 25.4933 18.9522C25.4898 18.8814 25.483 18.7751 25.4761 18.6687ZM8.4473 12.4811C8.4473 12.4811 7.16508 9.1675 7.49421 7.27505C7.54906 6.9561 7.65192 6.67613 7.81305 6.4635C7.81305 6.4635 9.26669 6.61234 11.6117 9.30572C11.6117 9.30572 11.166 9.52898 10.5695 10.0039C10.5695 10.0039 10.566 10.0074 10.5626 10.0074C9.91465 10.5213 9.08498 11.3364 8.4473 12.4811ZM13.8882 17.4036C13.8676 17.4461 13.7647 17.4922 13.6482 17.5099C13.5316 17.5276 13.1751 17.517 12.9728 17.4922C12.246 17.3929 11.4746 17.1626 10.9123 16.8791C10.5969 16.7196 10.3706 16.5601 10.2026 16.3865L10.1066 16.2837L10.0964 16.149C10.0792 15.9151 10.0826 15.5465 10.1101 15.4154C10.1272 15.3056 10.1649 15.1992 10.2164 15.1036C10.2438 15.0681 10.2438 15.0681 10.3672 15.0681C10.5181 15.0681 10.6449 15.0929 10.8506 15.1603C11.2723 15.2949 11.8997 15.621 12.6642 16.0959C13.2951 16.4857 13.5316 16.6771 13.7133 16.9393C13.8367 17.1023 13.919 17.3327 13.8882 17.4036ZM21.9655 16.2305C21.9552 16.2872 21.794 16.4573 21.6329 16.5814C21.1598 16.9393 20.313 17.2724 19.4524 17.4319C18.9622 17.5241 18.4719 17.5382 18.3245 17.4638C18.2285 17.4142 18.2148 17.3752 18.2491 17.2476C18.3211 16.9818 18.5542 16.6912 18.9176 16.4184C19.1027 16.2801 19.8536 15.8088 20.2033 15.6103C20.7792 15.2843 21.2455 15.0894 21.5609 15.0433C21.6603 15.0291 21.7803 15.0256 21.818 15.0433C21.8797 15.0681 21.9483 15.2559 21.9757 15.4828C21.9895 15.6033 21.9826 16.1348 21.9655 16.2305ZM21.3963 10.0039L21.3895 10.0003C20.8135 9.52544 20.3815 9.30217 20.3815 9.30217C22.6477 6.6088 24.0499 6.45995 24.0499 6.45995C24.2042 6.67613 24.3036 6.95256 24.3585 7.27151C24.6773 9.16396 23.4397 12.4811 23.4397 12.4811C22.922 11.5278 22.226 10.6843 21.3963 10.0039Z" fill="#FFA409"/>
<path d="M24.3619 7.27152C24.0945 7.23608 22.8294 7.22899 21.3963 10.0039L21.3895 10.0003C20.8135 9.52545 20.3815 9.30218 20.3815 9.30218C22.6477 6.6088 24.0499 6.45996 24.0499 6.45996C24.2076 6.67614 24.307 6.95256 24.3619 7.27152Z" fill="#FF9300"/>
<path d="M23.4431 12.481C22.922 11.5241 22.2295 10.6842 21.3964 10.0038C22.8294 7.22892 24.0911 7.236 24.3619 7.27144C24.6808 9.16744 23.4431 12.481 23.4431 12.481Z" fill="#FF8300"/>
<path d="M24.4133 7.28212C24.3962 7.27857 24.379 7.27503 24.3619 7.27148L24.4133 7.28212Z" fill="#FF8300"/>
<path d="M11.6117 9.30218C11.6117 9.30218 11.166 9.52545 10.5695 10.0003C10.5695 10.0003 10.5661 10.0039 10.5626 10.0039C9.07813 7.22545 7.77191 7.23608 7.49078 7.27152C7.54564 6.95256 7.64849 6.6726 7.80963 6.45996C7.81305 6.45996 9.26669 6.6088 11.6117 9.30218Z" fill="#FF9300"/>
<path d="M10.5661 10.0038C9.91466 10.5212 9.08499 11.3328 8.44731 12.481C8.44731 12.481 7.16508 9.16744 7.49421 7.27144C7.77191 7.236 9.08156 7.22892 10.5661 10.0038Z" fill="#FF8300"/>
<path d="M7.49418 7.27148C7.47704 7.27503 7.45647 7.27857 7.43933 7.28212L7.49418 7.27148Z" fill="#FF8300"/>
<path d="M19.9735 14.3204C19.9735 14.3204 18.8764 14.3913 19.0136 13.5053C19.1507 12.6193 20.0078 12.513 20.2478 12.5485C20.4878 12.5839 21.4477 12.9383 21.2763 13.6825C21.1049 14.4267 20.8649 14.285 20.7278 14.3204C20.5906 14.3559 19.9735 14.3204 19.9735 14.3204Z" fill="white"/>
<path d="M11.8825 14.3204C11.8825 14.3204 10.7854 14.3913 10.9226 13.5053C11.0597 12.6193 11.9168 12.513 12.1568 12.5485C12.3968 12.5839 13.3567 12.9383 13.1853 13.6825C13.0139 14.4267 12.7739 14.285 12.6368 14.3204C12.4996 14.3559 11.8825 14.3204 11.8825 14.3204Z" fill="white"/>
</g>
<g clip-path="url(#clip1_3287_42)">
<path d="M17 21C17 18.7909 18.7909 17 21 17H32C32.5523 17 33 17.4477 33 18V29C33 31.2091 31.2091 33 29 33H18C17.4477 33 17 32.5523 17 32V21Z" fill="#5F7EDD"/>
<path d="M25.189 27.0592L22.501 25.4712L25.189 29.26L27.8794 25.4712L25.189 27.0592Z" fill="white"/>
<path d="M27.8776 24.9616L25.1888 26.5504L22.5 24.9616L25.1888 20.5L27.8776 24.9616Z" fill="white"/>
<path d="M27.8777 24.9616L25.1889 23.7392V20.5L27.8777 24.9616ZM27.8793 25.4712L25.1889 29.26V27.0592L27.8793 25.4712ZM25.1889 23.7392V26.5504L22.5009 24.9616L25.1889 23.7392Z" fill="#C1CCF7"/>
<path d="M27.8778 24.9614L25.189 26.5502V23.739L27.8778 24.9614Z" fill="#8198EE"/>
</g>
<defs>
<clipPath id="clip0_3287_42">
<rect width="22" height="23" fill="white" transform="translate(5 5)"/>
</clipPath>
<clipPath id="clip1_3287_42">
<rect width="16" height="16" fill="white" transform="translate(17 17)"/>
</clipPath>
</defs>
</svg>
