<svg width="465" height="287" viewBox="0 0 465 287" fill="none" xmlns="http://www.w3.org/2000/svg">
<g clip-path="url(#clip0_765_2620)">
<path d="M5 113.5V84.5C5 81.1863 7.68629 78.5 11 78.5H83.5214C84.8064 78.5 86.0575 78.9126 87.0905 79.6769L108.91 95.8231C109.942 96.5874 111.194 97 112.479 97H296C299.314 97 302 94.3137 302 91V80C302 76.6863 304.686 74 308 74H369C372.314 74 375 76.6863 375 80V91C375 94.3137 377.686 97 381 97H402C405.314 97 408 94.3137 408 91V80C408 76.6863 410.686 74 414 74H431.015C432.606 74 434.132 74.6321 435.257 75.7574L462.743 103.243C463.868 104.368 464.5 105.894 464.5 107.485V158C464.5 161.314 461.814 164 458.5 164H398.5C395.186 164 392.5 166.686 392.5 170V198C392.5 201.314 389.814 204 386.5 204H334C330.686 204 328 201.314 328 198V152C328 148.686 325.314 146 322 146H210.555C209.223 146 207.929 145.557 206.877 144.741L181.123 124.759C180.071 123.943 178.777 123.5 177.445 123.5H148C144.686 123.5 142 126.186 142 129.5V173.5" stroke="url(#paint0_linear_765_2620)" stroke-opacity="0.24"/>
<path d="M20.5 97V137H65L85.5 157.5V187H43V233H85.5L111.5 259H142V224H225V262H259.5L280.5 241V174.5H302V219.5L326 243.5H409" stroke="url(#paint1_linear_765_2620)" stroke-opacity="0.24"/>
<path d="M5.5 154V193L21 208.5V242.5M5.5 34.5H49V11H88V34.5L113.5 60H150V11H193L220.5 38.5V11H272.5V38.5H301V11H326.5L350 34.5H389V54.5H465V11" stroke="url(#paint2_linear_765_2620)" stroke-opacity="0.24"/>
<rect x="5.5" y="42" width="8" height="8" fill="white" fill-opacity="0.24"/>
<rect x="157.5" y="42" width="8" height="8" fill="white" fill-opacity="0.24"/>
<rect x="373.5" y="42" width="8" height="8" fill="white" fill-opacity="0.24"/>
<rect x="373.5" y="107" width="8" height="8" fill="white" fill-opacity="0.24"/>
<rect x="449.5" y="147" width="8" height="8" fill="white" fill-opacity="0.24"/>
<rect x="337.5" y="189" width="8" height="8" fill="white" fill-opacity="0.24"/>
<rect x="27.5" y="123" width="8" height="8" fill="white" fill-opacity="0.24"/>
<rect x="50.5" y="219" width="8" height="8" fill="white" fill-opacity="0.24"/>
<rect x="277.5" y="254" width="8" height="8" fill="white" fill-opacity="0.24"/>
<rect x="426.5" y="236" width="8" height="8" fill="white" fill-opacity="0.24"/>
<rect x="449.5" y="236" width="8" height="8" fill="white" fill-opacity="0.24"/>
<path d="M258.688 45.3314C264.238 44.147 269.261 45.3404 273.73 48.793C278.895 52.7841 284.019 56.8238 289.153 60.8523C294.664 65.1769 300.159 69.5249 305.674 73.8486C311.126 78.123 316.602 82.3636 322.049 86.6409C327.498 90.9161 333.018 95.1053 338.329 99.5444C341.935 102.559 343.439 106.608 342.822 111.356C342.615 112.941 342.475 114.536 342.324 116.127C342.016 119.324 340.695 122.027 338.41 124.272C333.821 128.783 329.241 133.302 324.64 137.797C324.09 138.334 323.676 138.717 324.53 139.356C324.934 139.66 324.859 140.216 324.733 140.705C324.498 141.601 323.898 142.248 323.265 142.867C319.038 147 314.807 151.132 310.568 155.255C310.171 155.642 309.739 156.008 309.272 156.306C308.606 156.729 307.884 156.797 307.294 156.173C306.722 155.569 306.339 155.686 305.773 156.246C298.377 163.544 290.958 170.816 283.539 178.092C262.116 199.099 240.694 220.105 219.268 241.111C215.561 244.746 211.849 248.378 208.141 252.015C203.086 256.967 194.361 258.078 188.167 254.612C185.347 253.034 182.954 250.887 180.411 248.942C176.98 246.314 173.623 243.585 170.22 240.917C165.177 236.966 160.119 233.037 155.069 229.093C151.062 225.964 147.057 222.832 143.058 219.695C138.143 215.84 133.23 211.982 128.324 208.116C125.715 206.061 123.018 204.102 120.541 201.895C117.061 198.797 115.525 194.856 116.132 190.157C116.336 188.573 116.483 186.98 116.632 185.388C116.936 182.146 118.294 179.429 120.614 177.155C139.697 158.451 158.774 139.738 177.852 121.028C198.467 100.808 219.083 80.5871 239.698 60.3678C243.375 56.7599 247.054 53.1532 250.742 49.5569C252.847 47.5022 255.308 46.0786 258.206 45.4623C258.232 45.5648 258.255 45.666 258.28 45.7684C255.577 46.6067 253.118 47.8317 251.061 49.8568C241.675 59.0987 232.248 68.2995 222.841 77.5202C204.54 95.4618 186.243 113.409 167.94 131.35C152.317 146.66 136.683 161.956 121.07 177.275C117.642 180.638 116.262 184.656 117.459 189.418C117.514 189.634 117.799 189.916 117.407 190.118C117.271 189.929 117.134 189.742 116.998 189.553C117.028 189.298 116.822 189.117 116.667 189.178C116.372 189.295 116.634 189.569 116.618 189.773C115.675 194.221 118.247 200.706 121.495 201.983C121.63 200.791 121.689 199.591 121.927 198.43C122.154 197.319 121.753 196.637 120.96 195.883C119.289 194.287 117.838 192.496 117.407 190.109C117.945 190.173 117.855 190.681 117.992 190.994C118.835 192.93 120.005 194.653 121.625 195.989C124.215 198.129 126.892 200.168 129.539 202.238C134.491 206.112 139.455 209.97 144.402 213.847C148.874 217.351 153.33 220.877 157.803 224.383C162.753 228.261 167.712 232.122 172.664 235.996C177.552 239.816 182.353 243.757 187.344 247.44C193.541 252.013 203.121 251.194 208.494 245.908C221.074 233.537 233.676 221.19 246.274 208.835C264.884 190.588 283.497 172.345 302.11 154.102C314.311 142.144 326.523 130.196 338.705 118.218C343.534 113.469 343.829 106.661 339.567 101.395C338.394 99.9438 336.925 98.8561 335.478 97.7228C329.898 93.3571 324.322 88.9853 318.743 84.6197C313.884 80.8195 309.021 77.0275 304.167 73.2245C299.63 69.6693 295.103 66.103 290.572 62.5429C285.567 58.6089 280.57 54.6658 275.554 50.745C273.476 49.1204 271.454 47.4171 268.917 46.477C265.6 45.2455 262.218 45.0973 258.766 45.6293C258.739 45.5309 258.711 45.4326 258.684 45.3322L258.688 45.3314ZM323.347 139.153C323.167 138.364 322.642 138.018 321.859 138.001C322.034 137.319 322.61 137.586 322.79 137.796C323.487 138.602 323.89 137.977 324.318 137.557C328.489 133.48 332.575 129.309 336.85 125.345C338.848 123.491 338.043 121.217 338.537 119.148C330.708 126.673 323.013 134.229 315.312 141.778C295.085 161.602 274.856 181.419 254.632 201.244C239.883 215.699 225.191 230.215 210.334 244.557C208.206 246.612 208.678 248.897 208.071 251.483C220.968 238.839 233.581 226.474 246.197 214.11C265.915 194.783 285.63 175.452 305.373 156.148C305.99 155.548 306.077 155.063 305.738 154.377C306.365 154.438 306.434 155.254 307.132 155.397C307.201 154.823 307.418 154.315 307.756 153.896C308.418 153.075 307.711 152.751 307.217 152.428C306.498 151.957 306.541 152.812 306.255 153.081C305.881 153.429 306.197 154.07 305.742 154.402C305.391 153.048 306.308 152.238 307.105 151.446C309.876 148.685 312.693 145.966 315.494 143.235C317.124 141.647 318.737 140.043 320.405 138.497C320.781 138.151 321.175 137.475 321.899 137.991C321.407 138.324 320.855 138.595 320.437 139.003C316.215 143.112 312.025 147.253 307.79 151.351C307.368 151.76 307.37 151.873 307.726 152.33C308.411 153.208 308.808 152.672 309.302 152.189C313.425 148.147 317.551 144.108 321.684 140.077C322.157 139.615 322.608 139.061 323.39 139.143C322.99 139.824 322.217 140.056 321.681 140.599C319.693 142.617 317.639 144.568 315.616 146.552C313.223 148.9 310.812 151.228 308.474 153.629C307.866 154.254 306.998 155.248 307.83 156.016C308.592 156.715 309.424 155.776 310.05 155.178C311.779 153.523 313.486 151.843 315.197 150.172C317.968 147.467 320.748 144.774 323.497 142.051C324.733 140.826 324.655 139.885 323.351 139.153L323.347 139.153ZM185.441 252.315C185.608 250.806 185.694 249.449 185.932 248.12C186.074 247.331 185.825 246.851 185.243 246.398C179.912 242.236 174.59 238.063 169.264 233.896C164.694 230.32 160.125 226.749 155.553 223.178C151.044 219.656 146.522 216.146 142.019 212.614C138.651 209.974 135.309 207.299 131.942 204.656C128.833 202.219 125.704 199.807 122.447 197.276C122.262 199.001 122.105 200.577 121.918 202.149C121.87 202.553 122.113 202.719 122.365 202.917C128.161 207.458 133.952 212.005 139.755 216.542C146.281 221.646 152.821 226.73 159.343 231.836C168.004 238.619 176.652 245.413 185.445 252.314L185.441 252.315ZM186.418 247.409C186.241 248.931 186.108 250.355 185.893 251.767C185.786 252.47 186.048 252.884 186.591 253.265C187.85 254.151 189.23 254.799 190.679 255.25C196.51 257.065 201.966 256.428 206.874 252.588C207.201 252.332 207.651 252.132 207.706 251.636C207.884 250.071 208.047 248.504 208.223 246.867C201.047 252.016 193.873 252.056 186.415 247.41L186.418 247.409ZM342.023 114.595C339.995 117.135 338.174 119.753 338.768 123.298C340.991 120.811 341.97 117.893 342.023 114.595Z" fill="#010101"/>
<path d="M258.208 45.4635C258.369 45.4203 258.528 45.3758 258.688 45.3347C258.716 45.433 258.744 45.5313 258.77 45.6317C258.607 45.6791 258.444 45.7244 258.283 45.773C258.258 45.6705 258.234 45.5693 258.209 45.4668L258.208 45.4635Z" fill="#010101"/>
<path d="M264.829 250.043C264.755 250.11 264.67 250.236 264.585 250.084C264.566 250.05 264.704 249.925 264.77 249.844C264.793 249.908 264.813 249.977 264.829 250.043Z" fill="white"/>
<path d="M258.283 45.7676C258.447 45.7203 258.609 45.675 258.771 45.6264C262.223 45.0945 265.604 45.2426 268.921 46.4742C271.457 47.4163 273.48 49.1175 275.558 50.7421C280.575 54.663 285.571 58.606 290.577 62.5401C295.108 66.1002 299.635 69.6664 304.172 73.2216C309.025 77.0247 313.891 80.8179 318.747 84.6168C324.327 88.9824 329.903 93.3543 335.482 97.7199C336.929 98.85 338.396 99.9397 339.571 101.392C343.832 106.66 343.537 113.468 338.71 118.215C326.527 130.193 314.314 142.139 302.114 154.1C283.504 172.344 264.889 190.585 246.279 208.832C233.682 221.185 221.078 233.534 208.498 245.905C203.124 251.19 193.544 252.009 187.349 247.437C182.358 243.754 177.557 239.817 172.668 235.993C167.715 232.121 162.757 228.258 157.808 224.38C153.336 220.876 148.88 217.35 144.407 213.844C139.457 209.966 134.495 206.109 129.544 202.235C126.894 200.164 124.22 198.126 121.629 195.986C120.013 194.649 118.84 192.927 117.996 190.991C117.859 190.678 117.95 190.17 117.412 190.106L117.414 190.116C117.806 189.915 117.521 189.632 117.466 189.416C116.27 184.652 117.65 180.634 121.076 177.274C136.688 161.953 152.323 146.659 167.946 131.348C186.25 113.408 204.546 95.4602 222.848 77.5186C232.255 68.2979 241.679 59.0958 251.067 49.8552C253.124 47.8301 255.583 46.6051 258.287 45.7668L258.283 45.7676ZM122.47 181.072C119.729 185.421 120.424 190.431 124.11 193.604C127.445 196.475 130.98 199.115 134.446 201.835C141.031 207.005 147.628 212.157 154.218 217.319C160.241 222.034 166.262 226.751 172.284 231.468C177.739 235.742 183.249 239.944 188.631 244.306C193.552 248.296 201.134 248.117 205.661 243.689C215.544 234.025 225.418 224.349 235.291 214.673C255.297 195.067 275.297 175.455 295.304 155.85C308.805 142.621 322.309 129.396 335.817 116.174C339.998 112.082 339.87 105.733 335.345 101.977C330.972 98.3462 326.45 94.8927 321.979 91.3827C315.9 86.6088 309.804 81.8551 303.721 77.0894C298.235 72.7918 292.755 68.4839 287.268 64.1883C281.749 59.8674 276.172 55.6186 270.715 51.2208C266.075 47.4791 258.417 47.6542 254.134 51.7902C251.834 54.0119 249.556 56.2546 247.274 58.4949C224.45 80.8751 201.627 103.259 178.799 125.636C161.846 142.253 144.882 158.854 127.943 175.481C125.952 177.434 123.785 179.232 122.468 181.071L122.47 181.072Z" fill="white"/>
<path d="M305.733 154.377C306.072 155.063 305.986 155.545 305.369 156.146C285.626 175.449 265.912 194.778 246.192 214.107C233.577 226.471 220.966 238.838 208.067 251.481C208.673 248.896 208.201 246.611 210.33 244.554C225.187 230.212 239.879 215.697 254.627 201.242C274.854 181.418 295.083 161.6 315.307 141.775C323.009 134.227 330.705 126.669 338.533 119.145C338.037 121.217 338.846 123.489 336.845 125.343C332.571 129.307 328.485 133.478 324.314 137.555C323.886 137.974 323.483 138.6 322.786 137.793C322.605 137.585 322.029 137.319 321.855 137.998L321.889 137.988C321.164 137.471 320.769 138.146 320.396 138.494C318.73 140.041 317.114 141.644 315.484 143.232C312.683 145.963 309.868 148.68 307.095 151.443C306.299 152.235 305.382 153.045 305.733 154.4L305.727 154.376L305.733 154.377Z" fill="#5C6E89"/>
<path d="M185.44 252.317C176.646 245.418 167.997 238.62 159.338 231.839C152.816 226.733 146.276 221.649 139.75 216.545C133.95 212.01 128.157 207.462 122.36 202.92C122.106 202.721 121.863 202.555 121.913 202.152C122.101 200.58 122.257 199.004 122.442 197.279C125.702 199.81 128.83 202.221 131.938 204.659C135.306 207.3 138.646 209.977 142.014 212.618C146.519 216.147 151.037 219.658 155.549 223.181C160.121 226.752 164.692 230.325 169.259 233.899C174.585 238.066 179.907 242.239 185.238 246.401C185.82 246.854 186.07 247.334 185.928 248.123C185.689 249.453 185.605 250.811 185.437 252.318L185.44 252.317ZM148.074 218.488C147.558 218.16 147.118 217.725 146.589 218.139C146.086 218.533 146.111 219.139 146.26 219.693C146.416 220.277 146.72 220.77 147.224 221.164C150.157 223.455 153.064 225.78 155.995 228.072C156.475 228.446 157.034 229.063 157.683 228.496C158.322 227.937 158.096 227.165 157.784 226.495C157.636 226.181 157.402 225.871 157.13 225.656C154.095 223.236 151.042 220.837 148.073 218.49L148.074 218.488ZM173.316 238.359C173.02 238.259 172.537 238.062 172.144 238.638C171.693 239.299 172.159 240.892 172.973 241.398C173.418 241.675 173.879 241.728 174.25 241.253C174.761 240.599 174.346 239.08 173.32 238.358L173.316 238.359ZM130.838 208.27C131.218 208.488 131.707 208.595 132.093 208.055C132.558 207.402 132.066 205.777 131.26 205.296C130.758 204.995 130.271 204.965 129.921 205.538C129.492 206.244 129.926 207.656 130.838 208.27ZM166.239 232.813C165.707 232.494 165.258 232.529 164.948 233.126C164.548 233.889 165.011 235.226 165.825 235.755C166.351 236.095 166.818 236.077 167.163 235.543C167.617 234.838 167.077 233.308 166.238 232.815L166.239 232.813ZM137.961 213.869C138.485 214.194 138.941 214.18 139.274 213.596C139.695 212.858 139.248 211.494 138.434 210.957C137.923 210.62 137.439 210.606 137.073 211.119C136.606 211.77 137.146 213.371 137.959 213.868L137.961 213.869ZM176.976 241.238C176.443 240.961 175.987 240.958 175.675 241.571C175.301 242.302 175.777 243.734 176.573 244.209C177.079 244.512 177.57 244.542 177.914 243.968C178.346 243.248 177.806 241.703 176.978 241.239L176.976 241.238ZM127.26 205.437C127.789 205.752 128.246 205.741 128.556 205.135C128.96 204.35 128.404 202.892 127.541 202.44C127.048 202.181 126.624 202.198 126.319 202.725C125.89 203.473 126.403 204.956 127.258 205.439L127.26 205.437ZM169.442 238.557C169.957 238.891 170.42 238.893 170.753 238.309C171.169 237.579 170.626 236.049 169.807 235.589C169.308 235.307 168.868 235.378 168.551 235.833C168.071 236.525 168.588 238.047 169.441 238.559L169.442 238.557ZM134.718 208.063C134.334 207.865 133.85 207.744 133.493 208.336C133.057 209.057 133.562 210.585 134.385 211.08C134.861 211.368 135.321 211.328 135.659 210.885C136.15 210.245 135.653 208.666 134.718 208.063Z" fill="white"/>
<path d="M186.417 247.411C193.875 252.057 201.049 252.017 208.225 246.868C208.049 248.505 207.886 250.072 207.708 251.638C207.651 252.132 207.201 252.336 206.876 252.589C201.968 256.429 196.512 257.066 190.681 255.251C189.232 254.8 187.851 254.154 186.593 253.267C186.048 252.884 185.788 252.471 185.895 251.768C186.11 250.356 186.243 248.932 186.42 247.41L186.417 247.411Z" fill="#5C6E89"/>
<path d="M323.346 139.155C324.653 139.887 324.73 140.83 323.493 142.054C320.744 144.777 317.963 147.47 315.192 150.174C313.478 151.847 311.774 153.526 310.045 155.181C309.419 155.778 308.587 156.718 307.825 156.019C306.992 155.253 307.861 154.257 308.469 153.632C310.807 151.231 313.218 148.903 315.611 146.555C317.632 144.57 319.688 142.62 321.676 140.601C322.21 140.058 322.985 139.826 323.386 139.146L323.348 139.157L323.346 139.155Z" fill="#5C6E89"/>
<path d="M323.384 139.145C322.601 139.062 322.15 139.617 321.677 140.079C317.545 144.109 313.418 148.149 309.296 152.191C308.803 152.675 308.404 153.21 307.72 152.332C307.363 151.875 307.361 151.761 307.783 151.352C312.018 147.255 316.209 143.113 320.43 139.005C320.849 138.597 321.403 138.327 321.895 137.992L321.861 138.002C322.641 138.018 323.165 138.366 323.349 139.155L323.387 139.144L323.384 139.145Z" fill="white"/>
<path d="M117.407 190.11C117.837 192.496 119.285 194.288 120.96 195.883C121.755 196.639 122.154 197.319 121.926 198.43C121.69 199.593 121.632 200.792 121.494 201.983C118.248 200.704 115.675 194.221 116.617 189.773C116.743 189.7 116.872 189.626 116.998 189.553C117.134 189.742 117.271 189.929 117.409 190.119L117.407 190.11Z" fill="#5C6E89"/>
<path d="M342.023 114.595C341.97 117.893 340.991 120.811 338.768 123.298C338.174 119.753 339.994 117.137 342.023 114.595Z" fill="#5C6E89"/>
<path d="M305.738 154.4C306.194 154.068 305.877 153.426 306.25 153.078C306.537 152.813 306.492 151.956 307.213 152.426C307.704 152.748 308.414 153.073 307.752 153.893C307.414 154.313 307.196 154.817 307.128 155.395C306.43 155.252 306.359 154.438 305.732 154.377L305.738 154.4Z" fill="#5C6E89"/>
<path d="M116.618 189.773C116.632 189.568 116.372 189.295 116.667 189.178C116.824 189.115 117.028 189.298 116.998 189.553C116.872 189.626 116.743 189.7 116.618 189.773Z" fill="#5C6E89"/>
<path d="M122.468 181.071C123.785 179.232 125.952 177.434 127.943 175.481C144.879 158.852 161.848 142.251 178.799 125.636C201.627 103.259 224.45 80.8751 247.274 58.4949C249.557 56.258 251.834 54.0119 254.134 51.7902C258.417 47.6542 266.075 47.4791 270.715 51.2208C276.172 55.6187 281.749 59.8674 287.268 64.1883C292.755 68.4839 298.235 72.7918 303.721 77.0894C309.806 81.8563 315.9 86.6088 321.979 91.3827C326.449 94.8947 330.971 98.3483 335.345 101.977C339.87 105.733 339.998 112.082 335.817 116.174C322.309 129.396 308.805 142.621 295.304 155.85C275.297 175.455 255.297 195.067 235.291 214.673C225.418 224.349 215.544 234.025 205.661 243.689C201.134 248.117 193.55 248.294 188.631 244.306C183.249 239.944 177.738 235.739 172.284 231.468C166.262 226.751 160.241 222.034 154.218 217.319C147.627 212.159 141.031 207.005 134.446 201.835C130.983 199.114 127.445 196.475 124.11 193.604C120.422 190.43 119.73 185.419 122.47 181.072L122.468 181.071ZM194.216 230.418C197.277 232.189 200.118 232.641 203.076 231.861C206.496 230.958 209 228.933 209.727 225.334C210.43 221.868 208.95 219.193 206.235 217.082C201.968 213.764 197.726 210.415 193.476 207.078C187.494 202.379 181.52 197.668 175.533 192.977C168.346 187.348 161.14 181.74 153.956 176.107C150.815 173.643 147.317 172.949 143.546 174.138C140.36 175.142 138.074 177.226 137.491 180.648C136.916 184.013 138.33 186.634 140.976 188.692C145.243 192.009 149.488 195.354 153.74 198.692C159.283 203.043 164.816 207.406 170.362 211.754C175.404 215.707 180.458 219.643 185.504 223.59C188.531 225.957 191.55 228.333 194.212 230.421L194.216 230.418ZM177.802 228.942C178.175 229.103 178.557 229.68 178.932 229.144C179.253 228.683 178.556 228.56 178.362 228.254C178.319 228.189 178.251 228.139 178.188 228.09C173.305 224.269 168.417 220.454 163.538 216.627C158.501 212.676 153.475 208.71 148.437 204.765C146.484 203.236 144.506 201.734 142.54 200.222C142.287 200.027 142.002 199.787 141.709 200.127C141.36 200.532 141.797 200.678 142.017 200.859C143.257 201.87 144.494 202.885 145.753 203.868C152.431 209.098 159.117 214.318 165.8 219.544C169.802 222.675 173.804 225.808 177.805 228.941L177.802 228.942ZM297.107 78.5254C296.969 78.4506 296.7 78.2681 296.405 78.1549C295.471 77.798 294.201 78.2038 293.775 79.0259C293.3 79.9371 293.533 80.7561 294.311 81.3725C297.283 83.734 300.262 86.0832 303.259 88.4122C304.213 89.1551 305.712 88.9784 306.42 88.1183C307.096 87.2978 306.952 86.1836 305.946 85.3902C303.062 83.1123 300.143 80.8781 297.108 78.5233L297.107 78.5254ZM289.36 77.5163C290.392 78.0947 291.894 77.7541 292.449 76.818C292.962 75.9499 292.602 74.787 291.65 74.2485C290.605 73.656 289.093 73.985 288.548 74.9273C288.066 75.7633 288.457 77.0097 289.361 77.5196L289.36 77.5163Z" fill="#010101"/>
<path d="M148.074 218.488C151.045 220.832 154.096 223.234 157.131 225.653C157.402 225.87 157.638 226.179 157.785 226.493C158.097 227.163 158.323 227.935 157.684 228.494C157.035 229.06 156.478 228.445 155.997 228.07C153.064 225.779 150.157 223.454 147.225 221.162C146.721 220.767 146.419 220.272 146.261 219.69C146.113 219.136 146.086 218.529 146.59 218.137C147.119 217.722 147.559 218.157 148.075 218.486L148.074 218.488Z" fill="#010101"/>
<path d="M173.316 238.359C174.343 239.081 174.758 240.6 174.247 241.253C173.877 241.727 173.417 241.677 172.97 241.398C172.157 240.89 171.69 239.3 172.141 238.638C172.533 238.063 173.015 238.261 173.313 238.36L173.316 238.359Z" fill="#010101"/>
<path d="M130.838 208.269C129.926 207.656 129.492 206.243 129.921 205.538C130.269 204.963 130.759 204.995 131.261 205.296C132.064 205.776 132.558 207.402 132.093 208.055C131.708 208.595 131.218 208.488 130.838 208.269Z" fill="#010101"/>
<path d="M166.243 232.812C167.081 233.305 167.62 234.837 167.168 235.54C166.822 236.073 166.356 236.092 165.83 235.752C165.015 235.225 164.555 233.887 164.952 233.123C165.263 232.526 165.711 232.491 166.244 232.81L166.243 232.812Z" fill="#010101"/>
<path d="M137.965 213.868C137.151 213.371 136.613 211.772 137.078 211.119C137.445 210.606 137.928 210.62 138.439 210.957C139.253 211.494 139.7 212.859 139.279 213.597C138.946 214.18 138.488 214.193 137.965 213.868Z" fill="#010101"/>
<path d="M176.982 241.238C177.809 241.702 178.348 243.245 177.917 243.967C177.571 244.539 177.085 244.51 176.576 244.208C175.782 243.734 175.307 242.302 175.678 241.57C175.992 240.958 176.449 240.961 176.982 241.238Z" fill="#010101"/>
<path d="M127.264 205.434C126.411 204.952 125.895 203.47 126.326 202.724C126.629 202.195 127.052 202.178 127.548 202.438C128.41 202.892 128.966 204.35 128.563 205.133C128.251 205.738 127.793 205.751 127.264 205.434Z" fill="#010101"/>
<path d="M169.444 238.553C168.591 238.043 168.075 236.518 168.554 235.829C168.87 235.37 169.312 235.3 169.81 235.584C170.629 236.048 171.174 237.576 170.756 238.305C170.423 238.888 169.96 238.887 169.444 238.553Z" fill="#010101"/>
<path d="M134.721 208.062C135.658 208.666 136.154 210.248 135.662 210.884C135.323 211.323 134.865 211.365 134.388 211.079C133.565 210.584 133.06 209.056 133.496 208.335C133.853 207.743 134.338 207.862 134.721 208.062Z" fill="#010101"/>
<path d="M194.216 230.418C191.554 228.331 188.533 225.953 185.508 223.587C180.463 219.64 175.409 215.703 170.366 211.752C164.821 207.404 159.286 203.043 153.744 198.689C149.493 195.351 145.248 192.006 140.98 188.69C138.335 186.635 136.921 184.014 137.495 180.645C138.078 177.223 140.363 175.142 143.551 174.135C147.321 172.946 150.82 173.64 153.96 176.104C161.144 181.738 168.348 187.344 175.537 192.975C181.525 197.666 187.498 202.376 193.481 207.075C197.729 210.414 201.971 213.763 206.239 217.08C208.954 219.191 210.433 221.868 209.732 225.331C209.002 228.929 206.501 230.955 203.08 231.858C200.122 232.638 197.284 232.188 194.221 230.415L194.216 230.418ZM171.595 202.191C170.676 202.561 169.827 202.262 169.594 201.48C169.388 200.784 169.976 199.905 170.808 199.668C171.699 199.413 172.662 199.908 172.715 200.77C172.744 201.243 172.828 201.685 173.26 201.595C173.798 201.481 173.668 200.896 173.554 200.484C173.25 199.386 171.728 198.601 170.524 198.951C169.534 199.238 168.788 199.859 168.711 200.946C168.636 201.972 169.312 202.538 170.191 202.904C170.363 202.977 170.648 202.859 170.704 203.107C170.801 203.531 170.916 203.997 171.428 203.564C171.884 203.179 172.623 202.9 172.515 202.12C172.433 201.544 171.825 201.391 171.414 201.094C171.367 201.06 171.158 201.145 171.12 201.221C170.872 201.735 171.692 201.732 171.592 202.187L171.595 202.191ZM174.822 205.52C174.592 204.942 174.203 205.028 173.857 204.982C173.406 204.923 173.149 204.627 173.075 204.2C173.054 204.08 173.175 203.844 173.27 203.817C173.642 203.718 173.793 204.091 174.043 204.259C174.142 204.324 174.213 204.443 174.317 204.486C174.701 204.651 174.994 205.371 175.505 204.814C176.001 204.272 175.955 203.623 175.439 203.095C174.733 202.373 173.896 202.288 173.047 202.813C172.351 203.242 172.055 203.918 172.458 204.657C172.946 205.548 173.741 205.89 174.827 205.517L174.822 205.52ZM175.643 205.982C175.345 206.317 175.252 206.694 175.508 207.08C175.703 207.372 175.947 207.773 176.344 207.619C176.907 207.399 176.35 207.147 176.295 206.894C176.155 206.284 177.069 205.59 177.753 205.799C177.956 205.859 178.119 205.958 178.287 205.786C178.474 205.598 178.372 205.436 178.21 205.285C178.066 205.152 177.874 204.999 178.05 204.791C178.316 204.477 178.475 203.954 177.992 204.045C177.465 204.145 176.392 204.208 176.436 204.432C176.605 205.265 176.022 205.537 175.643 205.982Z" fill="#ACDA2A"/>
<path d="M177.802 228.942C173.8 225.809 169.8 222.674 165.796 219.545C159.114 214.318 152.428 209.098 145.75 203.869C144.49 202.883 143.253 201.871 142.014 200.86C141.794 200.679 141.358 200.534 141.705 200.128C141.998 199.787 142.284 200.027 142.537 200.223C144.506 201.734 146.482 203.235 148.434 204.766C153.474 208.713 158.499 212.678 163.534 216.628C168.413 220.454 173.302 224.27 178.184 228.091C178.247 228.14 178.318 228.191 178.358 228.255C178.551 228.563 179.249 228.684 178.928 229.145C178.556 229.682 178.172 229.101 177.798 228.943L177.802 228.942Z" fill="white"/>
<path d="M297.107 78.5254C300.143 80.8781 303.06 83.1144 305.945 85.3922C306.95 86.1856 307.095 87.2999 306.419 88.1204C305.711 88.9804 304.213 89.1551 303.257 88.4143C300.26 86.0853 297.279 83.7348 294.31 81.3745C293.533 80.7561 293.299 79.9392 293.774 79.028C294.201 78.2038 295.469 77.8001 296.404 78.1569C296.698 78.2702 296.968 78.4527 297.105 78.5274L297.107 78.5254ZM303.351 87.9617C304.501 88.6879 305.608 88.5921 306.134 87.7541C306.804 86.688 306.121 86.1008 305.326 85.4938C303.552 84.1344 301.829 82.7045 300.069 81.3257C298.904 80.4137 297.757 79.4696 296.511 78.6774C295.678 78.1483 294.733 78.3706 294.177 79.1932C293.681 79.9309 294.009 80.6214 294.701 81.1607C297.628 83.4474 300.543 85.7526 303.349 87.9605L303.351 87.9617Z" fill="white"/>
<path d="M289.358 77.515C288.455 77.0084 288.063 75.7588 288.546 74.9228C289.089 73.9825 290.602 73.6514 291.648 74.244C292.598 74.7846 292.959 75.9453 292.446 76.8135C291.893 77.7508 290.389 78.0901 289.357 77.5117L289.358 77.515ZM289.36 76.9903C290.459 77.6346 291.619 77.3854 292.062 76.5418C292.494 75.7147 292.203 75.0747 291.458 74.6186C290.605 74.0944 289.341 74.3656 288.938 75.1767C288.531 75.994 288.825 76.6332 289.362 76.9916L289.36 76.9903Z" fill="white"/>
<path d="M171.594 202.193C171.692 201.737 170.873 201.743 171.122 201.227C171.16 201.151 171.369 201.067 171.416 201.101C171.828 201.395 172.436 201.549 172.517 202.126C172.627 202.907 171.887 203.183 171.43 203.571C170.918 204.004 170.803 203.538 170.706 203.113C170.648 202.864 170.366 202.981 170.193 202.91C169.315 202.542 168.637 201.975 168.713 200.952C168.791 199.863 169.538 199.243 170.526 198.957C171.73 198.608 173.252 199.393 173.556 200.491C173.67 200.903 173.8 201.487 173.262 201.601C172.83 201.692 172.746 201.25 172.717 200.776C172.662 199.913 171.701 199.419 170.81 199.674C169.976 199.913 169.39 200.79 169.596 201.486C169.828 202.27 170.678 202.568 171.597 202.197L171.594 202.193Z" fill="white"/>
<path d="M174.821 205.522C173.737 205.896 172.941 205.553 172.453 204.661C172.048 203.925 172.346 203.247 173.041 202.818C173.892 202.294 174.728 202.377 175.433 203.099C175.949 203.628 175.995 204.277 175.5 204.818C174.988 205.376 174.695 204.656 174.311 204.491C174.205 204.447 174.136 204.329 174.038 204.264C173.788 204.096 173.638 203.724 173.264 203.822C173.167 203.847 173.049 204.085 173.069 204.204C173.143 204.632 173.403 204.927 173.851 204.986C174.195 205.031 174.586 204.947 174.817 205.525L174.821 205.522Z" fill="white"/>
<path d="M175.641 205.984C176.021 205.538 176.601 205.267 176.435 204.433C176.391 204.21 177.464 204.147 177.991 204.046C178.474 203.955 178.316 204.482 178.049 204.793C177.873 205.001 178.064 205.15 178.209 205.286C178.37 205.434 178.472 205.597 178.286 205.788C178.119 205.957 177.955 205.861 177.752 205.8C177.066 205.591 176.154 206.286 176.294 206.896C176.353 207.148 176.909 207.4 176.343 207.62C175.945 207.776 175.7 207.376 175.507 207.081C175.251 206.696 175.343 206.319 175.641 205.984Z" fill="white"/>
<path d="M303.351 87.9617C300.545 85.7539 297.63 83.4487 294.703 81.162C294.01 80.6194 293.683 79.9322 294.179 79.1945C294.735 78.3686 295.681 78.1475 296.513 78.6787C297.757 79.4696 298.907 80.415 300.071 81.327C301.831 82.7058 303.554 84.1356 305.329 85.4951C306.122 86.1041 306.806 86.6892 306.136 87.7554C305.61 88.5933 304.503 88.6892 303.353 87.963L303.351 87.9617Z" fill="#010101"/>
<path d="M289.362 76.9916C288.825 76.6331 288.531 75.994 288.938 75.1767C289.341 74.3656 290.604 74.0944 291.458 74.6186C292.203 75.0747 292.493 75.7167 292.062 76.5418C291.621 77.3866 290.457 77.6367 289.36 76.9903L289.362 76.9916Z" fill="#010101"/>
<path d="M286.822 135.768C275.81 151.895 261.611 162.916 243.16 168.085C236.97 169.82 230.632 170.32 224.343 168.327C220.757 167.192 217.948 165.041 215.625 162.02C213.883 159.751 211.704 157.804 209.619 155.819C207.257 153.566 205.985 150.809 205.494 147.652C204.601 141.939 206.061 136.62 208.469 131.539C213.748 120.391 222.124 111.945 232.1 104.966C239.334 99.9084 247.162 96.0784 255.818 94.1215C261.744 92.7815 267.687 92.3738 273.584 94.3242C276.47 95.2782 278.904 96.9044 280.933 99.1968C282.243 100.678 283.667 102.073 285.15 103.38C292.941 110.238 293.996 118.557 290.433 127.82C289.337 130.671 287.909 133.397 286.822 135.768ZM285.907 135.708C288.522 131.247 290.672 126.606 291.442 121.432C292.989 111.066 287.598 103.802 277.216 102.285C271.331 101.426 265.586 102.284 260.012 104.107C243.617 109.472 230.5 119.32 220.699 133.501C217.181 138.591 214.712 144.184 213.947 150.418C212.851 159.336 217.508 166.094 226.253 168.168C230.905 169.273 235.568 168.998 240.209 168.076C249.059 166.321 257.032 162.525 264.453 157.498C273.055 151.67 280.356 144.548 285.909 135.709L285.907 135.708ZM284.49 103.788C282.975 102.268 281.638 101.051 280.451 99.7067C278.616 97.6276 276.426 96.1095 273.839 95.159C269.134 93.4316 264.294 93.4116 259.426 94.156C250.109 95.5815 241.746 99.4031 233.952 104.556C225.047 110.441 217.494 117.697 211.772 126.777C211.285 127.551 211.133 128.165 211.758 128.951C213.016 130.535 214.149 132.221 215.431 133.784C216.185 134.701 217.13 135.461 217.991 136.293C219.698 133.818 221.141 131.411 222.884 129.244C232.8 116.921 245.118 107.961 260.312 103.299C268.261 100.861 276.317 100.021 284.491 103.786L284.49 103.788Z" fill="white"/>
<path d="M285.904 135.709C280.352 144.549 273.051 151.673 264.449 157.499C257.028 162.526 249.057 166.319 240.206 168.077C235.565 168.999 230.902 169.271 226.25 168.169C217.506 166.093 212.848 159.337 213.943 150.419C214.709 144.182 217.177 138.592 220.696 133.501C230.497 119.321 243.613 109.473 260.008 104.108C265.58 102.284 271.326 101.428 277.212 102.286C287.595 103.8 292.984 111.065 291.439 121.433C290.667 126.609 288.518 131.25 285.903 135.711L285.904 135.709ZM280.603 134.926C284.282 128.923 285.806 124.568 285.949 120.632C286.148 115.147 283.285 111.155 278.007 109.669C273.804 108.484 269.599 108.921 265.439 109.902C257.826 111.697 250.996 115.202 244.651 119.683C236.648 125.334 229.746 132.047 225.053 140.773C223.004 144.583 221.544 148.603 221.924 153.041C222.279 157.173 224.362 160.106 228.214 161.746C230.805 162.848 233.522 163.114 236.29 162.959C242.76 162.6 248.737 160.501 254.426 157.558C265.429 151.867 274.627 144.109 280.603 134.926Z" fill="#8023F7"/>
<path d="M284.486 103.789C276.313 100.024 268.256 100.863 260.308 103.301C245.111 107.963 232.795 116.924 222.88 129.247C221.137 131.414 219.691 133.819 217.986 136.296C217.125 135.463 216.18 134.704 215.427 133.787C214.144 132.224 213.013 130.536 211.753 128.953C211.128 128.168 211.28 127.554 211.767 126.78C217.49 117.7 225.043 110.444 233.947 104.558C241.74 99.4081 250.105 95.5876 259.421 94.1589C264.29 93.4145 269.13 93.4344 273.835 95.1618C276.421 96.1123 278.612 97.6304 280.446 99.7096C281.635 101.056 282.971 102.271 284.485 103.791L284.486 103.789Z" fill="#8023F7"/>
<path d="M280.601 134.925C274.625 144.108 265.425 151.864 254.424 157.556C248.735 160.5 242.758 162.599 236.288 162.958C233.521 163.111 230.806 162.848 228.213 161.744C224.36 160.105 222.278 157.17 221.923 153.04C221.542 148.602 223.002 144.582 225.051 140.772C229.743 132.048 236.642 125.333 244.649 119.682C250.994 115.2 257.826 111.697 265.437 109.901C269.599 108.921 273.804 108.484 278.005 109.667C283.282 111.155 286.143 115.146 285.947 120.631C285.804 124.567 284.28 128.922 280.601 134.925ZM279.506 127.592C281.532 124.245 283.204 120.773 283.418 116.779C283.573 113.874 282.684 112.527 280.047 111.262C276.204 109.417 272.183 109.476 268.132 110.138C261.082 111.294 254.677 114.152 248.682 117.929C238.896 124.094 230.532 131.681 225.2 142.164C223.508 145.49 222.283 149.01 222.665 152.802C223.149 157.601 224.296 158.485 228.669 159.157C232.212 159.701 235.68 159.041 239.082 158.066C246.98 155.8 254.044 151.862 260.638 147.058C268.043 141.662 274.599 135.417 279.506 127.588L279.506 127.592Z" fill="white"/>
<path d="M279.506 127.592C274.6 135.421 268.044 141.665 260.639 147.061C254.045 151.865 246.981 155.803 239.083 158.069C235.681 159.044 232.213 159.705 228.669 159.16C224.297 158.489 223.149 157.604 222.666 152.806C222.283 149.014 223.509 145.493 225.201 142.168C230.533 131.685 238.897 124.097 248.682 117.932C254.679 114.154 261.083 111.297 268.133 110.141C272.182 109.478 276.203 109.419 280.048 111.265C282.687 112.531 283.576 113.876 283.419 116.782C283.205 120.776 281.533 124.249 279.507 127.595L279.506 127.592Z" fill="#8023F7"/>
<path d="M242.67 187.224L306.387 124.623L286.612 105.92L221.719 168.372L242.67 187.224Z" fill="#010101" stroke="#010101"/>
<path d="M376.746 103.58C376.682 108.673 376.223 112.586 374.515 116.255C372.986 119.548 370.744 122.037 367.117 123.175C365.548 123.667 364.088 124.563 362.647 125.392C359.582 127.15 356.464 126.98 353.318 125.742C349.58 124.271 346.585 121.734 344.129 118.655C335.857 108.272 331.963 96.4822 333.237 83.165C333.568 79.7106 334.642 76.4508 336.7 73.5748C339.348 69.8701 348.632 65.5367 353.063 66.0401C357.087 66.4963 360.283 68.6518 363.078 71.3915C370.424 78.5897 374.279 87.5679 376.059 97.5336C376.479 99.8838 376.601 102.29 376.743 103.583L376.746 103.58ZM376.048 106.259C375.581 93.8121 372.351 83.9271 365.626 75.3021C363.009 71.945 359.919 69.0802 355.85 67.5115C350.84 65.5812 346.41 67.0442 343.534 71.5667C341.342 75.0156 340.58 78.8928 340.455 82.8813C340.138 92.9665 342.972 102.206 348.301 110.703C350.701 114.531 353.636 117.899 357.504 120.344C364.719 124.905 371.517 122.699 374.284 114.636C375.366 111.482 375.683 108.069 376.048 106.259ZM364.18 123.514C358.976 122.961 355.157 120.227 351.911 116.658C344.724 108.751 341.011 99.2636 339.832 88.7583C339.234 83.432 339.537 78.1335 341.784 73.1298C342.274 72.0395 342.919 71.016 343.556 69.8395C339.815 70.9771 337.162 73.2077 335.899 76.6483C334.923 79.3045 334.147 82.1359 333.916 84.9423C333.156 94.1264 335.473 102.715 339.768 110.778C342.616 116.13 346.223 120.872 351.588 124.004C355.791 126.454 359.935 126.616 364.18 123.514Z" fill="white"/>
<path d="M376.045 106.259C376.045 109.602 375.364 111.482 374.282 114.636C371.517 122.699 364.719 124.905 357.502 120.344C353.633 117.899 350.699 114.531 348.298 110.703C342.969 102.206 340.138 92.9638 340.452 82.8813C340.577 78.8928 341.336 75.0156 343.531 71.5667C346.404 67.047 350.838 65.584 355.847 67.5115C359.916 69.0774 363.003 71.9422 365.623 75.3021C372.349 83.9271 376.045 93.4199 376.045 106.259ZM372.485 104.373C372.351 95.3947 368.964 85.4875 363.546 78.3699C361.64 75.8639 359.465 73.65 356.578 72.2398C352.309 70.1593 348.165 71.5111 346.468 75.9668C345.522 78.445 344.924 81.1986 344.866 83.8464C344.663 93.2864 347.569 101.878 352.796 109.68C354.809 112.686 357.238 115.343 360.539 117.011C364.795 119.164 368.588 117.91 370.716 113.643C372.171 110.728 372.443 107.566 372.482 104.373H372.485Z" fill="#8023F7"/>
<path d="M364.177 123.514C359.935 126.616 355.788 126.454 351.586 124.004C346.218 120.872 342.613 116.13 339.765 110.778C335.471 102.715 333.154 94.1264 333.913 84.9423C334.144 82.1359 334.923 79.3045 335.896 76.6483C337.159 73.2049 339.809 70.977 343.553 69.8395C342.913 71.016 342.271 72.0367 341.781 73.1298C339.537 78.1335 339.231 83.432 339.829 88.7583C341.011 99.2608 344.721 108.751 351.908 116.658C355.154 120.23 358.973 122.961 364.177 123.514Z" fill="#8023F7"/>
<path d="M372.485 104.376C372.443 107.572 372.171 110.731 370.716 113.646C368.585 117.913 364.794 119.167 360.539 117.014C357.237 115.343 354.809 112.686 352.796 109.683C347.567 101.878 344.66 93.2892 344.866 83.8492C344.924 81.2041 345.522 78.4478 346.468 75.9696C348.167 71.5138 352.309 70.1621 356.578 72.2426C359.468 73.6527 361.64 75.8667 363.546 78.3727C368.961 85.4902 372.351 95.3975 372.485 104.376ZM345.495 85.2093C346.029 94.8912 348.974 103.903 355.285 111.641C357.479 114.33 360.044 116.603 363.676 117.228C364.689 117.404 365.534 117.201 365.89 116.269C366.758 114.01 367.982 111.749 368.199 109.41C369.253 97.9841 365.768 87.8099 358.709 78.9123C357.054 76.8235 354.654 75.2019 352.331 73.8001C350.048 72.4206 349.088 72.8906 347.667 75.2186C345.831 78.2253 345.628 81.6102 345.489 85.2121L345.495 85.2093Z" fill="white"/>
<path d="M345.497 85.2065C345.636 81.6074 345.839 78.2197 347.675 75.2131C349.094 72.8879 350.053 72.4178 352.339 73.7946C354.659 75.1964 357.059 76.8179 358.717 78.9067C365.773 87.8043 369.261 97.9786 368.207 109.404C367.99 111.744 366.766 114.008 365.899 116.263C365.54 117.195 364.694 117.398 363.685 117.223C360.052 116.594 357.485 114.325 355.293 111.635C348.982 103.897 346.037 94.8829 345.503 85.2038L345.497 85.2065Z" fill="#8023F7"/>
<path d="M237.752 34.7309C234.504 35.6289 231.932 36.0585 229.285 35.6493C226.91 35.284 224.915 34.318 223.523 32.2225C222.921 31.3162 222.083 30.5532 221.291 29.7903C219.608 28.1662 219.142 26.1532 219.348 23.9257C219.594 21.2786 220.655 18.9072 222.159 16.7787C227.233 9.60753 234.009 4.95946 242.708 3.31449C244.965 2.88813 247.234 2.96965 249.442 3.74772C252.284 4.74779 256.75 9.84992 257.247 12.7588C257.699 15.4009 256.918 17.8293 255.692 20.1109C252.47 26.1064 247.475 30.2114 241.469 33.1797C240.052 33.8798 238.546 34.4011 237.75 34.7296L237.752 34.7309ZM235.921 34.7808C243.746 32.1897 249.433 28.3153 253.676 22.451C255.327 20.1688 256.578 17.6767 256.825 14.8013C257.129 11.2617 255.382 8.71532 251.978 7.72102C249.382 6.96371 246.777 7.19399 244.219 7.84959C237.75 9.50698 232.4 13.0114 227.982 17.9647C225.992 20.1957 224.392 22.6815 223.551 25.5911C221.982 31.0175 224.637 34.9315 230.272 35.2042C232.476 35.3105 234.703 34.883 235.921 34.7808ZM222.766 30.4183C222.159 27.0087 223.193 24.0776 224.863 21.3569C228.564 15.3314 233.909 11.2227 240.369 8.53686C243.644 7.17504 247.067 6.39111 250.662 6.8972C251.445 7.00737 252.214 7.22884 253.08 7.4168C251.667 5.24881 249.76 3.9735 247.341 3.80509C245.473 3.67419 243.53 3.70287 241.704 4.07342C235.726 5.28362 230.695 8.33928 226.361 12.5549C223.485 15.3515 221.136 18.5184 220.134 22.5057C219.352 25.6285 220.013 28.2922 222.766 30.4183Z" fill="white"/>
<path d="M235.921 34.7791C233.796 35.3953 232.475 35.3088 230.271 35.2025C224.637 34.9315 221.982 31.0176 223.551 25.5894C224.391 22.6798 225.991 20.1939 227.981 17.9629C232.4 13.0097 237.752 9.50649 244.218 7.84786C246.776 7.19225 249.381 6.96021 251.977 7.71929C255.379 8.71233 257.126 11.2605 256.825 14.7996C256.579 17.6745 255.328 20.1647 253.675 22.4493C249.433 28.3136 244.081 32.4127 235.921 34.7791ZM236.463 32.1688C242.145 30.429 247.817 26.4498 251.342 21.6942C252.584 20.0214 253.59 18.2309 253.954 16.136C254.49 13.039 252.867 10.6542 249.722 10.3971C247.972 10.2528 246.112 10.3803 244.418 10.8312C238.381 12.4421 233.456 15.8731 229.461 20.6328C227.921 22.4668 226.68 24.4997 226.228 26.9057C225.644 30.0072 227.141 32.1872 230.245 32.7531C232.366 33.1404 234.426 32.7308 236.462 32.167L236.463 32.1688Z" fill="#8023F7"/>
<path d="M222.766 30.4165C220.013 28.2923 219.351 25.6268 220.134 22.504C221.135 18.5149 223.485 15.3498 226.361 12.5532C230.694 8.33757 235.726 5.2819 241.703 4.0717C243.529 3.70115 245.473 3.67424 247.34 3.80338C249.761 3.97128 251.666 5.24533 253.079 7.41509C252.213 7.22535 251.446 7.00514 250.661 6.89549C247.067 6.39116 243.643 7.17333 240.368 8.53515C233.911 11.2223 228.563 15.3297 224.862 21.3551C223.19 24.0764 222.158 27.007 222.766 30.4165Z" fill="#8023F7"/>
<path d="M236.461 32.1692C234.422 32.7318 232.364 33.1409 230.243 32.7536C227.139 32.1859 225.643 30.0076 226.227 26.9061C226.68 24.4997 227.921 22.4668 229.459 20.6332C233.456 15.8713 238.379 12.4408 244.417 10.8317C246.109 10.3813 247.971 10.2533 249.72 10.3976C252.865 10.6564 254.488 13.0395 253.953 16.1365C253.589 18.2331 252.582 20.0219 251.341 21.6947C247.815 26.4485 242.143 30.4295 236.461 32.1692ZM243.668 11.4819C237.613 13.6059 232.428 17.139 228.674 22.5763C227.369 24.4668 226.397 26.5156 226.669 28.9397C226.744 29.6154 227.029 30.1154 227.687 30.1699C229.282 30.3052 230.945 30.6662 232.472 30.373C239.928 28.937 245.752 24.8466 250.106 18.72C251.129 17.2831 251.717 15.4587 252.18 13.7242C252.636 12.0185 252.16 11.4953 250.418 11.0211C248.169 10.4085 245.98 10.9034 243.665 11.4789L243.668 11.4819Z" fill="white"/>
<path d="M243.67 11.4832C245.984 10.9082 248.174 10.4129 250.423 11.0254C252.163 11.4984 252.638 12.0216 252.185 13.7285C251.721 15.4612 251.133 17.2857 250.111 18.7243C245.757 24.8492 239.933 28.9413 232.477 30.3773C230.95 30.6706 229.285 30.3101 227.692 30.1743C227.033 30.118 226.748 29.618 226.674 28.944C226.404 26.5194 227.373 24.4694 228.679 22.5807C232.433 17.1433 237.62 13.6097 243.673 11.4862L243.67 11.4832Z" fill="#8023F7"/>
<path d="M178.392 92.4453C178.218 97.2235 176.911 101.385 173.38 104.734C172.125 105.926 171.045 107.311 169.946 108.655C165.68 113.871 160.16 115.174 153.815 113.815C145.591 112.052 138.879 107.556 132.872 101.912C125.191 94.6915 119.358 86.2342 116.37 76.0245C115.026 71.4394 114.32 66.7059 115.92 62.0614C116.622 60.0232 117.907 58.1149 119.232 56.3848C120.698 54.4654 122.648 52.9172 124.155 51.0238C127.608 46.6838 132.17 45.5292 137.375 46.1603C143.984 46.9622 149.712 49.9137 154.929 53.8602C165.465 61.8312 173.265 71.8293 176.967 84.6823C177.691 87.1994 177.932 89.8539 178.396 92.4453H178.392ZM131.242 53.8268C121.56 53.7452 116.551 58.3339 116.277 65.8705C116.176 68.6141 116.37 71.4654 117.016 74.1274C119.878 85.9037 126.691 95.2261 135.697 103.049C141.322 107.934 147.6 111.662 155.085 113.021C164.136 114.662 170.685 109.501 170.919 100.335C170.975 98.0662 170.796 95.7124 170.247 93.5183C166.471 78.4562 157.323 67.2999 144.511 58.9762C139.867 55.9579 134.791 53.8937 131.242 53.8268ZM171.569 104.905C174.735 102.254 176.826 99.0204 176.878 94.8994C176.915 91.8736 176.822 88.7439 176.105 85.8295C173.358 74.6471 166.883 65.7072 158.47 58.1075C152.783 52.9692 146.397 48.967 138.731 47.4263C132.152 46.1046 127.11 48.1168 123.895 53.4036C128.376 52.093 132.638 52.7613 136.878 54.135C155.359 60.1382 175.775 86.2082 171.572 104.905H171.569Z" fill="white"/>
<path d="M131.238 53.8231C134.784 53.8899 139.859 55.9541 144.507 58.9725C157.319 67.2962 166.467 78.4525 170.243 93.5146C170.792 95.7087 170.971 98.0625 170.915 100.331C170.685 109.497 164.136 114.658 155.081 113.017C147.596 111.658 141.322 107.931 135.693 103.045C126.687 95.2261 119.874 85.9 117.012 74.1236C116.366 71.4617 116.173 68.6104 116.273 65.8668C116.547 58.3265 121.556 53.7414 131.238 53.8231ZM154.91 107.374C160.779 107.455 164.013 104.931 164.299 100.104C164.47 97.1975 164.132 94.0863 163.234 91.3241C160.093 81.6602 153.963 74.0197 146.148 67.6786C142.064 64.3632 137.613 61.7198 132.322 60.7917C126.49 59.767 122.425 62.8076 122.012 68.6661C121.897 70.3071 121.957 72.0409 122.365 73.6224C125.803 86.9841 134.093 96.7037 145.532 103.962C148.669 105.952 152.107 107.24 154.914 107.374H154.91Z" fill="#8023F7"/>
<path d="M171.569 104.901C175.775 86.2045 155.359 60.1346 136.874 54.1313C132.638 52.7539 128.372 52.0857 123.891 53.3999C127.106 48.1095 132.144 46.0972 138.727 47.4226C146.393 48.9634 152.779 52.9655 158.467 58.1038C166.88 65.7035 173.351 74.6434 176.102 85.8258C176.818 88.7402 176.911 91.8699 176.874 94.8957C176.826 99.0167 174.735 102.247 171.565 104.901H171.569Z" fill="#8023F7"/>
<path d="M154.91 107.374C152.103 107.24 148.665 105.952 145.528 103.962C134.094 96.7037 125.803 86.9841 122.362 73.6224C121.953 72.0408 121.894 70.3071 122.009 68.6661C122.425 62.8076 126.486 59.767 132.319 60.7917C137.609 61.7235 142.061 64.3669 146.145 67.6786C153.956 74.0197 160.089 81.6602 163.23 91.3241C164.129 94.0863 164.466 97.1975 164.296 100.104C164.01 104.931 160.776 107.459 154.906 107.374H154.91ZM163.468 98.0996C163.523 98.0885 163.583 98.0811 163.638 98.0699C163.345 96.4364 163.212 94.7509 162.729 93.173C159.02 81.0625 151.346 72.0149 140.832 65.2505C137.713 63.2457 134.327 61.7903 130.511 61.7198C127.5 61.6641 126.442 62.3027 126.379 65.321C126.316 68.3245 126.498 71.4877 127.385 74.3315C130.128 83.1267 135.649 90.1509 142.454 96.2099C146.594 99.8965 151.157 102.926 156.622 104.277C161.418 105.462 163.338 103.91 163.471 98.935C163.479 98.6565 163.471 98.3781 163.471 98.0996H163.468Z" fill="white"/>
<path d="M163.468 98.0997C163.468 98.3781 163.475 98.6566 163.468 98.935C163.334 103.91 161.415 105.462 156.618 104.277C151.153 102.926 146.594 99.8966 142.451 96.2099C135.645 90.1547 130.125 83.1267 127.381 74.3316C126.494 71.4914 126.316 68.3283 126.375 65.3211C126.438 62.3027 127.496 61.6641 130.507 61.7198C134.324 61.7904 137.71 63.2457 140.828 65.2505C151.346 72.0149 159.02 81.0662 162.725 93.173C163.208 94.7509 163.338 96.4364 163.635 98.07C163.579 98.0811 163.52 98.0922 163.464 98.0997H163.468Z" fill="#8023F7"/>
<path d="M307.706 192.707L297.999 183L307.706 173.293C307.892 173.105 307.997 172.851 307.997 172.586C307.997 172.321 307.892 172.067 307.706 171.879L303.121 167.294C303.028 167.201 302.918 167.127 302.797 167.076C302.675 167.026 302.545 167 302.414 167C302.283 167 302.153 167.026 302.031 167.076C301.91 167.127 301.8 167.201 301.707 167.294L292 177.001L282.293 167.294C282.105 167.106 281.851 167.001 281.586 167.001C281.321 167.001 281.067 167.106 280.879 167.294L276.294 171.879C276.201 171.972 276.127 172.082 276.076 172.203C276.026 172.325 276 172.455 276 172.586C276 172.717 276.026 172.847 276.076 172.969C276.127 173.09 276.201 173.2 276.294 173.293L286.001 183L276.294 192.707C276.106 192.895 276.001 193.149 276.001 193.414C276.001 193.679 276.106 193.933 276.294 194.121L280.879 198.706C280.972 198.799 281.082 198.873 281.203 198.924C281.325 198.974 281.455 199 281.586 199C281.717 199 281.847 198.974 281.969 198.924C282.09 198.873 282.2 198.799 282.293 198.706L292 188.999L301.707 198.706C301.895 198.894 302.149 198.999 302.414 198.999C302.679 198.999 302.933 198.894 303.121 198.706L307.706 194.121C307.799 194.028 307.873 193.918 307.924 193.797C307.974 193.675 308 193.545 308 193.414C308 193.283 307.974 193.153 307.924 193.031C307.873 192.91 307.799 192.8 307.706 192.707Z" fill="#ACD92A"/>
<path d="M352.706 192.707L342.999 183L352.706 173.293C352.892 173.105 352.997 172.851 352.997 172.586C352.997 172.321 352.892 172.067 352.706 171.879L348.121 167.294C348.028 167.201 347.918 167.127 347.797 167.076C347.675 167.026 347.545 167 347.414 167C347.283 167 347.153 167.026 347.031 167.076C346.91 167.127 346.8 167.201 346.707 167.294L337 177.001L327.293 167.294C327.105 167.106 326.851 167.001 326.586 167.001C326.321 167.001 326.067 167.106 325.879 167.294L321.294 171.879C321.201 171.972 321.127 172.082 321.076 172.203C321.026 172.325 321 172.455 321 172.586C321 172.717 321.026 172.847 321.076 172.969C321.127 173.09 321.201 173.2 321.294 173.293L331.001 183L321.294 192.707C321.106 192.895 321.001 193.149 321.001 193.414C321.001 193.679 321.106 193.933 321.294 194.121L325.879 198.706C325.972 198.799 326.082 198.873 326.203 198.924C326.325 198.974 326.455 199 326.586 199C326.717 199 326.847 198.974 326.969 198.924C327.09 198.873 327.2 198.799 327.293 198.706L337 188.999L346.707 198.706C346.895 198.894 347.149 198.999 347.414 198.999C347.679 198.999 347.933 198.894 348.121 198.706L352.706 194.121C352.799 194.028 352.873 193.918 352.924 193.797C352.974 193.675 353 193.545 353 193.414C353 193.283 352.974 193.153 352.924 193.031C352.873 192.91 352.799 192.8 352.706 192.707Z" fill="#ACD92A"/>
<path d="M397.706 192.707L387.999 183L397.706 173.293C397.892 173.105 397.997 172.851 397.997 172.586C397.997 172.321 397.892 172.067 397.706 171.879L393.121 167.294C393.028 167.201 392.918 167.127 392.797 167.076C392.675 167.026 392.545 167 392.414 167C392.283 167 392.153 167.026 392.031 167.076C391.91 167.127 391.8 167.201 391.707 167.294L382 177.001L372.293 167.294C372.105 167.106 371.851 167.001 371.586 167.001C371.321 167.001 371.067 167.106 370.879 167.294L366.294 171.879C366.201 171.972 366.127 172.082 366.076 172.203C366.026 172.325 366 172.455 366 172.586C366 172.717 366.026 172.847 366.076 172.969C366.127 173.09 366.201 173.2 366.294 173.293L376.001 183L366.294 192.707C366.106 192.895 366.001 193.149 366.001 193.414C366.001 193.679 366.106 193.933 366.294 194.121L370.879 198.706C370.972 198.799 371.082 198.873 371.203 198.924C371.325 198.974 371.455 199 371.586 199C371.717 199 371.847 198.974 371.969 198.924C372.09 198.873 372.2 198.799 372.293 198.706L382 188.999L391.707 198.706C391.895 198.894 392.149 198.999 392.414 198.999C392.679 198.999 392.933 198.894 393.121 198.706L397.706 194.121C397.799 194.028 397.873 193.918 397.924 193.797C397.974 193.675 398 193.545 398 193.414C398 193.283 397.974 193.153 397.924 193.031C397.873 192.91 397.799 192.8 397.706 192.707Z" fill="#ACD92A"/>
<path d="M81.5046 112.381L65.124 96L81.5046 79.6194C81.8184 79.3017 81.9944 78.8731 81.9944 78.4265C81.9944 77.9799 81.8184 77.5512 81.5046 77.2335L73.7665 69.4954C73.61 69.3384 73.4241 69.2138 73.2194 69.1288C73.0147 69.0438 72.7952 69 72.5735 69C72.3519 69 72.1324 69.0438 71.9277 69.1288C71.723 69.2138 71.537 69.3384 71.3806 69.4954L55 85.876L38.6194 69.4954C38.303 69.1791 37.8739 69.0014 37.4265 69.0014C36.979 69.0014 36.5499 69.1791 36.2335 69.4954L28.4954 77.2335C28.3384 77.39 28.2138 77.5759 28.1288 77.7806C28.0438 77.9853 28 78.2048 28 78.4265C28 78.6481 28.0438 78.8676 28.1288 79.0723C28.2138 79.277 28.3384 79.463 28.4954 79.6194L44.876 96L28.4954 112.381C28.1791 112.697 28.0014 113.126 28.0014 113.574C28.0014 114.021 28.1791 114.45 28.4954 114.766L36.2335 122.505C36.39 122.662 36.5759 122.786 36.7806 122.871C36.9853 122.956 37.2048 123 37.4265 123C37.6481 123 37.8676 122.956 38.0723 122.871C38.277 122.786 38.463 122.662 38.6194 122.505L55 106.124L71.3806 122.505C71.697 122.821 72.1261 122.999 72.5735 122.999C73.021 122.999 73.4501 122.821 73.7665 122.505L81.5046 114.766C81.6616 114.61 81.7862 114.424 81.8712 114.219C81.9562 114.015 82 113.795 82 113.574C82 113.352 81.9562 113.132 81.8712 112.928C81.7862 112.723 81.6616 112.537 81.5046 112.381Z" fill="#ACD92A"/>
</g>
<defs>
<linearGradient id="paint0_linear_765_2620" x1="5" y1="139" x2="464.5" y2="139" gradientUnits="userSpaceOnUse">
<stop stop-color="white" stop-opacity="0.12"/>
<stop offset="0.24" stop-color="white"/>
<stop offset="0.44" stop-color="white" stop-opacity="0.32"/>
<stop offset="0.675" stop-color="white"/>
<stop offset="0.865" stop-color="white" stop-opacity="0"/>
<stop offset="1" stop-color="white"/>
</linearGradient>
<linearGradient id="paint1_linear_765_2620" x1="20.5" y1="135" x2="381.5" y2="247.5" gradientUnits="userSpaceOnUse">
<stop stop-color="white" stop-opacity="0.56"/>
<stop offset="0.185" stop-color="white"/>
<stop offset="0.36" stop-color="white" stop-opacity="0.64"/>
<stop offset="0.535" stop-color="white" stop-opacity="0"/>
<stop offset="0.715" stop-color="white" stop-opacity="0.8"/>
<stop offset="0.85" stop-color="white" stop-opacity="0.32"/>
<stop offset="1" stop-color="white"/>
</linearGradient>
<linearGradient id="paint2_linear_765_2620" x1="5.5" y1="64.3152" x2="416.574" y2="179.827" gradientUnits="userSpaceOnUse">
<stop stop-color="white"/>
<stop offset="1" stop-color="#999999"/>
</linearGradient>
<clipPath id="clip0_765_2620">
<rect width="465" height="287" fill="white"/>
</clipPath>
</defs>
</svg>
